M48
INCH,TZ
T1C0.0118
T2C0.0197
T3C0.0276
T4C0.0413
T5C0.0469
T6C0.0472
T7C0.1260
%
G90
G05
T1
X24173Y-17323
X24449Y-16654
X24528Y-18110
X25197Y-18346
X25236Y-16299
X25906Y-16575
X25906Y-18031
X26220Y-17323
X30079Y-17283
X30118Y-27953
X30394Y-18071
X30433Y-16575
X30433Y-27205
X30512Y-28740
X31102Y-16299
X31102Y-18346
X31102Y-28976
X31142Y-26929
X31772Y-16535
X31772Y-28740
X31811Y-18071
X31811Y-27244
X32087Y-17283
X32087Y-27953
X42677Y-18465
X42717Y-27913
X42992Y-17795
X42992Y-28661
X43031Y-19252
X43031Y-27165
X43701Y-17480
X43701Y-19528
X43701Y-26890
X43701Y-28976
X44409Y-17756
X44409Y-27165
X44488Y-19173
X44488Y-28661
X44724Y-18465
X44724Y-27913
T2
X27000Y-20000
X27000Y-20000
X27000Y-21000
X27000Y-22000
X27000Y-22000
X27000Y-23000
X27000Y-24000
X27500Y-20000
X27500Y-20000
X27500Y-21000
X27500Y-22000
X27500Y-22000
X27500Y-23000
X27500Y-24000
X28000Y-20000
X28000Y-21000
X28000Y-22000
X28000Y-23000
X28000Y-24000
X28500Y-20000
X28500Y-21000
X28500Y-22000
X28500Y-23000
X28500Y-24000
X29000Y-20000
X29000Y-22000
X29000Y-24000
X29402Y-25378
X29500Y-20000
X29500Y-21000
X29500Y-22000
X29500Y-23000
X29500Y-24000
X29902Y-25378
X30000Y-20000
X30000Y-21000
X30000Y-22000
X30000Y-23000
X30000Y-24000
X30402Y-25378
X30500Y-20000
X30500Y-21000
X30500Y-22000
X30500Y-23000
X30500Y-24000
X31988Y-25394
X32488Y-25394
X32500Y-20000
X32500Y-21000
X32500Y-22000
X32988Y-25394
X33858Y-25984
X33858Y-26378
X33858Y-28150
X33858Y-28543
X34252Y-20472
X34252Y-24409
X35039Y-20472
X35039Y-24409
X35827Y-20472
X35827Y-24409
X36614Y-20472
X36614Y-24409
X37500Y-25394
X38000Y-25394
X38500Y-25394
X40945Y-16339
X40945Y-16732
X40945Y-18504
X40945Y-18898
T3
X33858Y-26772
X33858Y-27756
X40945Y-17126
X40945Y-18110
T4
X26378Y-25984
X26378Y-27953
X48425Y-17323
X48425Y-19291
T5
X27559Y-17323
X28559Y-17323
T6
X25197Y-19291
X25197Y-20472
X25197Y-21654
X25197Y-22835
X25197Y-24016
X26378Y-25197
X26378Y-28740
X35827Y-27953
X37008Y-18504
X37402Y-27953
X38189Y-18504
X38287Y-20900
X38287Y-21900
X38287Y-22900
X39287Y-20900
X39287Y-21900
X39287Y-22900
X39370Y-18504
X39764Y-24409
X39764Y-25394
X39764Y-26772
X40287Y-20900
X40287Y-21900
X40287Y-22900
X41287Y-20900
X41287Y-21900
X41287Y-22900
X42113Y-25400
X42600Y-26300
X43113Y-25400
X43637Y-20900
X43637Y-21900
X43637Y-22900
X43637Y-23900
X44637Y-20900
X44637Y-21900
X44637Y-22900
X44637Y-23900
X45187Y-25050
X45187Y-26050
X45637Y-20900
X45637Y-21900
X45637Y-22900
X45637Y-23900
X46187Y-25050
X46187Y-26050
X46457Y-27953
X46637Y-20900
X46637Y-21900
X46637Y-22900
X46637Y-23900
X47187Y-25050
X47187Y-26050
X47637Y-21900
X47637Y-22900
X47637Y-23900
X48031Y-27953
X48425Y-16535
X48425Y-20079
X49606Y-21260
X49606Y-22441
X49606Y-24409
X49606Y-26772
T7
X25197Y-17323
X31102Y-17323
X31102Y-27953
X43701Y-18504
X43701Y-27953
T0
M30
