%TF.GenerationSoftware,KiCad,Pcbnew,(5.1.9)-1*%
%TF.CreationDate,2021-06-06T14:42:32+02:00*%
%TF.ProjectId,Yarra_Experimenter,59617272-615f-4457-9870-6572696d656e,rev?*%
%TF.SameCoordinates,Original*%
%TF.FileFunction,Legend,Top*%
%TF.FilePolarity,Positive*%
%FSLAX46Y46*%
G04 Gerber Fmt 4.6, Leading zero omitted, Abs format (unit mm)*
G04 Created by KiCad (PCBNEW (5.1.9)-1) date 2021-06-06 14:42:32*
%MOMM*%
%LPD*%
G01*
G04 APERTURE LIST*
%ADD10C,0.150000*%
%ADD11C,0.120000*%
%ADD12C,0.200000*%
%ADD13C,0.254000*%
G04 APERTURE END LIST*
D10*
X79057619Y-60412380D02*
X79390952Y-61412380D01*
X79724285Y-60412380D01*
X80057619Y-61031428D02*
X80819523Y-61031428D01*
X80438571Y-61412380D02*
X80438571Y-60650476D01*
X79547619Y-67452380D02*
X79880952Y-68452380D01*
X80214285Y-67452380D01*
X80547619Y-68071428D02*
X81309523Y-68071428D01*
X61761904Y-55850000D02*
X61666666Y-55802380D01*
X61523809Y-55802380D01*
X61380952Y-55850000D01*
X61285714Y-55945238D01*
X61238095Y-56040476D01*
X61190476Y-56230952D01*
X61190476Y-56373809D01*
X61238095Y-56564285D01*
X61285714Y-56659523D01*
X61380952Y-56754761D01*
X61523809Y-56802380D01*
X61619047Y-56802380D01*
X61761904Y-56754761D01*
X61809523Y-56707142D01*
X61809523Y-56373809D01*
X61619047Y-56373809D01*
X61214285Y-58452380D02*
X61214285Y-57452380D01*
X61785714Y-58452380D01*
X61785714Y-57452380D01*
X61238095Y-60102380D02*
X61238095Y-59102380D01*
X61476190Y-59102380D01*
X61619047Y-59150000D01*
X61714285Y-59245238D01*
X61761904Y-59340476D01*
X61809523Y-59530952D01*
X61809523Y-59673809D01*
X61761904Y-59864285D01*
X61714285Y-59959523D01*
X61619047Y-60054761D01*
X61476190Y-60102380D01*
X61238095Y-60102380D01*
X119238095Y-44142857D02*
X120761904Y-44142857D01*
X125238095Y-44142857D02*
X126761904Y-44142857D01*
X69238095Y-71142857D02*
X70761904Y-71142857D01*
X63238095Y-71142857D02*
X64761904Y-71142857D01*
X119238095Y-49142857D02*
X120761904Y-49142857D01*
X120000000Y-49904761D02*
X120000000Y-48380952D01*
X125238095Y-49142857D02*
X126761904Y-49142857D01*
X126000000Y-49904761D02*
X126000000Y-48380952D01*
X69238095Y-66142857D02*
X70761904Y-66142857D01*
X70000000Y-66904761D02*
X70000000Y-65380952D01*
X63238095Y-66142857D02*
X64761904Y-66142857D01*
X64000000Y-66904761D02*
X64000000Y-65380952D01*
X95047619Y-48952380D02*
X95380952Y-49952380D01*
X95714285Y-48952380D01*
X96047619Y-49571428D02*
X96809523Y-49571428D01*
X96428571Y-49952380D02*
X96428571Y-49190476D01*
X115134285Y-73112380D02*
X115467619Y-74112380D01*
X115800952Y-73112380D01*
X116039047Y-73112380D02*
X116658095Y-73112380D01*
X116324761Y-73493333D01*
X116467619Y-73493333D01*
X116562857Y-73540952D01*
X116610476Y-73588571D01*
X116658095Y-73683809D01*
X116658095Y-73921904D01*
X116610476Y-74017142D01*
X116562857Y-74064761D01*
X116467619Y-74112380D01*
X116181904Y-74112380D01*
X116086666Y-74064761D01*
X116039047Y-74017142D01*
X118134285Y-73112380D02*
X118134285Y-73826666D01*
X118086666Y-73969523D01*
X117991428Y-74064761D01*
X117848571Y-74112380D01*
X117753333Y-74112380D01*
X119039047Y-73445714D02*
X119039047Y-74112380D01*
X118610476Y-73445714D02*
X118610476Y-73969523D01*
X118658095Y-74064761D01*
X118753333Y-74112380D01*
X118896190Y-74112380D01*
X118991428Y-74064761D01*
X119039047Y-74017142D01*
X119515238Y-73445714D02*
X119515238Y-74112380D01*
X119515238Y-73540952D02*
X119562857Y-73493333D01*
X119658095Y-73445714D01*
X119800952Y-73445714D01*
X119896190Y-73493333D01*
X119943809Y-73588571D01*
X119943809Y-74112380D01*
X120800952Y-74064761D02*
X120705714Y-74112380D01*
X120515238Y-74112380D01*
X120420000Y-74064761D01*
X120372380Y-73969523D01*
X120372380Y-73588571D01*
X120420000Y-73493333D01*
X120515238Y-73445714D01*
X120705714Y-73445714D01*
X120800952Y-73493333D01*
X120848571Y-73588571D01*
X120848571Y-73683809D01*
X120372380Y-73779047D01*
X122467619Y-73112380D02*
X122277142Y-73112380D01*
X122181904Y-73160000D01*
X122134285Y-73207619D01*
X122039047Y-73350476D01*
X121991428Y-73540952D01*
X121991428Y-73921904D01*
X122039047Y-74017142D01*
X122086666Y-74064761D01*
X122181904Y-74112380D01*
X122372380Y-74112380D01*
X122467619Y-74064761D01*
X122515238Y-74017142D01*
X122562857Y-73921904D01*
X122562857Y-73683809D01*
X122515238Y-73588571D01*
X122467619Y-73540952D01*
X122372380Y-73493333D01*
X122181904Y-73493333D01*
X122086666Y-73540952D01*
X122039047Y-73588571D01*
X121991428Y-73683809D01*
X122848571Y-73445714D02*
X123229523Y-73445714D01*
X122991428Y-73112380D02*
X122991428Y-73969523D01*
X123039047Y-74064761D01*
X123134285Y-74112380D01*
X123229523Y-74112380D01*
X123562857Y-74112380D02*
X123562857Y-73112380D01*
X123991428Y-74112380D02*
X123991428Y-73588571D01*
X123943809Y-73493333D01*
X123848571Y-73445714D01*
X123705714Y-73445714D01*
X123610476Y-73493333D01*
X123562857Y-73540952D01*
X125181904Y-73207619D02*
X125229523Y-73160000D01*
X125324761Y-73112380D01*
X125562857Y-73112380D01*
X125658095Y-73160000D01*
X125705714Y-73207619D01*
X125753333Y-73302857D01*
X125753333Y-73398095D01*
X125705714Y-73540952D01*
X125134285Y-74112380D01*
X125753333Y-74112380D01*
X126372380Y-73112380D02*
X126467619Y-73112380D01*
X126562857Y-73160000D01*
X126610476Y-73207619D01*
X126658095Y-73302857D01*
X126705714Y-73493333D01*
X126705714Y-73731428D01*
X126658095Y-73921904D01*
X126610476Y-74017142D01*
X126562857Y-74064761D01*
X126467619Y-74112380D01*
X126372380Y-74112380D01*
X126277142Y-74064761D01*
X126229523Y-74017142D01*
X126181904Y-73921904D01*
X126134285Y-73731428D01*
X126134285Y-73493333D01*
X126181904Y-73302857D01*
X126229523Y-73207619D01*
X126277142Y-73160000D01*
X126372380Y-73112380D01*
X127086666Y-73207619D02*
X127134285Y-73160000D01*
X127229523Y-73112380D01*
X127467619Y-73112380D01*
X127562857Y-73160000D01*
X127610476Y-73207619D01*
X127658095Y-73302857D01*
X127658095Y-73398095D01*
X127610476Y-73540952D01*
X127039047Y-74112380D01*
X127658095Y-74112380D01*
X128610476Y-74112380D02*
X128039047Y-74112380D01*
X128324761Y-74112380D02*
X128324761Y-73112380D01*
X128229523Y-73255238D01*
X128134285Y-73350476D01*
X128039047Y-73398095D01*
X91632117Y-41455707D02*
X91632117Y-40455707D01*
X91965450Y-41169993D01*
X92298784Y-40455707D01*
X92298784Y-41455707D01*
X92727355Y-40550946D02*
X92774974Y-40503327D01*
X92870212Y-40455707D01*
X93108307Y-40455707D01*
X93203545Y-40503327D01*
X93251164Y-40550946D01*
X93298784Y-40646184D01*
X93298784Y-40741422D01*
X93251164Y-40884279D01*
X92679736Y-41455707D01*
X93298784Y-41455707D01*
X93632117Y-41455707D02*
X94155926Y-40789041D01*
X93632117Y-40789041D02*
X94155926Y-41455707D01*
X95251164Y-40408088D02*
X94394022Y-41693803D01*
X95774974Y-40979517D02*
X95774974Y-41455707D01*
X95441641Y-40455707D02*
X95774974Y-40979517D01*
X96108307Y-40455707D01*
X96870212Y-41455707D02*
X96870212Y-40931898D01*
X96822593Y-40836660D01*
X96727355Y-40789041D01*
X96536879Y-40789041D01*
X96441641Y-40836660D01*
X96870212Y-41408088D02*
X96774974Y-41455707D01*
X96536879Y-41455707D01*
X96441641Y-41408088D01*
X96394022Y-41312850D01*
X96394022Y-41217612D01*
X96441641Y-41122374D01*
X96536879Y-41074755D01*
X96774974Y-41074755D01*
X96870212Y-41027136D01*
X97346403Y-41455707D02*
X97346403Y-40789041D01*
X97346403Y-40979517D02*
X97394022Y-40884279D01*
X97441641Y-40836660D01*
X97536879Y-40789041D01*
X97632117Y-40789041D01*
X97965450Y-41455707D02*
X97965450Y-40789041D01*
X97965450Y-40979517D02*
X98013069Y-40884279D01*
X98060688Y-40836660D01*
X98155926Y-40789041D01*
X98251164Y-40789041D01*
X99013069Y-41455707D02*
X99013069Y-40931898D01*
X98965450Y-40836660D01*
X98870212Y-40789041D01*
X98679736Y-40789041D01*
X98584498Y-40836660D01*
X99013069Y-41408088D02*
X98917831Y-41455707D01*
X98679736Y-41455707D01*
X98584498Y-41408088D01*
X98536879Y-41312850D01*
X98536879Y-41217612D01*
X98584498Y-41122374D01*
X98679736Y-41074755D01*
X98917831Y-41074755D01*
X99013069Y-41027136D01*
X100251165Y-41455707D02*
X100251165Y-40455707D01*
X100632117Y-40455707D01*
X100727355Y-40503327D01*
X100774974Y-40550946D01*
X100822593Y-40646184D01*
X100822593Y-40789041D01*
X100774974Y-40884279D01*
X100727355Y-40931898D01*
X100632117Y-40979517D01*
X100251165Y-40979517D01*
X101251165Y-41455707D02*
X101251165Y-40789041D01*
X101251165Y-40979517D02*
X101298784Y-40884279D01*
X101346403Y-40836660D01*
X101441641Y-40789041D01*
X101536879Y-40789041D01*
X102251165Y-41408088D02*
X102155926Y-41455707D01*
X101965450Y-41455707D01*
X101870212Y-41408088D01*
X101822593Y-41312850D01*
X101822593Y-40931898D01*
X101870212Y-40836660D01*
X101965450Y-40789041D01*
X102155926Y-40789041D01*
X102251165Y-40836660D01*
X102298784Y-40931898D01*
X102298784Y-41027136D01*
X101822593Y-41122374D01*
X103774974Y-41836660D02*
X103727355Y-41789041D01*
X103632117Y-41646184D01*
X103584498Y-41550946D01*
X103536879Y-41408088D01*
X103489260Y-41169993D01*
X103489260Y-40979517D01*
X103536879Y-40741422D01*
X103584498Y-40598565D01*
X103632117Y-40503327D01*
X103727355Y-40360469D01*
X103774974Y-40312850D01*
X104155926Y-41455707D02*
X104155926Y-40455707D01*
X104155926Y-40836660D02*
X104251164Y-40789041D01*
X104441641Y-40789041D01*
X104536879Y-40836660D01*
X104584498Y-40884279D01*
X104632117Y-40979517D01*
X104632117Y-41265231D01*
X104584498Y-41360469D01*
X104536879Y-41408088D01*
X104441641Y-41455707D01*
X104251164Y-41455707D01*
X104155926Y-41408088D01*
X104965450Y-40789041D02*
X105203545Y-41455707D01*
X105441641Y-40789041D02*
X105203545Y-41455707D01*
X105108307Y-41693803D01*
X105060688Y-41741422D01*
X104965450Y-41789041D01*
X106489260Y-41455707D02*
X107013069Y-40789041D01*
X106489260Y-40789041D02*
X107013069Y-41455707D01*
X107394022Y-41455707D02*
X107394022Y-40789041D01*
X107394022Y-40979517D02*
X107441641Y-40884279D01*
X107489260Y-40836660D01*
X107584498Y-40789041D01*
X107679736Y-40789041D01*
X108013069Y-41455707D02*
X108013069Y-40455707D01*
X108108307Y-41074755D02*
X108394022Y-41455707D01*
X108394022Y-40789041D02*
X108013069Y-41169993D01*
X108870212Y-41455707D02*
X109060688Y-41455707D01*
X109155926Y-41408088D01*
X109203545Y-41360469D01*
X109298784Y-41217612D01*
X109346403Y-41027136D01*
X109346403Y-40646184D01*
X109298784Y-40550946D01*
X109251164Y-40503327D01*
X109155926Y-40455707D01*
X108965450Y-40455707D01*
X108870212Y-40503327D01*
X108822593Y-40550946D01*
X108774974Y-40646184D01*
X108774974Y-40884279D01*
X108822593Y-40979517D01*
X108870212Y-41027136D01*
X108965450Y-41074755D01*
X109155926Y-41074755D01*
X109251164Y-41027136D01*
X109298784Y-40979517D01*
X109346403Y-40884279D01*
X109679736Y-40455707D02*
X110346403Y-40455707D01*
X109917831Y-41455707D01*
X111251164Y-41455707D02*
X110679736Y-41455707D01*
X110965450Y-41455707D02*
X110965450Y-40455707D01*
X110870212Y-40598565D01*
X110774974Y-40693803D01*
X110679736Y-40741422D01*
X111584498Y-41836660D02*
X111632117Y-41789041D01*
X111727355Y-41646184D01*
X111774974Y-41550946D01*
X111822593Y-41408088D01*
X111870212Y-41169993D01*
X111870212Y-40979517D01*
X111822593Y-40741422D01*
X111774974Y-40598565D01*
X111727355Y-40503327D01*
X111632117Y-40360469D01*
X111584498Y-40312850D01*
X94965450Y-42581898D02*
X95298784Y-42581898D01*
X95441641Y-43105707D02*
X94965450Y-43105707D01*
X94965450Y-42105707D01*
X95441641Y-42105707D01*
X95774974Y-43105707D02*
X96298784Y-42439041D01*
X95774974Y-42439041D02*
X96298784Y-43105707D01*
X96679736Y-42439041D02*
X96679736Y-43439041D01*
X96679736Y-42486660D02*
X96774974Y-42439041D01*
X96965450Y-42439041D01*
X97060688Y-42486660D01*
X97108307Y-42534279D01*
X97155926Y-42629517D01*
X97155926Y-42915231D01*
X97108307Y-43010469D01*
X97060688Y-43058088D01*
X96965450Y-43105707D01*
X96774974Y-43105707D01*
X96679736Y-43058088D01*
X97965450Y-43058088D02*
X97870212Y-43105707D01*
X97679736Y-43105707D01*
X97584498Y-43058088D01*
X97536879Y-42962850D01*
X97536879Y-42581898D01*
X97584498Y-42486660D01*
X97679736Y-42439041D01*
X97870212Y-42439041D01*
X97965450Y-42486660D01*
X98013069Y-42581898D01*
X98013069Y-42677136D01*
X97536879Y-42772374D01*
X98441641Y-43105707D02*
X98441641Y-42439041D01*
X98441641Y-42629517D02*
X98489260Y-42534279D01*
X98536879Y-42486660D01*
X98632117Y-42439041D01*
X98727355Y-42439041D01*
X99060688Y-43105707D02*
X99060688Y-42439041D01*
X99060688Y-42105707D02*
X99013069Y-42153327D01*
X99060688Y-42200946D01*
X99108307Y-42153327D01*
X99060688Y-42105707D01*
X99060688Y-42200946D01*
X99536879Y-43105707D02*
X99536879Y-42439041D01*
X99536879Y-42534279D02*
X99584498Y-42486660D01*
X99679736Y-42439041D01*
X99822593Y-42439041D01*
X99917831Y-42486660D01*
X99965450Y-42581898D01*
X99965450Y-43105707D01*
X99965450Y-42581898D02*
X100013069Y-42486660D01*
X100108307Y-42439041D01*
X100251165Y-42439041D01*
X100346403Y-42486660D01*
X100394022Y-42581898D01*
X100394022Y-43105707D01*
X101251165Y-43058088D02*
X101155926Y-43105707D01*
X100965450Y-43105707D01*
X100870212Y-43058088D01*
X100822593Y-42962850D01*
X100822593Y-42581898D01*
X100870212Y-42486660D01*
X100965450Y-42439041D01*
X101155926Y-42439041D01*
X101251165Y-42486660D01*
X101298784Y-42581898D01*
X101298784Y-42677136D01*
X100822593Y-42772374D01*
X101727355Y-42439041D02*
X101727355Y-43105707D01*
X101727355Y-42534279D02*
X101774974Y-42486660D01*
X101870212Y-42439041D01*
X102013069Y-42439041D01*
X102108307Y-42486660D01*
X102155926Y-42581898D01*
X102155926Y-43105707D01*
X102489260Y-42439041D02*
X102870212Y-42439041D01*
X102632117Y-42105707D02*
X102632117Y-42962850D01*
X102679736Y-43058088D01*
X102774974Y-43105707D01*
X102870212Y-43105707D01*
X103584498Y-43058088D02*
X103489260Y-43105707D01*
X103298784Y-43105707D01*
X103203545Y-43058088D01*
X103155926Y-42962850D01*
X103155926Y-42581898D01*
X103203545Y-42486660D01*
X103298784Y-42439041D01*
X103489260Y-42439041D01*
X103584498Y-42486660D01*
X103632117Y-42581898D01*
X103632117Y-42677136D01*
X103155926Y-42772374D01*
X104060688Y-43105707D02*
X104060688Y-42439041D01*
X104060688Y-42629517D02*
X104108307Y-42534279D01*
X104155926Y-42486660D01*
X104251165Y-42439041D01*
X104346403Y-42439041D01*
X105774974Y-42581898D02*
X105917831Y-42629517D01*
X105965450Y-42677136D01*
X106013069Y-42772374D01*
X106013069Y-42915231D01*
X105965450Y-43010469D01*
X105917831Y-43058088D01*
X105822593Y-43105707D01*
X105441641Y-43105707D01*
X105441641Y-42105707D01*
X105774974Y-42105707D01*
X105870212Y-42153327D01*
X105917831Y-42200946D01*
X105965450Y-42296184D01*
X105965450Y-42391422D01*
X105917831Y-42486660D01*
X105870212Y-42534279D01*
X105774974Y-42581898D01*
X105441641Y-42581898D01*
X106584498Y-43105707D02*
X106489260Y-43058088D01*
X106441641Y-43010469D01*
X106394022Y-42915231D01*
X106394022Y-42629517D01*
X106441641Y-42534279D01*
X106489260Y-42486660D01*
X106584498Y-42439041D01*
X106727355Y-42439041D01*
X106822593Y-42486660D01*
X106870212Y-42534279D01*
X106917831Y-42629517D01*
X106917831Y-42915231D01*
X106870212Y-43010469D01*
X106822593Y-43058088D01*
X106727355Y-43105707D01*
X106584498Y-43105707D01*
X107774974Y-43105707D02*
X107774974Y-42581898D01*
X107727355Y-42486660D01*
X107632117Y-42439041D01*
X107441641Y-42439041D01*
X107346403Y-42486660D01*
X107774974Y-43058088D02*
X107679736Y-43105707D01*
X107441641Y-43105707D01*
X107346403Y-43058088D01*
X107298784Y-42962850D01*
X107298784Y-42867612D01*
X107346403Y-42772374D01*
X107441641Y-42724755D01*
X107679736Y-42724755D01*
X107774974Y-42677136D01*
X108251165Y-43105707D02*
X108251165Y-42439041D01*
X108251165Y-42629517D02*
X108298784Y-42534279D01*
X108346403Y-42486660D01*
X108441641Y-42439041D01*
X108536879Y-42439041D01*
X109298784Y-43105707D02*
X109298784Y-42105707D01*
X109298784Y-43058088D02*
X109203545Y-43105707D01*
X109013069Y-43105707D01*
X108917831Y-43058088D01*
X108870212Y-43010469D01*
X108822593Y-42915231D01*
X108822593Y-42629517D01*
X108870212Y-42534279D01*
X108917831Y-42486660D01*
X109013069Y-42439041D01*
X109203545Y-42439041D01*
X109298784Y-42486660D01*
X94870212Y-44755707D02*
X94394022Y-44755707D01*
X94394022Y-43755707D01*
X95632117Y-44755707D02*
X95632117Y-44231898D01*
X95584498Y-44136660D01*
X95489260Y-44089041D01*
X95298784Y-44089041D01*
X95203545Y-44136660D01*
X95632117Y-44708088D02*
X95536879Y-44755707D01*
X95298784Y-44755707D01*
X95203545Y-44708088D01*
X95155926Y-44612850D01*
X95155926Y-44517612D01*
X95203545Y-44422374D01*
X95298784Y-44374755D01*
X95536879Y-44374755D01*
X95632117Y-44327136D01*
X96013069Y-44089041D02*
X96251164Y-44755707D01*
X96489260Y-44089041D02*
X96251164Y-44755707D01*
X96155926Y-44993803D01*
X96108307Y-45041422D01*
X96013069Y-45089041D01*
X97013069Y-44755707D02*
X96917831Y-44708088D01*
X96870212Y-44660469D01*
X96822593Y-44565231D01*
X96822593Y-44279517D01*
X96870212Y-44184279D01*
X96917831Y-44136660D01*
X97013069Y-44089041D01*
X97155926Y-44089041D01*
X97251164Y-44136660D01*
X97298784Y-44184279D01*
X97346403Y-44279517D01*
X97346403Y-44565231D01*
X97298784Y-44660469D01*
X97251164Y-44708088D01*
X97155926Y-44755707D01*
X97013069Y-44755707D01*
X98203545Y-44089041D02*
X98203545Y-44755707D01*
X97774974Y-44089041D02*
X97774974Y-44612850D01*
X97822593Y-44708088D01*
X97917831Y-44755707D01*
X98060688Y-44755707D01*
X98155926Y-44708088D01*
X98203545Y-44660469D01*
X98536879Y-44089041D02*
X98917831Y-44089041D01*
X98679736Y-43755707D02*
X98679736Y-44612850D01*
X98727355Y-44708088D01*
X98822593Y-44755707D01*
X98917831Y-44755707D01*
X100013069Y-44755707D02*
X100013069Y-43755707D01*
X100013069Y-44231898D02*
X100584498Y-44231898D01*
X100584498Y-44755707D02*
X100584498Y-43755707D01*
X101489260Y-44755707D02*
X101489260Y-44231898D01*
X101441641Y-44136660D01*
X101346403Y-44089041D01*
X101155926Y-44089041D01*
X101060688Y-44136660D01*
X101489260Y-44708088D02*
X101394022Y-44755707D01*
X101155926Y-44755707D01*
X101060688Y-44708088D01*
X101013069Y-44612850D01*
X101013069Y-44517612D01*
X101060688Y-44422374D01*
X101155926Y-44374755D01*
X101394022Y-44374755D01*
X101489260Y-44327136D01*
X101965450Y-44089041D02*
X101965450Y-44755707D01*
X101965450Y-44184279D02*
X102013069Y-44136660D01*
X102108307Y-44089041D01*
X102251164Y-44089041D01*
X102346403Y-44136660D01*
X102394022Y-44231898D01*
X102394022Y-44755707D01*
X102822593Y-44708088D02*
X102917831Y-44755707D01*
X103108307Y-44755707D01*
X103203545Y-44708088D01*
X103251164Y-44612850D01*
X103251164Y-44565231D01*
X103203545Y-44469993D01*
X103108307Y-44422374D01*
X102965450Y-44422374D01*
X102870212Y-44374755D01*
X102822593Y-44279517D01*
X102822593Y-44231898D01*
X102870212Y-44136660D01*
X102965450Y-44089041D01*
X103108307Y-44089041D01*
X103203545Y-44136660D01*
X103679736Y-44755707D02*
X103679736Y-43755707D01*
X104013069Y-43755707D02*
X104346403Y-44755707D01*
X104679736Y-43755707D01*
X103547619Y-62952380D02*
X103880952Y-63952380D01*
X104214285Y-62952380D01*
X104547619Y-63571428D02*
X105309523Y-63571428D01*
X128428571Y-62302380D02*
X128333333Y-62254761D01*
X128285714Y-62207142D01*
X128238095Y-62111904D01*
X128238095Y-61826190D01*
X128285714Y-61730952D01*
X128333333Y-61683333D01*
X128428571Y-61635714D01*
X128571428Y-61635714D01*
X128666666Y-61683333D01*
X128714285Y-61730952D01*
X128761904Y-61826190D01*
X128761904Y-62111904D01*
X128714285Y-62207142D01*
X128666666Y-62254761D01*
X128571428Y-62302380D01*
X128428571Y-62302380D01*
X128714285Y-63285714D02*
X128714285Y-63952380D01*
X128285714Y-63285714D02*
X128285714Y-63809523D01*
X128333333Y-63904761D01*
X128428571Y-63952380D01*
X128571428Y-63952380D01*
X128666666Y-63904761D01*
X128714285Y-63857142D01*
X128309523Y-64935714D02*
X128690476Y-64935714D01*
X128452380Y-64602380D02*
X128452380Y-65459523D01*
X128500000Y-65554761D01*
X128595238Y-65602380D01*
X128690476Y-65602380D01*
X128166666Y-54627380D02*
X128500000Y-55627380D01*
X128833333Y-54627380D01*
X128119047Y-56896428D02*
X128880952Y-56896428D01*
X128500000Y-57277380D02*
X128500000Y-56515476D01*
X84095238Y-56904761D02*
X84095238Y-55571428D01*
X84095238Y-54904761D02*
X84000000Y-55000000D01*
X84095238Y-55095238D01*
X84190476Y-55000000D01*
X84095238Y-54904761D01*
X84095238Y-55095238D01*
X85047619Y-55571428D02*
X85047619Y-56904761D01*
X85047619Y-55761904D02*
X85142857Y-55666666D01*
X85333333Y-55571428D01*
X85619047Y-55571428D01*
X85809523Y-55666666D01*
X85904761Y-55857142D01*
X85904761Y-56904761D01*
D11*
%TO.C,C4*%
X111580000Y-47170000D02*
X111580000Y-42330000D01*
X116420000Y-47170000D02*
X116420000Y-42330000D01*
X111580000Y-47170000D02*
X116420000Y-47170000D01*
X111580000Y-42330000D02*
X116420000Y-42330000D01*
%TO.C,C3*%
X73580000Y-71170000D02*
X73580000Y-66330000D01*
X78420000Y-71170000D02*
X78420000Y-66330000D01*
X73580000Y-71170000D02*
X78420000Y-71170000D01*
X73580000Y-66330000D02*
X78420000Y-66330000D01*
D12*
%TO.C,C1*%
X73250000Y-68500000D02*
G75*
G03*
X73250000Y-68500000I-6250000J0D01*
G01*
%TO.C,C2*%
X129250000Y-46500000D02*
G75*
G03*
X129250000Y-46500000I-6250000J0D01*
G01*
D11*
%TO.C,SOIC-8*%
X92560000Y-57000000D02*
X92560000Y-55050000D01*
X92560000Y-57000000D02*
X92560000Y-58950000D01*
X87440000Y-57000000D02*
X87440000Y-55050000D01*
X87440000Y-57000000D02*
X87440000Y-60450000D01*
%TO.C,GND*%
X68620000Y-40970000D02*
X68620000Y-46990000D01*
X68620000Y-46990000D02*
X73920000Y-46990000D01*
X73920000Y-46990000D02*
X73920000Y-40970000D01*
X73920000Y-40970000D02*
X68620000Y-40970000D01*
X68330000Y-42000000D02*
X68330000Y-46000000D01*
X70000000Y-46990000D02*
X70000000Y-45990000D01*
X70000000Y-45990000D02*
X72540000Y-45990000D01*
X72540000Y-45990000D02*
X72540000Y-46990000D01*
X70000000Y-45990000D02*
X70250000Y-45460000D01*
X70250000Y-45460000D02*
X72290000Y-45460000D01*
X72290000Y-45460000D02*
X72540000Y-45990000D01*
X70250000Y-46990000D02*
X70250000Y-45990000D01*
X72290000Y-46990000D02*
X72290000Y-45990000D01*
X69200000Y-40970000D02*
X69200000Y-41570000D01*
X69200000Y-41570000D02*
X70800000Y-41570000D01*
X70800000Y-41570000D02*
X70800000Y-40970000D01*
X71740000Y-40970000D02*
X71740000Y-41570000D01*
X71740000Y-41570000D02*
X73340000Y-41570000D01*
X73340000Y-41570000D02*
X73340000Y-40970000D01*
%TO.C,C4*%
D10*
X111619047Y-49452380D02*
X111047619Y-49452380D01*
X111333333Y-49452380D02*
X111333333Y-48452380D01*
X111238095Y-48595238D01*
X111142857Y-48690476D01*
X111047619Y-48738095D01*
X112238095Y-48452380D02*
X112333333Y-48452380D01*
X112428571Y-48500000D01*
X112476190Y-48547619D01*
X112523809Y-48642857D01*
X112571428Y-48833333D01*
X112571428Y-49071428D01*
X112523809Y-49261904D01*
X112476190Y-49357142D01*
X112428571Y-49404761D01*
X112333333Y-49452380D01*
X112238095Y-49452380D01*
X112142857Y-49404761D01*
X112095238Y-49357142D01*
X112047619Y-49261904D01*
X112000000Y-49071428D01*
X112000000Y-48833333D01*
X112047619Y-48642857D01*
X112095238Y-48547619D01*
X112142857Y-48500000D01*
X112238095Y-48452380D01*
X113190476Y-48452380D02*
X113285714Y-48452380D01*
X113380952Y-48500000D01*
X113428571Y-48547619D01*
X113476190Y-48642857D01*
X113523809Y-48833333D01*
X113523809Y-49071428D01*
X113476190Y-49261904D01*
X113428571Y-49357142D01*
X113380952Y-49404761D01*
X113285714Y-49452380D01*
X113190476Y-49452380D01*
X113095238Y-49404761D01*
X113047619Y-49357142D01*
X113000000Y-49261904D01*
X112952380Y-49071428D01*
X112952380Y-48833333D01*
X113000000Y-48642857D01*
X113047619Y-48547619D01*
X113095238Y-48500000D01*
X113190476Y-48452380D01*
X113952380Y-48785714D02*
X113952380Y-49452380D01*
X113952380Y-48880952D02*
X114000000Y-48833333D01*
X114095238Y-48785714D01*
X114238095Y-48785714D01*
X114333333Y-48833333D01*
X114380952Y-48928571D01*
X114380952Y-49452380D01*
X115190476Y-48928571D02*
X114857142Y-48928571D01*
X114857142Y-49452380D02*
X114857142Y-48452380D01*
X115333333Y-48452380D01*
X116380952Y-48452380D02*
X117047619Y-49452380D01*
X117047619Y-48452380D02*
X116380952Y-49452380D01*
X117333333Y-48452380D02*
X118000000Y-48452380D01*
X117571428Y-49452380D01*
X118952380Y-49452380D02*
X118619047Y-48976190D01*
X118380952Y-49452380D02*
X118380952Y-48452380D01*
X118761904Y-48452380D01*
X118857142Y-48500000D01*
X118904761Y-48547619D01*
X118952380Y-48642857D01*
X118952380Y-48785714D01*
X118904761Y-48880952D01*
X118857142Y-48928571D01*
X118761904Y-48976190D01*
X118380952Y-48976190D01*
%TO.C,C3*%
X73619047Y-74452380D02*
X73047619Y-74452380D01*
X73333333Y-74452380D02*
X73333333Y-73452380D01*
X73238095Y-73595238D01*
X73142857Y-73690476D01*
X73047619Y-73738095D01*
X74238095Y-73452380D02*
X74333333Y-73452380D01*
X74428571Y-73500000D01*
X74476190Y-73547619D01*
X74523809Y-73642857D01*
X74571428Y-73833333D01*
X74571428Y-74071428D01*
X74523809Y-74261904D01*
X74476190Y-74357142D01*
X74428571Y-74404761D01*
X74333333Y-74452380D01*
X74238095Y-74452380D01*
X74142857Y-74404761D01*
X74095238Y-74357142D01*
X74047619Y-74261904D01*
X74000000Y-74071428D01*
X74000000Y-73833333D01*
X74047619Y-73642857D01*
X74095238Y-73547619D01*
X74142857Y-73500000D01*
X74238095Y-73452380D01*
X75190476Y-73452380D02*
X75285714Y-73452380D01*
X75380952Y-73500000D01*
X75428571Y-73547619D01*
X75476190Y-73642857D01*
X75523809Y-73833333D01*
X75523809Y-74071428D01*
X75476190Y-74261904D01*
X75428571Y-74357142D01*
X75380952Y-74404761D01*
X75285714Y-74452380D01*
X75190476Y-74452380D01*
X75095238Y-74404761D01*
X75047619Y-74357142D01*
X75000000Y-74261904D01*
X74952380Y-74071428D01*
X74952380Y-73833333D01*
X75000000Y-73642857D01*
X75047619Y-73547619D01*
X75095238Y-73500000D01*
X75190476Y-73452380D01*
X75952380Y-73785714D02*
X75952380Y-74452380D01*
X75952380Y-73880952D02*
X76000000Y-73833333D01*
X76095238Y-73785714D01*
X76238095Y-73785714D01*
X76333333Y-73833333D01*
X76380952Y-73928571D01*
X76380952Y-74452380D01*
X77190476Y-73928571D02*
X76857142Y-73928571D01*
X76857142Y-74452380D02*
X76857142Y-73452380D01*
X77333333Y-73452380D01*
X78380952Y-73452380D02*
X79047619Y-74452380D01*
X79047619Y-73452380D02*
X78380952Y-74452380D01*
X79333333Y-73452380D02*
X80000000Y-73452380D01*
X79571428Y-74452380D01*
X80952380Y-74452380D02*
X80619047Y-73976190D01*
X80380952Y-74452380D02*
X80380952Y-73452380D01*
X80761904Y-73452380D01*
X80857142Y-73500000D01*
X80904761Y-73547619D01*
X80952380Y-73642857D01*
X80952380Y-73785714D01*
X80904761Y-73880952D01*
X80857142Y-73928571D01*
X80761904Y-73976190D01*
X80380952Y-73976190D01*
%TO.C,C1*%
D13*
X62796904Y-69074523D02*
X62071190Y-69074523D01*
X62434047Y-69074523D02*
X62434047Y-67804523D01*
X62313095Y-67985952D01*
X62192142Y-68106904D01*
X62071190Y-68167380D01*
X63583095Y-67804523D02*
X63704047Y-67804523D01*
X63825000Y-67865000D01*
X63885476Y-67925476D01*
X63945952Y-68046428D01*
X64006428Y-68288333D01*
X64006428Y-68590714D01*
X63945952Y-68832619D01*
X63885476Y-68953571D01*
X63825000Y-69014047D01*
X63704047Y-69074523D01*
X63583095Y-69074523D01*
X63462142Y-69014047D01*
X63401666Y-68953571D01*
X63341190Y-68832619D01*
X63280714Y-68590714D01*
X63280714Y-68288333D01*
X63341190Y-68046428D01*
X63401666Y-67925476D01*
X63462142Y-67865000D01*
X63583095Y-67804523D01*
X64792619Y-67804523D02*
X64913571Y-67804523D01*
X65034523Y-67865000D01*
X65095000Y-67925476D01*
X65155476Y-68046428D01*
X65215952Y-68288333D01*
X65215952Y-68590714D01*
X65155476Y-68832619D01*
X65095000Y-68953571D01*
X65034523Y-69014047D01*
X64913571Y-69074523D01*
X64792619Y-69074523D01*
X64671666Y-69014047D01*
X64611190Y-68953571D01*
X64550714Y-68832619D01*
X64490238Y-68590714D01*
X64490238Y-68288333D01*
X64550714Y-68046428D01*
X64611190Y-67925476D01*
X64671666Y-67865000D01*
X64792619Y-67804523D01*
X66304523Y-68227857D02*
X66304523Y-69074523D01*
X65760238Y-68227857D02*
X65760238Y-68893095D01*
X65820714Y-69014047D01*
X65941666Y-69074523D01*
X66123095Y-69074523D01*
X66244047Y-69014047D01*
X66304523Y-68953571D01*
X67332619Y-68409285D02*
X66909285Y-68409285D01*
X66909285Y-69074523D02*
X66909285Y-67804523D01*
X67514047Y-67804523D01*
X68844523Y-67804523D02*
X69630714Y-67804523D01*
X69207380Y-68288333D01*
X69388809Y-68288333D01*
X69509761Y-68348809D01*
X69570238Y-68409285D01*
X69630714Y-68530238D01*
X69630714Y-68832619D01*
X69570238Y-68953571D01*
X69509761Y-69014047D01*
X69388809Y-69074523D01*
X69025952Y-69074523D01*
X68905000Y-69014047D01*
X68844523Y-68953571D01*
X70779761Y-67804523D02*
X70175000Y-67804523D01*
X70114523Y-68409285D01*
X70175000Y-68348809D01*
X70295952Y-68288333D01*
X70598333Y-68288333D01*
X70719285Y-68348809D01*
X70779761Y-68409285D01*
X70840238Y-68530238D01*
X70840238Y-68832619D01*
X70779761Y-68953571D01*
X70719285Y-69014047D01*
X70598333Y-69074523D01*
X70295952Y-69074523D01*
X70175000Y-69014047D01*
X70114523Y-68953571D01*
X71203095Y-67804523D02*
X71626428Y-69074523D01*
X72049761Y-67804523D01*
%TO.C,C2*%
X118796904Y-47074523D02*
X118071190Y-47074523D01*
X118434047Y-47074523D02*
X118434047Y-45804523D01*
X118313095Y-45985952D01*
X118192142Y-46106904D01*
X118071190Y-46167380D01*
X119583095Y-45804523D02*
X119704047Y-45804523D01*
X119825000Y-45865000D01*
X119885476Y-45925476D01*
X119945952Y-46046428D01*
X120006428Y-46288333D01*
X120006428Y-46590714D01*
X119945952Y-46832619D01*
X119885476Y-46953571D01*
X119825000Y-47014047D01*
X119704047Y-47074523D01*
X119583095Y-47074523D01*
X119462142Y-47014047D01*
X119401666Y-46953571D01*
X119341190Y-46832619D01*
X119280714Y-46590714D01*
X119280714Y-46288333D01*
X119341190Y-46046428D01*
X119401666Y-45925476D01*
X119462142Y-45865000D01*
X119583095Y-45804523D01*
X120792619Y-45804523D02*
X120913571Y-45804523D01*
X121034523Y-45865000D01*
X121095000Y-45925476D01*
X121155476Y-46046428D01*
X121215952Y-46288333D01*
X121215952Y-46590714D01*
X121155476Y-46832619D01*
X121095000Y-46953571D01*
X121034523Y-47014047D01*
X120913571Y-47074523D01*
X120792619Y-47074523D01*
X120671666Y-47014047D01*
X120611190Y-46953571D01*
X120550714Y-46832619D01*
X120490238Y-46590714D01*
X120490238Y-46288333D01*
X120550714Y-46046428D01*
X120611190Y-45925476D01*
X120671666Y-45865000D01*
X120792619Y-45804523D01*
X122304523Y-46227857D02*
X122304523Y-47074523D01*
X121760238Y-46227857D02*
X121760238Y-46893095D01*
X121820714Y-47014047D01*
X121941666Y-47074523D01*
X122123095Y-47074523D01*
X122244047Y-47014047D01*
X122304523Y-46953571D01*
X123332619Y-46409285D02*
X122909285Y-46409285D01*
X122909285Y-47074523D02*
X122909285Y-45804523D01*
X123514047Y-45804523D01*
X124844523Y-45804523D02*
X125630714Y-45804523D01*
X125207380Y-46288333D01*
X125388809Y-46288333D01*
X125509761Y-46348809D01*
X125570238Y-46409285D01*
X125630714Y-46530238D01*
X125630714Y-46832619D01*
X125570238Y-46953571D01*
X125509761Y-47014047D01*
X125388809Y-47074523D01*
X125025952Y-47074523D01*
X124905000Y-47014047D01*
X124844523Y-46953571D01*
X126779761Y-45804523D02*
X126175000Y-45804523D01*
X126114523Y-46409285D01*
X126175000Y-46348809D01*
X126295952Y-46288333D01*
X126598333Y-46288333D01*
X126719285Y-46348809D01*
X126779761Y-46409285D01*
X126840238Y-46530238D01*
X126840238Y-46832619D01*
X126779761Y-46953571D01*
X126719285Y-47014047D01*
X126598333Y-47074523D01*
X126295952Y-47074523D01*
X126175000Y-47014047D01*
X126114523Y-46953571D01*
X127203095Y-45804523D02*
X127626428Y-47074523D01*
X128049761Y-45804523D01*
%TO.C,SOIC-8*%
D10*
X87357142Y-57404761D02*
X87500000Y-57452380D01*
X87738095Y-57452380D01*
X87833333Y-57404761D01*
X87880952Y-57357142D01*
X87928571Y-57261904D01*
X87928571Y-57166666D01*
X87880952Y-57071428D01*
X87833333Y-57023809D01*
X87738095Y-56976190D01*
X87547619Y-56928571D01*
X87452380Y-56880952D01*
X87404761Y-56833333D01*
X87357142Y-56738095D01*
X87357142Y-56642857D01*
X87404761Y-56547619D01*
X87452380Y-56500000D01*
X87547619Y-56452380D01*
X87785714Y-56452380D01*
X87928571Y-56500000D01*
X88547619Y-56452380D02*
X88738095Y-56452380D01*
X88833333Y-56500000D01*
X88928571Y-56595238D01*
X88976190Y-56785714D01*
X88976190Y-57119047D01*
X88928571Y-57309523D01*
X88833333Y-57404761D01*
X88738095Y-57452380D01*
X88547619Y-57452380D01*
X88452380Y-57404761D01*
X88357142Y-57309523D01*
X88309523Y-57119047D01*
X88309523Y-56785714D01*
X88357142Y-56595238D01*
X88452380Y-56500000D01*
X88547619Y-56452380D01*
X89404761Y-57452380D02*
X89404761Y-56452380D01*
X90452380Y-57357142D02*
X90404761Y-57404761D01*
X90261904Y-57452380D01*
X90166666Y-57452380D01*
X90023809Y-57404761D01*
X89928571Y-57309523D01*
X89880952Y-57214285D01*
X89833333Y-57023809D01*
X89833333Y-56880952D01*
X89880952Y-56690476D01*
X89928571Y-56595238D01*
X90023809Y-56500000D01*
X90166666Y-56452380D01*
X90261904Y-56452380D01*
X90404761Y-56500000D01*
X90452380Y-56547619D01*
X90880952Y-57071428D02*
X91642857Y-57071428D01*
X92261904Y-56880952D02*
X92166666Y-56833333D01*
X92119047Y-56785714D01*
X92071428Y-56690476D01*
X92071428Y-56642857D01*
X92119047Y-56547619D01*
X92166666Y-56500000D01*
X92261904Y-56452380D01*
X92452380Y-56452380D01*
X92547619Y-56500000D01*
X92595238Y-56547619D01*
X92642857Y-56642857D01*
X92642857Y-56690476D01*
X92595238Y-56785714D01*
X92547619Y-56833333D01*
X92452380Y-56880952D01*
X92261904Y-56880952D01*
X92166666Y-56928571D01*
X92119047Y-56976190D01*
X92071428Y-57071428D01*
X92071428Y-57261904D01*
X92119047Y-57357142D01*
X92166666Y-57404761D01*
X92261904Y-57452380D01*
X92452380Y-57452380D01*
X92547619Y-57404761D01*
X92595238Y-57357142D01*
X92642857Y-57261904D01*
X92642857Y-57071428D01*
X92595238Y-56976190D01*
X92547619Y-56928571D01*
X92452380Y-56880952D01*
%TO.C,H5*%
X65738095Y-47000000D02*
X65642857Y-46952380D01*
X65500000Y-46952380D01*
X65357142Y-47000000D01*
X65261904Y-47095238D01*
X65214285Y-47190476D01*
X65166666Y-47380952D01*
X65166666Y-47523809D01*
X65214285Y-47714285D01*
X65261904Y-47809523D01*
X65357142Y-47904761D01*
X65500000Y-47952380D01*
X65595238Y-47952380D01*
X65738095Y-47904761D01*
X65785714Y-47857142D01*
X65785714Y-47523809D01*
X65595238Y-47523809D01*
X66214285Y-47952380D02*
X66214285Y-46952380D01*
X66785714Y-47952380D01*
X66785714Y-46952380D01*
X67261904Y-47952380D02*
X67261904Y-46952380D01*
X67500000Y-46952380D01*
X67642857Y-47000000D01*
X67738095Y-47095238D01*
X67785714Y-47190476D01*
X67833333Y-47380952D01*
X67833333Y-47523809D01*
X67785714Y-47714285D01*
X67738095Y-47809523D01*
X67642857Y-47904761D01*
X67500000Y-47952380D01*
X67261904Y-47952380D01*
%TO.C,H1*%
X109047619Y-50452380D02*
X109380952Y-51452380D01*
X109714285Y-50452380D01*
X110047619Y-51071428D02*
X110809523Y-51071428D01*
X110428571Y-51452380D02*
X110428571Y-50690476D01*
%TO.C,H2*%
X94047619Y-73452380D02*
X94380952Y-74452380D01*
X94714285Y-73452380D01*
X95047619Y-74071428D02*
X95809523Y-74071428D01*
%TO.C,H3*%
X82547619Y-46952380D02*
X82547619Y-46285714D01*
X82547619Y-45952380D02*
X82500000Y-46000000D01*
X82547619Y-46047619D01*
X82595238Y-46000000D01*
X82547619Y-45952380D01*
X82547619Y-46047619D01*
X83023809Y-46285714D02*
X83023809Y-46952380D01*
X83023809Y-46380952D02*
X83071428Y-46333333D01*
X83166666Y-46285714D01*
X83309523Y-46285714D01*
X83404761Y-46333333D01*
X83452380Y-46428571D01*
X83452380Y-46952380D01*
%TO.C,H4*%
X111490476Y-73952380D02*
X111395238Y-73904761D01*
X111347619Y-73857142D01*
X111300000Y-73761904D01*
X111300000Y-73476190D01*
X111347619Y-73380952D01*
X111395238Y-73333333D01*
X111490476Y-73285714D01*
X111633333Y-73285714D01*
X111728571Y-73333333D01*
X111776190Y-73380952D01*
X111823809Y-73476190D01*
X111823809Y-73761904D01*
X111776190Y-73857142D01*
X111728571Y-73904761D01*
X111633333Y-73952380D01*
X111490476Y-73952380D01*
X112680952Y-73285714D02*
X112680952Y-73952380D01*
X112252380Y-73285714D02*
X112252380Y-73809523D01*
X112300000Y-73904761D01*
X112395238Y-73952380D01*
X112538095Y-73952380D01*
X112633333Y-73904761D01*
X112680952Y-73857142D01*
X113014285Y-73285714D02*
X113395238Y-73285714D01*
X113157142Y-72952380D02*
X113157142Y-73809523D01*
X113204761Y-73904761D01*
X113300000Y-73952380D01*
X113395238Y-73952380D01*
%TO.C,GND*%
X66238095Y-40500000D02*
X66142857Y-40452380D01*
X66000000Y-40452380D01*
X65857142Y-40500000D01*
X65761904Y-40595238D01*
X65714285Y-40690476D01*
X65666666Y-40880952D01*
X65666666Y-41023809D01*
X65714285Y-41214285D01*
X65761904Y-41309523D01*
X65857142Y-41404761D01*
X66000000Y-41452380D01*
X66095238Y-41452380D01*
X66238095Y-41404761D01*
X66285714Y-41357142D01*
X66285714Y-41023809D01*
X66095238Y-41023809D01*
X66714285Y-41452380D02*
X66714285Y-40452380D01*
X67285714Y-41452380D01*
X67285714Y-40452380D01*
X67761904Y-41452380D02*
X67761904Y-40452380D01*
X68000000Y-40452380D01*
X68142857Y-40500000D01*
X68238095Y-40595238D01*
X68285714Y-40690476D01*
X68333333Y-40880952D01*
X68333333Y-41023809D01*
X68285714Y-41214285D01*
X68238095Y-41309523D01*
X68142857Y-41404761D01*
X68000000Y-41452380D01*
X67761904Y-41452380D01*
%TD*%
M02*
