%TF.GenerationSoftware,KiCad,Pcbnew,(5.1.9)-1*%
%TF.CreationDate,2021-06-06T23:04:22+02:00*%
%TF.ProjectId,Yarra_Experimenter,59617272-615f-4457-9870-6572696d656e,rev?*%
%TF.SameCoordinates,Original*%
%TF.FileFunction,Copper,L1,Top*%
%TF.FilePolarity,Positive*%
%FSLAX46Y46*%
G04 Gerber Fmt 4.6, Leading zero omitted, Abs format (unit mm)*
G04 Created by KiCad (PCBNEW (5.1.9)-1) date 2021-06-06 23:04:22*
%MOMM*%
%LPD*%
G01*
G04 APERTURE LIST*
%TA.AperFunction,ComponentPad*%
%ADD10C,1.200000*%
%TD*%
%TA.AperFunction,ComponentPad*%
%ADD11C,2.000000*%
%TD*%
%TA.AperFunction,SMDPad,CuDef*%
%ADD12R,0.635000X0.635000*%
%TD*%
%TA.AperFunction,ComponentPad*%
%ADD13C,1.400000*%
%TD*%
%TA.AperFunction,ComponentPad*%
%ADD14C,1.575000*%
%TD*%
%TA.AperFunction,ComponentPad*%
%ADD15R,1.575000X1.575000*%
%TD*%
%TA.AperFunction,ConnectorPad*%
%ADD16C,6.400000*%
%TD*%
%TA.AperFunction,ComponentPad*%
%ADD17C,3.600000*%
%TD*%
%TA.AperFunction,ComponentPad*%
%ADD18O,1.740000X2.190000*%
%TD*%
%TA.AperFunction,ViaPad*%
%ADD19C,0.500000*%
%TD*%
%TA.AperFunction,Conductor*%
%ADD20C,0.500000*%
%TD*%
%TA.AperFunction,Conductor*%
%ADD21C,1.000000*%
%TD*%
%TA.AperFunction,Conductor*%
%ADD22C,2.000000*%
%TD*%
%TA.AperFunction,Conductor*%
%ADD23C,3.000000*%
%TD*%
G04 APERTURE END LIST*
D10*
%TO.P,REF\u002A\u002A,1*%
%TO.N,GNDREF*%
X83790000Y-64500000D03*
%TD*%
%TO.P,REF\u002A\u002A,1*%
%TO.N,GNDREF*%
X82520000Y-64500000D03*
%TD*%
%TO.P,REF\u002A\u002A,1*%
%TO.N,GNDREF*%
X81250000Y-64500000D03*
%TD*%
%TO.P,REF\u002A\u002A,1*%
%TO.N,N/C*%
X71120000Y-53340000D03*
%TD*%
%TO.P,REF\u002A\u002A,1*%
%TO.N,N/C*%
X69850000Y-53340000D03*
%TD*%
%TO.P,REF\u002A\u002A,1*%
%TO.N,N/C*%
X68580000Y-53340000D03*
%TD*%
%TO.P,REF\u002A\u002A,1*%
%TO.N,N/C*%
X72390000Y-53340000D03*
%TD*%
%TO.P,REF\u002A\u002A,1*%
%TO.N,N/C*%
X76200000Y-53340000D03*
%TD*%
%TO.P,REF\u002A\u002A,1*%
%TO.N,N/C*%
X74930000Y-53340000D03*
%TD*%
%TO.P,REF\u002A\u002A,1*%
%TO.N,N/C*%
X77470000Y-53340000D03*
%TD*%
D11*
%TO.P,REF\u002A\u002A,1*%
%TO.N,GNDREF*%
X108204000Y-66802000D03*
%TD*%
D12*
%TO.P,REF\u002A\u002A,1*%
%TO.N,N/C*%
X86912500Y-45722500D03*
X87547500Y-45722500D03*
X88817500Y-45722500D03*
X89452500Y-45722500D03*
X90087500Y-45087500D03*
X90087500Y-44452500D03*
X86277500Y-45087500D03*
X86277500Y-44452500D03*
X85007500Y-45087500D03*
X85007500Y-44452500D03*
X91357500Y-45087500D03*
X91357500Y-44452500D03*
X91357500Y-43817500D03*
X90722500Y-43817500D03*
X90087500Y-43817500D03*
X89452500Y-43817500D03*
X88817500Y-43817500D03*
X88182500Y-43817500D03*
X87547500Y-43817500D03*
X86912500Y-43817500D03*
X86277500Y-43817500D03*
X85642500Y-43817500D03*
X85007500Y-43817500D03*
X86277500Y-41277500D03*
X90087500Y-41277500D03*
X89452500Y-41912500D03*
X86912500Y-41912500D03*
X90087500Y-42547500D03*
X89452500Y-42547500D03*
X88817500Y-42547500D03*
X88182500Y-42547500D03*
X87547500Y-42547500D03*
X86912500Y-42547500D03*
X86277500Y-42547500D03*
X85642500Y-43182500D03*
X86277500Y-43182500D03*
X90722500Y-43182500D03*
X90087500Y-43182500D03*
X87547500Y-43182500D03*
X88817500Y-43182500D03*
X88182500Y-43182500D03*
%TD*%
D10*
%TO.P,REF\u002A\u002A,1*%
%TO.N,Net-(C2-Pad1)*%
X77470000Y-60960000D03*
%TD*%
%TO.P,REF\u002A\u002A,1*%
%TO.N,Net-(C2-Pad1)*%
X76200000Y-60960000D03*
%TD*%
%TO.P,REF\u002A\u002A,1*%
%TO.N,Net-(C2-Pad1)*%
X74930000Y-60960000D03*
%TD*%
%TO.P,REF\u002A\u002A,1*%
%TO.N,Net-(C2-Pad1)*%
X73660000Y-60960000D03*
%TD*%
%TO.P,REF\u002A\u002A,1*%
%TO.N,Net-(C2-Pad1)*%
X72390000Y-60960000D03*
%TD*%
%TO.P,REF\u002A\u002A,1*%
%TO.N,Net-(C2-Pad1)*%
X71120000Y-60960000D03*
%TD*%
%TO.P,REF\u002A\u002A,1*%
%TO.N,Net-(C2-Pad1)*%
X69850000Y-60960000D03*
%TD*%
D11*
%TO.P,REF\u002A\u002A,1*%
%TO.N,Net-(C1-Pad2)*%
X91000000Y-71000000D03*
%TD*%
%TO.P,REF\u002A\u002A,1*%
%TO.N,N/C*%
X119856000Y-66167000D03*
%TD*%
%TO.P,REF\u002A\u002A,1*%
%TO.N,N/C*%
X119856000Y-63627000D03*
%TD*%
%TO.P,REF\u002A\u002A,1*%
%TO.N,N/C*%
X120999000Y-60706000D03*
%TD*%
%TO.P,REF\u002A\u002A,1*%
%TO.N,N/C*%
X120999000Y-55626000D03*
%TD*%
%TO.P,REF\u002A\u002A,1*%
%TO.N,N/C*%
X120999000Y-58166000D03*
%TD*%
%TO.P,REF\u002A\u002A,1*%
%TO.N,N/C*%
X114776000Y-66167000D03*
%TD*%
%TO.P,REF\u002A\u002A,1*%
%TO.N,N/C*%
X117316000Y-66167000D03*
%TD*%
%TO.P,REF\u002A\u002A,1*%
%TO.N,GNDREF*%
X109506000Y-64516000D03*
%TD*%
%TO.P,REF\u002A\u002A,1*%
%TO.N,N/C*%
X114776000Y-63627000D03*
%TD*%
%TO.P,REF\u002A\u002A,1*%
%TO.N,N/C*%
X117316000Y-63627000D03*
%TD*%
%TO.P,REF\u002A\u002A,1*%
%TO.N,N/C*%
X113379000Y-60706000D03*
%TD*%
%TO.P,REF\u002A\u002A,1*%
%TO.N,N/C*%
X115919000Y-60706000D03*
%TD*%
%TO.P,REF\u002A\u002A,1*%
%TO.N,N/C*%
X118459000Y-60706000D03*
%TD*%
%TO.P,REF\u002A\u002A,1*%
%TO.N,N/C*%
X113379000Y-58166000D03*
%TD*%
%TO.P,REF\u002A\u002A,1*%
%TO.N,N/C*%
X115919000Y-58166000D03*
%TD*%
%TO.P,REF\u002A\u002A,1*%
%TO.N,N/C*%
X118459000Y-58166000D03*
%TD*%
%TO.P,REF\u002A\u002A,1*%
%TO.N,N/C*%
X113379000Y-55626000D03*
%TD*%
%TO.P,REF\u002A\u002A,1*%
%TO.N,N/C*%
X115919000Y-55626000D03*
%TD*%
%TO.P,REF\u002A\u002A,1*%
%TO.N,N/C*%
X118459000Y-55626000D03*
%TD*%
%TO.P,REF\u002A\u002A,1*%
%TO.N,N/C*%
X104870000Y-53086000D03*
%TD*%
%TO.P,REF\u002A\u002A,1*%
%TO.N,N/C*%
X104870000Y-58166000D03*
%TD*%
%TO.P,REF\u002A\u002A,1*%
%TO.N,N/C*%
X104870000Y-55626000D03*
%TD*%
%TO.P,REF\u002A\u002A,1*%
%TO.N,N/C*%
X102330000Y-53086000D03*
%TD*%
%TO.P,REF\u002A\u002A,1*%
%TO.N,N/C*%
X102330000Y-58166000D03*
%TD*%
%TO.P,REF\u002A\u002A,1*%
%TO.N,N/C*%
X102330000Y-55626000D03*
%TD*%
%TO.P,REF\u002A\u002A,1*%
%TO.N,N/C*%
X99790000Y-53086000D03*
%TD*%
%TO.P,REF\u002A\u002A,1*%
%TO.N,N/C*%
X99790000Y-55626000D03*
%TD*%
%TO.P,REF\u002A\u002A,1*%
%TO.N,N/C*%
X99790000Y-58166000D03*
%TD*%
%TO.P,REF\u002A\u002A,1*%
%TO.N,N/C*%
X118459000Y-53086000D03*
%TD*%
%TO.P,REF\u002A\u002A,1*%
%TO.N,N/C*%
X115919000Y-53086000D03*
%TD*%
%TO.P,REF\u002A\u002A,1*%
%TO.N,N/C*%
X113379000Y-53086000D03*
%TD*%
%TO.P,REF\u002A\u002A,1*%
%TO.N,N/C*%
X110839000Y-53086000D03*
%TD*%
%TO.P,REF\u002A\u002A,1*%
%TO.N,GNDREF*%
X106966000Y-64516000D03*
%TD*%
%TO.P,REF\u002A\u002A,1*%
%TO.N,N/C*%
X110839000Y-60706000D03*
%TD*%
%TO.P,REF\u002A\u002A,1*%
%TO.N,N/C*%
X110839000Y-58166000D03*
%TD*%
%TO.P,REF\u002A\u002A,1*%
%TO.N,N/C*%
X110839000Y-55626000D03*
%TD*%
%TO.P,REF\u002A\u002A,1*%
%TO.N,N/C*%
X97250000Y-58166000D03*
%TD*%
%TO.P,REF\u002A\u002A,1*%
%TO.N,N/C*%
X97250000Y-55626000D03*
%TD*%
%TO.P,REF\u002A\u002A,1*%
%TO.N,N/C*%
X97250000Y-53086000D03*
%TD*%
D10*
%TO.P,REF\u002A\u002A,1*%
%TO.N,N/C*%
X77470000Y-58420000D03*
%TD*%
%TO.P,REF\u002A\u002A,1*%
%TO.N,N/C*%
X71120000Y-55880000D03*
%TD*%
%TO.P,REF\u002A\u002A,1*%
%TO.N,N/C*%
X71120000Y-50800000D03*
%TD*%
%TO.P,REF\u002A\u002A,1*%
%TO.N,N/C*%
X68580000Y-50800000D03*
%TD*%
%TO.P,REF\u002A\u002A,1*%
%TO.N,N/C*%
X68580000Y-50800000D03*
%TD*%
%TO.P,REF\u002A\u002A,1*%
%TO.N,N/C*%
X69850000Y-50800000D03*
%TD*%
%TO.P,REF\u002A\u002A,1*%
%TO.N,N/C*%
X69850000Y-50800000D03*
%TD*%
%TO.P,REF\u002A\u002A,1*%
%TO.N,N/C*%
X68580000Y-55880000D03*
%TD*%
%TO.P,REF\u002A\u002A,1*%
%TO.N,N/C*%
X68580000Y-55880000D03*
%TD*%
%TO.P,REF\u002A\u002A,1*%
%TO.N,N/C*%
X69850000Y-55880000D03*
%TD*%
%TO.P,REF\u002A\u002A,1*%
%TO.N,N/C*%
X69850000Y-55880000D03*
%TD*%
%TO.P,REF\u002A\u002A,1*%
%TO.N,Net-(C2-Pad1)*%
X68580000Y-60960000D03*
%TD*%
%TO.P,REF\u002A\u002A,1*%
%TO.N,GNDREF*%
X96520000Y-64500000D03*
%TD*%
%TO.P,REF\u002A\u002A,1*%
%TO.N,GNDREF*%
X97790000Y-64500000D03*
%TD*%
%TO.P,REF\u002A\u002A,1*%
%TO.N,GNDREF*%
X95250000Y-64500000D03*
%TD*%
%TO.P,REF\u002A\u002A,1*%
%TO.N,Net-(C1-Pad2)*%
X74680000Y-64460000D03*
%TD*%
%TO.P,REF\u002A\u002A,1*%
%TO.N,Net-(C1-Pad2)*%
X77220000Y-64460000D03*
%TD*%
%TO.P,REF\u002A\u002A,1*%
%TO.N,Net-(C1-Pad2)*%
X75950000Y-64460000D03*
%TD*%
%TO.P,REF\u002A\u002A,1*%
%TO.N,N/C*%
X68580000Y-58420000D03*
%TD*%
%TO.P,REF\u002A\u002A,1*%
%TO.N,N/C*%
X71120000Y-58420000D03*
%TD*%
%TO.P,REF\u002A\u002A,1*%
%TO.N,N/C*%
X69850000Y-58420000D03*
%TD*%
%TO.P,REF\u002A\u002A,1*%
%TO.N,N/C*%
X76200000Y-58420000D03*
%TD*%
%TO.P,REF\u002A\u002A,1*%
%TO.N,N/C*%
X74930000Y-58420000D03*
%TD*%
%TO.P,REF\u002A\u002A,1*%
%TO.N,N/C*%
X72390000Y-58420000D03*
%TD*%
%TO.P,REF\u002A\u002A,1*%
%TO.N,N/C*%
X77470000Y-50800000D03*
%TD*%
%TO.P,REF\u002A\u002A,1*%
%TO.N,N/C*%
X76200000Y-50800000D03*
%TD*%
%TO.P,REF\u002A\u002A,1*%
%TO.N,N/C*%
X73660000Y-50800000D03*
%TD*%
%TO.P,REF\u002A\u002A,1*%
%TO.N,N/C*%
X72390000Y-50800000D03*
%TD*%
%TO.P,REF\u002A\u002A,1*%
%TO.N,N/C*%
X74930000Y-50800000D03*
%TD*%
%TO.P,REF\u002A\u002A,1*%
%TO.N,Net-(H3-Pad1)*%
X82550000Y-55880000D03*
%TD*%
%TO.P,REF\u002A\u002A,1*%
%TO.N,Net-(H3-Pad1)*%
X82550000Y-50800000D03*
%TD*%
%TO.P,REF\u002A\u002A,1*%
%TO.N,Net-(H3-Pad1)*%
X82550000Y-53340000D03*
%TD*%
D11*
%TO.P,REF\u002A\u002A,1*%
%TO.N,Net-(C2-Pad1)*%
X100000000Y-47000000D03*
%TD*%
%TO.P,REF\u002A\u002A,1*%
%TO.N,Net-(C2-Pad1)*%
X97000000Y-47000000D03*
%TD*%
%TO.P,REF\u002A\u002A,1*%
%TO.N,Net-(C2-Pad1)*%
X94000000Y-47000000D03*
%TD*%
D10*
%TO.P,REF\u002A\u002A,1*%
%TO.N,N/C*%
X77470000Y-55880000D03*
%TD*%
%TO.P,REF\u002A\u002A,1*%
%TO.N,N/C*%
X76200000Y-55880000D03*
%TD*%
%TO.P,REF\u002A\u002A,1*%
%TO.N,N/C*%
X72390000Y-55880000D03*
%TD*%
D11*
%TO.P,REF\u002A\u002A,1*%
%TO.N,GNDREF*%
X64000000Y-61000000D03*
%TD*%
%TO.P,REF\u002A\u002A,1*%
%TO.N,GNDREF*%
X64000000Y-58000000D03*
%TD*%
%TO.P,REF\u002A\u002A,1*%
%TO.N,GNDREF*%
X64000000Y-52000000D03*
%TD*%
%TO.P,REF\u002A\u002A,1*%
%TO.N,GNDREF*%
X64000000Y-55000000D03*
%TD*%
%TO.P,REF\u002A\u002A,1*%
%TO.N,GNDREF*%
X64000000Y-49000000D03*
%TD*%
%TO.P,REF\u002A\u002A,1*%
%TO.N,Net-(C1-Pad2)*%
X95000000Y-71000000D03*
%TD*%
%TO.P,REF\u002A\u002A,1*%
%TO.N,Net-(C1-Pad2)*%
X101000000Y-62000000D03*
%TD*%
%TO.P,REF\u002A\u002A,1*%
%TO.N,Net-(C1-Pad2)*%
X101000000Y-68000000D03*
%TD*%
%TO.P,REF\u002A\u002A,1*%
%TO.N,Net-(C1-Pad2)*%
X101000000Y-64500000D03*
%TD*%
D10*
%TO.P,REF\u002A\u002A,1*%
%TO.N,Net-(C2-Pad1)*%
X104000000Y-48000000D03*
%TD*%
%TO.P,REF\u002A\u002A,1*%
%TO.N,Net-(C2-Pad1)*%
X104000000Y-47000000D03*
%TD*%
%TO.P,REF\u002A\u002A,1*%
%TO.N,GNDREF*%
X104000000Y-41500000D03*
%TD*%
%TO.P,REF\u002A\u002A,1*%
%TO.N,GNDREF*%
X104000000Y-42500000D03*
%TD*%
D13*
%TO.P,C4,2*%
%TO.N,GNDREF*%
X104000000Y-43500000D03*
%TO.P,C4,1*%
%TO.N,Net-(C2-Pad1)*%
X104000000Y-46000000D03*
%TD*%
%TO.P,C3,2*%
%TO.N,GNDREF*%
X86000000Y-68000000D03*
%TO.P,C3,1*%
%TO.N,Net-(C1-Pad2)*%
X86000000Y-70500000D03*
%TD*%
D11*
%TO.P,REF\u002A\u002A,1*%
%TO.N,GNDREF*%
X123000000Y-42000000D03*
%TD*%
D10*
%TO.P,REF\u002A\u002A,1*%
%TO.N,N/C*%
X73660000Y-55880000D03*
%TD*%
%TO.P,REF\u002A\u002A,1*%
%TO.N,N/C*%
X74930000Y-55880000D03*
%TD*%
D14*
%TO.P,C1,2*%
%TO.N,Net-(C1-Pad2)*%
X67000000Y-71000000D03*
D15*
%TO.P,C1,1*%
%TO.N,GNDREF*%
X67000000Y-66000000D03*
%TD*%
D14*
%TO.P,C2,2*%
%TO.N,GNDREF*%
X123000000Y-44000000D03*
D15*
%TO.P,C2,1*%
%TO.N,Net-(C2-Pad1)*%
X123000000Y-49000000D03*
%TD*%
D10*
%TO.P,REF\u002A\u002A,1*%
%TO.N,N/C*%
X93000000Y-62000000D03*
%TD*%
%TO.P,REF\u002A\u002A,1*%
%TO.N,N/C*%
X91000000Y-62000000D03*
%TD*%
%TO.P,REF\u002A\u002A,1*%
%TO.N,N/C*%
X89000000Y-62000000D03*
%TD*%
%TO.P,REF\u002A\u002A,1*%
%TO.N,N/C*%
X87000000Y-62000000D03*
%TD*%
%TO.P,REF\u002A\u002A,1*%
%TO.N,N/C*%
X93000000Y-52000000D03*
%TD*%
%TO.P,REF\u002A\u002A,1*%
%TO.N,N/C*%
X91000000Y-52000000D03*
%TD*%
%TO.P,REF\u002A\u002A,1*%
%TO.N,N/C*%
X89000000Y-52000000D03*
%TD*%
%TO.P,REF\u002A\u002A,1*%
%TO.N,N/C*%
X87000000Y-52000000D03*
%TD*%
%TO.P,SOIC-8,8*%
%TO.N,N/C*%
%TA.AperFunction,SMDPad,CuDef*%
G36*
G01*
X88245000Y-55500000D02*
X87945000Y-55500000D01*
G75*
G02*
X87795000Y-55350000I0J150000D01*
G01*
X87795000Y-53700000D01*
G75*
G02*
X87945000Y-53550000I150000J0D01*
G01*
X88245000Y-53550000D01*
G75*
G02*
X88395000Y-53700000I0J-150000D01*
G01*
X88395000Y-55350000D01*
G75*
G02*
X88245000Y-55500000I-150000J0D01*
G01*
G37*
%TD.AperFunction*%
%TO.P,SOIC-8,7*%
%TA.AperFunction,SMDPad,CuDef*%
G36*
G01*
X89515000Y-55500000D02*
X89215000Y-55500000D01*
G75*
G02*
X89065000Y-55350000I0J150000D01*
G01*
X89065000Y-53700000D01*
G75*
G02*
X89215000Y-53550000I150000J0D01*
G01*
X89515000Y-53550000D01*
G75*
G02*
X89665000Y-53700000I0J-150000D01*
G01*
X89665000Y-55350000D01*
G75*
G02*
X89515000Y-55500000I-150000J0D01*
G01*
G37*
%TD.AperFunction*%
%TO.P,SOIC-8,6*%
%TA.AperFunction,SMDPad,CuDef*%
G36*
G01*
X90785000Y-55500000D02*
X90485000Y-55500000D01*
G75*
G02*
X90335000Y-55350000I0J150000D01*
G01*
X90335000Y-53700000D01*
G75*
G02*
X90485000Y-53550000I150000J0D01*
G01*
X90785000Y-53550000D01*
G75*
G02*
X90935000Y-53700000I0J-150000D01*
G01*
X90935000Y-55350000D01*
G75*
G02*
X90785000Y-55500000I-150000J0D01*
G01*
G37*
%TD.AperFunction*%
%TO.P,SOIC-8,5*%
%TA.AperFunction,SMDPad,CuDef*%
G36*
G01*
X92055000Y-55500000D02*
X91755000Y-55500000D01*
G75*
G02*
X91605000Y-55350000I0J150000D01*
G01*
X91605000Y-53700000D01*
G75*
G02*
X91755000Y-53550000I150000J0D01*
G01*
X92055000Y-53550000D01*
G75*
G02*
X92205000Y-53700000I0J-150000D01*
G01*
X92205000Y-55350000D01*
G75*
G02*
X92055000Y-55500000I-150000J0D01*
G01*
G37*
%TD.AperFunction*%
%TO.P,SOIC-8,4*%
%TA.AperFunction,SMDPad,CuDef*%
G36*
G01*
X92055000Y-60450000D02*
X91755000Y-60450000D01*
G75*
G02*
X91605000Y-60300000I0J150000D01*
G01*
X91605000Y-58650000D01*
G75*
G02*
X91755000Y-58500000I150000J0D01*
G01*
X92055000Y-58500000D01*
G75*
G02*
X92205000Y-58650000I0J-150000D01*
G01*
X92205000Y-60300000D01*
G75*
G02*
X92055000Y-60450000I-150000J0D01*
G01*
G37*
%TD.AperFunction*%
%TO.P,SOIC-8,3*%
%TA.AperFunction,SMDPad,CuDef*%
G36*
G01*
X90785000Y-60450000D02*
X90485000Y-60450000D01*
G75*
G02*
X90335000Y-60300000I0J150000D01*
G01*
X90335000Y-58650000D01*
G75*
G02*
X90485000Y-58500000I150000J0D01*
G01*
X90785000Y-58500000D01*
G75*
G02*
X90935000Y-58650000I0J-150000D01*
G01*
X90935000Y-60300000D01*
G75*
G02*
X90785000Y-60450000I-150000J0D01*
G01*
G37*
%TD.AperFunction*%
%TO.P,SOIC-8,2*%
%TA.AperFunction,SMDPad,CuDef*%
G36*
G01*
X89515000Y-60450000D02*
X89215000Y-60450000D01*
G75*
G02*
X89065000Y-60300000I0J150000D01*
G01*
X89065000Y-58650000D01*
G75*
G02*
X89215000Y-58500000I150000J0D01*
G01*
X89515000Y-58500000D01*
G75*
G02*
X89665000Y-58650000I0J-150000D01*
G01*
X89665000Y-60300000D01*
G75*
G02*
X89515000Y-60450000I-150000J0D01*
G01*
G37*
%TD.AperFunction*%
%TO.P,SOIC-8,1*%
%TA.AperFunction,SMDPad,CuDef*%
G36*
G01*
X88245000Y-60450000D02*
X87945000Y-60450000D01*
G75*
G02*
X87795000Y-60300000I0J150000D01*
G01*
X87795000Y-58650000D01*
G75*
G02*
X87945000Y-58500000I150000J0D01*
G01*
X88245000Y-58500000D01*
G75*
G02*
X88395000Y-58650000I0J-150000D01*
G01*
X88395000Y-60300000D01*
G75*
G02*
X88245000Y-60450000I-150000J0D01*
G01*
G37*
%TD.AperFunction*%
%TD*%
D11*
%TO.P,REF\u002A\u002A,1*%
%TO.N,Net-(H4-Pad1)*%
X118000000Y-71000000D03*
%TD*%
%TO.P,REF\u002A\u002A,1*%
%TO.N,Net-(H4-Pad1)*%
X126000000Y-62000000D03*
%TD*%
%TO.P,REF\u002A\u002A,1*%
%TO.N,Net-(H4-Pad1)*%
X122000000Y-71000000D03*
%TD*%
%TO.P,REF\u002A\u002A,1*%
%TO.N,Net-(C2-Pad1)*%
X123000000Y-51000000D03*
%TD*%
%TO.P,REF\u002A\u002A,1*%
%TO.N,Net-(C1-Pad2)*%
X67000000Y-73000000D03*
%TD*%
%TO.P,REF\u002A\u002A,1*%
%TO.N,GNDREF*%
X67000000Y-64000000D03*
%TD*%
%TO.P,REF\u002A\u002A,1*%
%TO.N,Net-(H4-Pad1)*%
X126000000Y-68000000D03*
%TD*%
%TO.P,REF\u002A\u002A,1*%
%TO.N,Net-(C2-Pad1)*%
X126000000Y-54000000D03*
%TD*%
%TO.P,REF\u002A\u002A,1*%
%TO.N,Net-(C2-Pad1)*%
X126000000Y-57000000D03*
%TD*%
D10*
%TO.P,REF\u002A\u002A,1*%
%TO.N,Net-(C1-Pad2)*%
X86000000Y-71500000D03*
%TD*%
%TO.P,REF\u002A\u002A,1*%
%TO.N,Net-(C1-Pad2)*%
X86000000Y-72500000D03*
%TD*%
%TO.P,REF\u002A\u002A,1*%
%TO.N,GNDREF*%
X86000000Y-66000000D03*
%TD*%
%TO.P,REF\u002A\u002A,1*%
%TO.N,GNDREF*%
X86000000Y-67000000D03*
%TD*%
D16*
%TO.P,H5,1*%
%TO.N,GNDREF*%
X64000000Y-44000000D03*
D17*
X64000000Y-44000000D03*
%TD*%
D16*
%TO.P,H1,1*%
%TO.N,Net-(C2-Pad1)*%
X111000000Y-47000000D03*
D17*
X111000000Y-47000000D03*
%TD*%
D16*
%TO.P,H2,1*%
%TO.N,Net-(C1-Pad2)*%
X79000000Y-71000000D03*
D17*
X79000000Y-71000000D03*
%TD*%
D16*
%TO.P,H3,1*%
%TO.N,Net-(H3-Pad1)*%
X79000000Y-44000000D03*
D17*
X79000000Y-44000000D03*
%TD*%
D16*
%TO.P,H4,1*%
%TO.N,Net-(H4-Pad1)*%
X111000000Y-71000000D03*
D17*
X111000000Y-71000000D03*
%TD*%
D18*
%TO.P,GND,2*%
%TO.N,GNDREF*%
X72540000Y-44000000D03*
%TO.P,GND,1*%
%TA.AperFunction,ComponentPad*%
G36*
G01*
X69130000Y-44845001D02*
X69130000Y-43154999D01*
G75*
G02*
X69379999Y-42905000I249999J0D01*
G01*
X70620001Y-42905000D01*
G75*
G02*
X70870000Y-43154999I0J-249999D01*
G01*
X70870000Y-44845001D01*
G75*
G02*
X70620001Y-45095000I-249999J0D01*
G01*
X69379999Y-45095000D01*
G75*
G02*
X69130000Y-44845001I0J249999D01*
G01*
G37*
%TD.AperFunction*%
%TD*%
D19*
%TO.N,Net-(H3-Pad1)*%
X79000000Y-46600000D03*
X81500000Y-43900000D03*
X76400000Y-43900000D03*
X79000000Y-41400000D03*
X77300000Y-42100000D03*
X80700000Y-42000000D03*
X80800000Y-45900000D03*
X77200000Y-45900000D03*
%TO.N,Net-(H4-Pad1)*%
X111000000Y-68300000D03*
X111000000Y-73600000D03*
X113600000Y-70900000D03*
X108500000Y-70900000D03*
X109300000Y-69000000D03*
X112800000Y-69000000D03*
X113000000Y-72800000D03*
X109200000Y-72800000D03*
%TO.N,GNDREF*%
X64100000Y-41400000D03*
X64000000Y-46600000D03*
X66600000Y-44000000D03*
X61400000Y-44000000D03*
X62100000Y-42300000D03*
X65800000Y-42100000D03*
X65800000Y-45800000D03*
X62300000Y-46000000D03*
%TO.N,Net-(C1-Pad2)*%
X79000000Y-73600000D03*
X79100000Y-68400000D03*
X80800000Y-69200000D03*
X77300000Y-69100000D03*
X80700000Y-73000000D03*
X81500000Y-71000000D03*
X76500000Y-71000000D03*
X77500000Y-73000000D03*
%TO.N,Net-(C2-Pad1)*%
X111000000Y-44400000D03*
X111000000Y-49600000D03*
X113600000Y-46900000D03*
X108400000Y-46900000D03*
X109200000Y-45200000D03*
X112800000Y-45100000D03*
X113000000Y-48700000D03*
X109300000Y-48900000D03*
%TD*%
D20*
%TO.N,*%
X88095000Y-54525000D02*
X87000000Y-53430000D01*
X87000000Y-53430000D02*
X87000000Y-52000000D01*
X89365000Y-52365000D02*
X89000000Y-52000000D01*
X89365000Y-54525000D02*
X89365000Y-52365000D01*
X90635000Y-52365000D02*
X91000000Y-52000000D01*
X90635000Y-54525000D02*
X90635000Y-52365000D01*
X91905000Y-54525000D02*
X93000000Y-53430000D01*
X93000000Y-53430000D02*
X93000000Y-52000000D01*
X88095000Y-59475000D02*
X87000000Y-60570000D01*
X87000000Y-60570000D02*
X87000000Y-62000000D01*
X91905000Y-59475000D02*
X93000000Y-60570000D01*
X93000000Y-60570000D02*
X93000000Y-62000000D01*
X90635000Y-61635000D02*
X91000000Y-62000000D01*
X90635000Y-59475000D02*
X90635000Y-61635000D01*
X89365000Y-61635000D02*
X89000000Y-62000000D01*
X89365000Y-59475000D02*
X89365000Y-61635000D01*
D21*
X68580000Y-55880000D02*
X77470000Y-55880000D01*
X68580000Y-50800000D02*
X77470000Y-50800000D01*
X68580000Y-58420000D02*
X72390000Y-58420000D01*
X74930000Y-58420000D02*
X77470000Y-58420000D01*
D22*
X97250000Y-53086000D02*
X99790000Y-53086000D01*
X102330000Y-53086000D02*
X104870000Y-53086000D01*
X102330000Y-55626000D02*
X104870000Y-55626000D01*
X97250000Y-55626000D02*
X99790000Y-55626000D01*
X97250000Y-58166000D02*
X99790000Y-58166000D01*
X102330000Y-58166000D02*
X104870000Y-58166000D01*
X110839000Y-53086000D02*
X113379000Y-53086000D01*
X110839000Y-55626000D02*
X113379000Y-55626000D01*
X110839000Y-58166000D02*
X113379000Y-58166000D01*
X110839000Y-60706000D02*
X113379000Y-60706000D01*
X118459000Y-55626000D02*
X120999000Y-55626000D01*
X118459000Y-58166000D02*
X120999000Y-58166000D01*
X118459000Y-60706000D02*
X120999000Y-60706000D01*
X117316000Y-63627000D02*
X119856000Y-63627000D01*
X117316000Y-66167000D02*
X119126000Y-66167000D01*
X119126000Y-66167000D02*
X119856000Y-66167000D01*
X115919000Y-55626000D02*
X118459000Y-55626000D01*
X115919000Y-58166000D02*
X118459000Y-58166000D01*
X115919000Y-60706000D02*
X118459000Y-60706000D01*
X114776000Y-63627000D02*
X117316000Y-63627000D01*
X114776000Y-66167000D02*
X117316000Y-66167000D01*
X118459000Y-53086000D02*
X115919000Y-53086000D01*
D21*
X74930000Y-53340000D02*
X77470000Y-53340000D01*
X68580000Y-53340000D02*
X72390000Y-53340000D01*
D22*
%TO.N,Net-(H3-Pad1)*%
X79000000Y-44000000D02*
X82550000Y-47550000D01*
X82550000Y-47550000D02*
X82550000Y-55880000D01*
D23*
%TO.N,Net-(H4-Pad1)*%
X111000000Y-71000000D02*
X118000000Y-71000000D01*
X118000000Y-71000000D02*
X121799992Y-71000000D01*
X123000000Y-71000000D02*
X126000000Y-68000000D01*
X122000000Y-71000000D02*
X123000000Y-71000000D01*
X126000000Y-68000000D02*
X126000000Y-62000000D01*
D21*
%TO.N,GNDREF*%
X95250000Y-64500000D02*
X97790000Y-64500000D01*
X104000000Y-41500000D02*
X104000000Y-43500000D01*
X81250000Y-64500000D02*
X83790000Y-64500000D01*
D23*
%TO.N,Net-(C1-Pad2)*%
X67000000Y-71000000D02*
X70000000Y-71000000D01*
X74000000Y-71000000D02*
X67000000Y-71000000D01*
X79000000Y-71000000D02*
X74000000Y-71000000D01*
X98000000Y-71000000D02*
X90000000Y-71000000D01*
X101000000Y-68000000D02*
X98000000Y-71000000D01*
X101000000Y-62000000D02*
X101000000Y-68000000D01*
X67000000Y-71000000D02*
X67000000Y-73000000D01*
X83500000Y-71000000D02*
X79000000Y-71000000D01*
X90000000Y-71000000D02*
X83500000Y-71000000D01*
D21*
X79000000Y-71000000D02*
X79000000Y-66760000D01*
X74680000Y-64460000D02*
X77220000Y-64460000D01*
X79000000Y-66240000D02*
X79000000Y-66760000D01*
X77220000Y-64460000D02*
X79000000Y-66240000D01*
D23*
%TO.N,Net-(C2-Pad1)*%
X126000000Y-52000000D02*
X126000000Y-57000000D01*
D21*
X68580000Y-60960000D02*
X77470000Y-60960000D01*
D23*
X123000000Y-49000000D02*
X119000000Y-49000000D01*
X119000000Y-49000000D02*
X117000000Y-47000000D01*
X117000000Y-47000000D02*
X108000000Y-47000000D01*
X123000000Y-49000000D02*
X126000000Y-52000000D01*
X123000000Y-49000000D02*
X123000000Y-51000000D01*
X94000000Y-47000000D02*
X110000000Y-47000000D01*
%TD*%
M02*
