%TF.GenerationSoftware,KiCad,Pcbnew,(5.1.9)-1*%
%TF.CreationDate,2021-06-06T23:04:23+02:00*%
%TF.ProjectId,Yarra_Experimenter,59617272-615f-4457-9870-6572696d656e,rev?*%
%TF.SameCoordinates,Original*%
%TF.FileFunction,Legend,Top*%
%TF.FilePolarity,Positive*%
%FSLAX46Y46*%
G04 Gerber Fmt 4.6, Leading zero omitted, Abs format (unit mm)*
G04 Created by KiCad (PCBNEW (5.1.9)-1) date 2021-06-06 23:04:23*
%MOMM*%
%LPD*%
G01*
G04 APERTURE LIST*
%ADD10C,0.150000*%
%ADD11C,0.120000*%
%ADD12C,0.200000*%
%ADD13C,0.254000*%
G04 APERTURE END LIST*
D10*
X81738095Y-62500000D02*
X81642857Y-62452380D01*
X81500000Y-62452380D01*
X81357142Y-62500000D01*
X81261904Y-62595238D01*
X81214285Y-62690476D01*
X81166666Y-62880952D01*
X81166666Y-63023809D01*
X81214285Y-63214285D01*
X81261904Y-63309523D01*
X81357142Y-63404761D01*
X81500000Y-63452380D01*
X81595238Y-63452380D01*
X81738095Y-63404761D01*
X81785714Y-63357142D01*
X81785714Y-63023809D01*
X81595238Y-63023809D01*
X82214285Y-63452380D02*
X82214285Y-62452380D01*
X82785714Y-63452380D01*
X82785714Y-62452380D01*
X83261904Y-63452380D02*
X83261904Y-62452380D01*
X83500000Y-62452380D01*
X83642857Y-62500000D01*
X83738095Y-62595238D01*
X83785714Y-62690476D01*
X83833333Y-62880952D01*
X83833333Y-63023809D01*
X83785714Y-63214285D01*
X83738095Y-63309523D01*
X83642857Y-63404761D01*
X83500000Y-63452380D01*
X83261904Y-63452380D01*
X107518674Y-62269025D02*
X107423436Y-62221405D01*
X107280579Y-62221405D01*
X107137721Y-62269025D01*
X107042483Y-62364263D01*
X106994864Y-62459501D01*
X106947245Y-62649977D01*
X106947245Y-62792834D01*
X106994864Y-62983310D01*
X107042483Y-63078548D01*
X107137721Y-63173786D01*
X107280579Y-63221405D01*
X107375817Y-63221405D01*
X107518674Y-63173786D01*
X107566293Y-63126167D01*
X107566293Y-62792834D01*
X107375817Y-62792834D01*
X107994864Y-63221405D02*
X107994864Y-62221405D01*
X108566293Y-63221405D01*
X108566293Y-62221405D01*
X109042483Y-63221405D02*
X109042483Y-62221405D01*
X109280579Y-62221405D01*
X109423436Y-62269025D01*
X109518674Y-62364263D01*
X109566293Y-62459501D01*
X109613912Y-62649977D01*
X109613912Y-62792834D01*
X109566293Y-62983310D01*
X109518674Y-63078548D01*
X109423436Y-63173786D01*
X109280579Y-63221405D01*
X109042483Y-63221405D01*
X95738095Y-62500000D02*
X95642857Y-62452380D01*
X95500000Y-62452380D01*
X95357142Y-62500000D01*
X95261904Y-62595238D01*
X95214285Y-62690476D01*
X95166666Y-62880952D01*
X95166666Y-63023809D01*
X95214285Y-63214285D01*
X95261904Y-63309523D01*
X95357142Y-63404761D01*
X95500000Y-63452380D01*
X95595238Y-63452380D01*
X95738095Y-63404761D01*
X95785714Y-63357142D01*
X95785714Y-63023809D01*
X95595238Y-63023809D01*
X96214285Y-63452380D02*
X96214285Y-62452380D01*
X96785714Y-63452380D01*
X96785714Y-62452380D01*
X97261904Y-63452380D02*
X97261904Y-62452380D01*
X97500000Y-62452380D01*
X97642857Y-62500000D01*
X97738095Y-62595238D01*
X97785714Y-62690476D01*
X97833333Y-62880952D01*
X97833333Y-63023809D01*
X97785714Y-63214285D01*
X97738095Y-63309523D01*
X97642857Y-63404761D01*
X97500000Y-63452380D01*
X97261904Y-63452380D01*
X86285714Y-47627380D02*
X85809523Y-47627380D01*
X85809523Y-46627380D01*
X87047619Y-47627380D02*
X87047619Y-47103571D01*
X87000000Y-47008333D01*
X86904761Y-46960714D01*
X86714285Y-46960714D01*
X86619047Y-47008333D01*
X87047619Y-47579761D02*
X86952380Y-47627380D01*
X86714285Y-47627380D01*
X86619047Y-47579761D01*
X86571428Y-47484523D01*
X86571428Y-47389285D01*
X86619047Y-47294047D01*
X86714285Y-47246428D01*
X86952380Y-47246428D01*
X87047619Y-47198809D01*
X87428571Y-46960714D02*
X87666666Y-47627380D01*
X87904761Y-46960714D02*
X87666666Y-47627380D01*
X87571428Y-47865476D01*
X87523809Y-47913095D01*
X87428571Y-47960714D01*
X88428571Y-47627380D02*
X88333333Y-47579761D01*
X88285714Y-47532142D01*
X88238095Y-47436904D01*
X88238095Y-47151190D01*
X88285714Y-47055952D01*
X88333333Y-47008333D01*
X88428571Y-46960714D01*
X88571428Y-46960714D01*
X88666666Y-47008333D01*
X88714285Y-47055952D01*
X88761904Y-47151190D01*
X88761904Y-47436904D01*
X88714285Y-47532142D01*
X88666666Y-47579761D01*
X88571428Y-47627380D01*
X88428571Y-47627380D01*
X89619047Y-46960714D02*
X89619047Y-47627380D01*
X89190476Y-46960714D02*
X89190476Y-47484523D01*
X89238095Y-47579761D01*
X89333333Y-47627380D01*
X89476190Y-47627380D01*
X89571428Y-47579761D01*
X89619047Y-47532142D01*
X89952380Y-46960714D02*
X90333333Y-46960714D01*
X90095238Y-46627380D02*
X90095238Y-47484523D01*
X90142857Y-47579761D01*
X90238095Y-47627380D01*
X90333333Y-47627380D01*
X85738095Y-49277380D02*
X85738095Y-48277380D01*
X85738095Y-48753571D02*
X86309523Y-48753571D01*
X86309523Y-49277380D02*
X86309523Y-48277380D01*
X87214285Y-49277380D02*
X87214285Y-48753571D01*
X87166666Y-48658333D01*
X87071428Y-48610714D01*
X86880952Y-48610714D01*
X86785714Y-48658333D01*
X87214285Y-49229761D02*
X87119047Y-49277380D01*
X86880952Y-49277380D01*
X86785714Y-49229761D01*
X86738095Y-49134523D01*
X86738095Y-49039285D01*
X86785714Y-48944047D01*
X86880952Y-48896428D01*
X87119047Y-48896428D01*
X87214285Y-48848809D01*
X87690476Y-48610714D02*
X87690476Y-49277380D01*
X87690476Y-48705952D02*
X87738095Y-48658333D01*
X87833333Y-48610714D01*
X87976190Y-48610714D01*
X88071428Y-48658333D01*
X88119047Y-48753571D01*
X88119047Y-49277380D01*
X88547619Y-49229761D02*
X88642857Y-49277380D01*
X88833333Y-49277380D01*
X88928571Y-49229761D01*
X88976190Y-49134523D01*
X88976190Y-49086904D01*
X88928571Y-48991666D01*
X88833333Y-48944047D01*
X88690476Y-48944047D01*
X88595238Y-48896428D01*
X88547619Y-48801190D01*
X88547619Y-48753571D01*
X88595238Y-48658333D01*
X88690476Y-48610714D01*
X88833333Y-48610714D01*
X88928571Y-48658333D01*
X89404761Y-49277380D02*
X89404761Y-48277380D01*
X89738095Y-48277380D02*
X90071428Y-49277380D01*
X90404761Y-48277380D01*
X92380952Y-40759571D02*
X92714285Y-40759571D01*
X92857142Y-41283380D02*
X92380952Y-41283380D01*
X92380952Y-40283380D01*
X92857142Y-40283380D01*
X93190476Y-41283380D02*
X93714285Y-40616714D01*
X93190476Y-40616714D02*
X93714285Y-41283380D01*
X94095238Y-40616714D02*
X94095238Y-41616714D01*
X94095238Y-40664333D02*
X94190476Y-40616714D01*
X94380952Y-40616714D01*
X94476190Y-40664333D01*
X94523809Y-40711952D01*
X94571428Y-40807190D01*
X94571428Y-41092904D01*
X94523809Y-41188142D01*
X94476190Y-41235761D01*
X94380952Y-41283380D01*
X94190476Y-41283380D01*
X94095238Y-41235761D01*
X95380952Y-41235761D02*
X95285714Y-41283380D01*
X95095238Y-41283380D01*
X95000000Y-41235761D01*
X94952380Y-41140523D01*
X94952380Y-40759571D01*
X95000000Y-40664333D01*
X95095238Y-40616714D01*
X95285714Y-40616714D01*
X95380952Y-40664333D01*
X95428571Y-40759571D01*
X95428571Y-40854809D01*
X94952380Y-40950047D01*
X95857142Y-41283380D02*
X95857142Y-40616714D01*
X95857142Y-40807190D02*
X95904761Y-40711952D01*
X95952380Y-40664333D01*
X96047619Y-40616714D01*
X96142857Y-40616714D01*
X96476190Y-41283380D02*
X96476190Y-40616714D01*
X96476190Y-40283380D02*
X96428571Y-40331000D01*
X96476190Y-40378619D01*
X96523809Y-40331000D01*
X96476190Y-40283380D01*
X96476190Y-40378619D01*
X96952380Y-41283380D02*
X96952380Y-40616714D01*
X96952380Y-40711952D02*
X97000000Y-40664333D01*
X97095238Y-40616714D01*
X97238095Y-40616714D01*
X97333333Y-40664333D01*
X97380952Y-40759571D01*
X97380952Y-41283380D01*
X97380952Y-40759571D02*
X97428571Y-40664333D01*
X97523809Y-40616714D01*
X97666666Y-40616714D01*
X97761904Y-40664333D01*
X97809523Y-40759571D01*
X97809523Y-41283380D01*
X98666666Y-41235761D02*
X98571428Y-41283380D01*
X98380952Y-41283380D01*
X98285714Y-41235761D01*
X98238095Y-41140523D01*
X98238095Y-40759571D01*
X98285714Y-40664333D01*
X98380952Y-40616714D01*
X98571428Y-40616714D01*
X98666666Y-40664333D01*
X98714285Y-40759571D01*
X98714285Y-40854809D01*
X98238095Y-40950047D01*
X99142857Y-40616714D02*
X99142857Y-41283380D01*
X99142857Y-40711952D02*
X99190476Y-40664333D01*
X99285714Y-40616714D01*
X99428571Y-40616714D01*
X99523809Y-40664333D01*
X99571428Y-40759571D01*
X99571428Y-41283380D01*
X99904761Y-40616714D02*
X100285714Y-40616714D01*
X100047619Y-40283380D02*
X100047619Y-41140523D01*
X100095238Y-41235761D01*
X100190476Y-41283380D01*
X100285714Y-41283380D01*
X101000000Y-41235761D02*
X100904761Y-41283380D01*
X100714285Y-41283380D01*
X100619047Y-41235761D01*
X100571428Y-41140523D01*
X100571428Y-40759571D01*
X100619047Y-40664333D01*
X100714285Y-40616714D01*
X100904761Y-40616714D01*
X101000000Y-40664333D01*
X101047619Y-40759571D01*
X101047619Y-40854809D01*
X100571428Y-40950047D01*
X101476190Y-41283380D02*
X101476190Y-40616714D01*
X101476190Y-40807190D02*
X101523809Y-40711952D01*
X101571428Y-40664333D01*
X101666666Y-40616714D01*
X101761904Y-40616714D01*
X95404761Y-42409571D02*
X95547619Y-42457190D01*
X95595238Y-42504809D01*
X95642857Y-42600047D01*
X95642857Y-42742904D01*
X95595238Y-42838142D01*
X95547619Y-42885761D01*
X95452380Y-42933380D01*
X95071428Y-42933380D01*
X95071428Y-41933380D01*
X95404761Y-41933380D01*
X95500000Y-41981000D01*
X95547619Y-42028619D01*
X95595238Y-42123857D01*
X95595238Y-42219095D01*
X95547619Y-42314333D01*
X95500000Y-42361952D01*
X95404761Y-42409571D01*
X95071428Y-42409571D01*
X96214285Y-42933380D02*
X96119047Y-42885761D01*
X96071428Y-42838142D01*
X96023809Y-42742904D01*
X96023809Y-42457190D01*
X96071428Y-42361952D01*
X96119047Y-42314333D01*
X96214285Y-42266714D01*
X96357142Y-42266714D01*
X96452380Y-42314333D01*
X96500000Y-42361952D01*
X96547619Y-42457190D01*
X96547619Y-42742904D01*
X96500000Y-42838142D01*
X96452380Y-42885761D01*
X96357142Y-42933380D01*
X96214285Y-42933380D01*
X97404761Y-42933380D02*
X97404761Y-42409571D01*
X97357142Y-42314333D01*
X97261904Y-42266714D01*
X97071428Y-42266714D01*
X96976190Y-42314333D01*
X97404761Y-42885761D02*
X97309523Y-42933380D01*
X97071428Y-42933380D01*
X96976190Y-42885761D01*
X96928571Y-42790523D01*
X96928571Y-42695285D01*
X96976190Y-42600047D01*
X97071428Y-42552428D01*
X97309523Y-42552428D01*
X97404761Y-42504809D01*
X97880952Y-42933380D02*
X97880952Y-42266714D01*
X97880952Y-42457190D02*
X97928571Y-42361952D01*
X97976190Y-42314333D01*
X98071428Y-42266714D01*
X98166666Y-42266714D01*
X98928571Y-42933380D02*
X98928571Y-41933380D01*
X98928571Y-42885761D02*
X98833333Y-42933380D01*
X98642857Y-42933380D01*
X98547619Y-42885761D01*
X98500000Y-42838142D01*
X98452380Y-42742904D01*
X98452380Y-42457190D01*
X98500000Y-42361952D01*
X98547619Y-42314333D01*
X98642857Y-42266714D01*
X98833333Y-42266714D01*
X98928571Y-42314333D01*
X79057619Y-60412380D02*
X79390952Y-61412380D01*
X79724285Y-60412380D01*
X80057619Y-61031428D02*
X80819523Y-61031428D01*
X80438571Y-61412380D02*
X80438571Y-60650476D01*
X75047619Y-65452380D02*
X75380952Y-66452380D01*
X75714285Y-65452380D01*
X76047619Y-66071428D02*
X76809523Y-66071428D01*
X61761904Y-55850000D02*
X61666666Y-55802380D01*
X61523809Y-55802380D01*
X61380952Y-55850000D01*
X61285714Y-55945238D01*
X61238095Y-56040476D01*
X61190476Y-56230952D01*
X61190476Y-56373809D01*
X61238095Y-56564285D01*
X61285714Y-56659523D01*
X61380952Y-56754761D01*
X61523809Y-56802380D01*
X61619047Y-56802380D01*
X61761904Y-56754761D01*
X61809523Y-56707142D01*
X61809523Y-56373809D01*
X61619047Y-56373809D01*
X61214285Y-58452380D02*
X61214285Y-57452380D01*
X61785714Y-58452380D01*
X61785714Y-57452380D01*
X61238095Y-60102380D02*
X61238095Y-59102380D01*
X61476190Y-59102380D01*
X61619047Y-59150000D01*
X61714285Y-59245238D01*
X61761904Y-59340476D01*
X61809523Y-59530952D01*
X61809523Y-59673809D01*
X61761904Y-59864285D01*
X61714285Y-59959523D01*
X61619047Y-60054761D01*
X61476190Y-60102380D01*
X61238095Y-60102380D01*
X119238095Y-44142857D02*
X120761904Y-44142857D01*
X125238095Y-44142857D02*
X126761904Y-44142857D01*
X69238095Y-71142857D02*
X70761904Y-71142857D01*
X63238095Y-71142857D02*
X64761904Y-71142857D01*
X119238095Y-49142857D02*
X120761904Y-49142857D01*
X120000000Y-49904761D02*
X120000000Y-48380952D01*
X125238095Y-49142857D02*
X126761904Y-49142857D01*
X126000000Y-49904761D02*
X126000000Y-48380952D01*
X69238095Y-66142857D02*
X70761904Y-66142857D01*
X70000000Y-66904761D02*
X70000000Y-65380952D01*
X63238095Y-66142857D02*
X64761904Y-66142857D01*
X64000000Y-66904761D02*
X64000000Y-65380952D01*
X92047619Y-48452380D02*
X92380952Y-49452380D01*
X92714285Y-48452380D01*
X93047619Y-49071428D02*
X93809523Y-49071428D01*
X93428571Y-49452380D02*
X93428571Y-48690476D01*
X115134285Y-73112380D02*
X115467619Y-74112380D01*
X115800952Y-73112380D01*
X116562857Y-73445714D02*
X116562857Y-74112380D01*
X116324761Y-73064761D02*
X116086666Y-73779047D01*
X116705714Y-73779047D01*
X118134285Y-73112380D02*
X118134285Y-73826666D01*
X118086666Y-73969523D01*
X117991428Y-74064761D01*
X117848571Y-74112380D01*
X117753333Y-74112380D01*
X119039047Y-73445714D02*
X119039047Y-74112380D01*
X118610476Y-73445714D02*
X118610476Y-73969523D01*
X118658095Y-74064761D01*
X118753333Y-74112380D01*
X118896190Y-74112380D01*
X118991428Y-74064761D01*
X119039047Y-74017142D01*
X119515238Y-73445714D02*
X119515238Y-74112380D01*
X119515238Y-73540952D02*
X119562857Y-73493333D01*
X119658095Y-73445714D01*
X119800952Y-73445714D01*
X119896190Y-73493333D01*
X119943809Y-73588571D01*
X119943809Y-74112380D01*
X120800952Y-74064761D02*
X120705714Y-74112380D01*
X120515238Y-74112380D01*
X120420000Y-74064761D01*
X120372380Y-73969523D01*
X120372380Y-73588571D01*
X120420000Y-73493333D01*
X120515238Y-73445714D01*
X120705714Y-73445714D01*
X120800952Y-73493333D01*
X120848571Y-73588571D01*
X120848571Y-73683809D01*
X120372380Y-73779047D01*
X122467619Y-73112380D02*
X122277142Y-73112380D01*
X122181904Y-73160000D01*
X122134285Y-73207619D01*
X122039047Y-73350476D01*
X121991428Y-73540952D01*
X121991428Y-73921904D01*
X122039047Y-74017142D01*
X122086666Y-74064761D01*
X122181904Y-74112380D01*
X122372380Y-74112380D01*
X122467619Y-74064761D01*
X122515238Y-74017142D01*
X122562857Y-73921904D01*
X122562857Y-73683809D01*
X122515238Y-73588571D01*
X122467619Y-73540952D01*
X122372380Y-73493333D01*
X122181904Y-73493333D01*
X122086666Y-73540952D01*
X122039047Y-73588571D01*
X121991428Y-73683809D01*
X122848571Y-73445714D02*
X123229523Y-73445714D01*
X122991428Y-73112380D02*
X122991428Y-73969523D01*
X123039047Y-74064761D01*
X123134285Y-74112380D01*
X123229523Y-74112380D01*
X123562857Y-74112380D02*
X123562857Y-73112380D01*
X123991428Y-74112380D02*
X123991428Y-73588571D01*
X123943809Y-73493333D01*
X123848571Y-73445714D01*
X123705714Y-73445714D01*
X123610476Y-73493333D01*
X123562857Y-73540952D01*
X125181904Y-73207619D02*
X125229523Y-73160000D01*
X125324761Y-73112380D01*
X125562857Y-73112380D01*
X125658095Y-73160000D01*
X125705714Y-73207619D01*
X125753333Y-73302857D01*
X125753333Y-73398095D01*
X125705714Y-73540952D01*
X125134285Y-74112380D01*
X125753333Y-74112380D01*
X126372380Y-73112380D02*
X126467619Y-73112380D01*
X126562857Y-73160000D01*
X126610476Y-73207619D01*
X126658095Y-73302857D01*
X126705714Y-73493333D01*
X126705714Y-73731428D01*
X126658095Y-73921904D01*
X126610476Y-74017142D01*
X126562857Y-74064761D01*
X126467619Y-74112380D01*
X126372380Y-74112380D01*
X126277142Y-74064761D01*
X126229523Y-74017142D01*
X126181904Y-73921904D01*
X126134285Y-73731428D01*
X126134285Y-73493333D01*
X126181904Y-73302857D01*
X126229523Y-73207619D01*
X126277142Y-73160000D01*
X126372380Y-73112380D01*
X127086666Y-73207619D02*
X127134285Y-73160000D01*
X127229523Y-73112380D01*
X127467619Y-73112380D01*
X127562857Y-73160000D01*
X127610476Y-73207619D01*
X127658095Y-73302857D01*
X127658095Y-73398095D01*
X127610476Y-73540952D01*
X127039047Y-74112380D01*
X127658095Y-74112380D01*
X128610476Y-74112380D02*
X128039047Y-74112380D01*
X128324761Y-74112380D02*
X128324761Y-73112380D01*
X128229523Y-73255238D01*
X128134285Y-73350476D01*
X128039047Y-73398095D01*
X107190476Y-41302380D02*
X107190476Y-40302380D01*
X107523809Y-41016666D01*
X107857142Y-40302380D01*
X107857142Y-41302380D01*
X108285714Y-40397619D02*
X108333333Y-40350000D01*
X108428571Y-40302380D01*
X108666666Y-40302380D01*
X108761904Y-40350000D01*
X108809523Y-40397619D01*
X108857142Y-40492857D01*
X108857142Y-40588095D01*
X108809523Y-40730952D01*
X108238095Y-41302380D01*
X108857142Y-41302380D01*
X109190476Y-41302380D02*
X109714285Y-40635714D01*
X109190476Y-40635714D02*
X109714285Y-41302380D01*
X110809523Y-40254761D02*
X109952380Y-41540476D01*
X111333333Y-40826190D02*
X111333333Y-41302380D01*
X111000000Y-40302380D02*
X111333333Y-40826190D01*
X111666666Y-40302380D01*
X112428571Y-41302380D02*
X112428571Y-40778571D01*
X112380952Y-40683333D01*
X112285714Y-40635714D01*
X112095238Y-40635714D01*
X112000000Y-40683333D01*
X112428571Y-41254761D02*
X112333333Y-41302380D01*
X112095238Y-41302380D01*
X112000000Y-41254761D01*
X111952380Y-41159523D01*
X111952380Y-41064285D01*
X112000000Y-40969047D01*
X112095238Y-40921428D01*
X112333333Y-40921428D01*
X112428571Y-40873809D01*
X112904761Y-41302380D02*
X112904761Y-40635714D01*
X112904761Y-40826190D02*
X112952380Y-40730952D01*
X113000000Y-40683333D01*
X113095238Y-40635714D01*
X113190476Y-40635714D01*
X113523809Y-41302380D02*
X113523809Y-40635714D01*
X113523809Y-40826190D02*
X113571428Y-40730952D01*
X113619047Y-40683333D01*
X113714285Y-40635714D01*
X113809523Y-40635714D01*
X114571428Y-41302380D02*
X114571428Y-40778571D01*
X114523809Y-40683333D01*
X114428571Y-40635714D01*
X114238095Y-40635714D01*
X114142857Y-40683333D01*
X114571428Y-41254761D02*
X114476190Y-41302380D01*
X114238095Y-41302380D01*
X114142857Y-41254761D01*
X114095238Y-41159523D01*
X114095238Y-41064285D01*
X114142857Y-40969047D01*
X114238095Y-40921428D01*
X114476190Y-40921428D01*
X114571428Y-40873809D01*
X115809523Y-41302380D02*
X115809523Y-40302380D01*
X116190476Y-40302380D01*
X116285714Y-40350000D01*
X116333333Y-40397619D01*
X116380952Y-40492857D01*
X116380952Y-40635714D01*
X116333333Y-40730952D01*
X116285714Y-40778571D01*
X116190476Y-40826190D01*
X115809523Y-40826190D01*
X116809523Y-41302380D02*
X116809523Y-40635714D01*
X116809523Y-40826190D02*
X116857142Y-40730952D01*
X116904761Y-40683333D01*
X117000000Y-40635714D01*
X117095238Y-40635714D01*
X117809523Y-41254761D02*
X117714285Y-41302380D01*
X117523809Y-41302380D01*
X117428571Y-41254761D01*
X117380952Y-41159523D01*
X117380952Y-40778571D01*
X117428571Y-40683333D01*
X117523809Y-40635714D01*
X117714285Y-40635714D01*
X117809523Y-40683333D01*
X117857142Y-40778571D01*
X117857142Y-40873809D01*
X117380952Y-40969047D01*
X108595238Y-43333333D02*
X108547619Y-43285714D01*
X108452380Y-43142857D01*
X108404761Y-43047619D01*
X108357142Y-42904761D01*
X108309523Y-42666666D01*
X108309523Y-42476190D01*
X108357142Y-42238095D01*
X108404761Y-42095238D01*
X108452380Y-42000000D01*
X108547619Y-41857142D01*
X108595238Y-41809523D01*
X108976190Y-42952380D02*
X108976190Y-41952380D01*
X108976190Y-42333333D02*
X109071428Y-42285714D01*
X109261904Y-42285714D01*
X109357142Y-42333333D01*
X109404761Y-42380952D01*
X109452380Y-42476190D01*
X109452380Y-42761904D01*
X109404761Y-42857142D01*
X109357142Y-42904761D01*
X109261904Y-42952380D01*
X109071428Y-42952380D01*
X108976190Y-42904761D01*
X109785714Y-42285714D02*
X110023809Y-42952380D01*
X110261904Y-42285714D02*
X110023809Y-42952380D01*
X109928571Y-43190476D01*
X109880952Y-43238095D01*
X109785714Y-43285714D01*
X111309523Y-42952380D02*
X111833333Y-42285714D01*
X111309523Y-42285714D02*
X111833333Y-42952380D01*
X112214285Y-42952380D02*
X112214285Y-42285714D01*
X112214285Y-42476190D02*
X112261904Y-42380952D01*
X112309523Y-42333333D01*
X112404761Y-42285714D01*
X112500000Y-42285714D01*
X112833333Y-42952380D02*
X112833333Y-41952380D01*
X112928571Y-42571428D02*
X113214285Y-42952380D01*
X113214285Y-42285714D02*
X112833333Y-42666666D01*
X113690476Y-42952380D02*
X113880952Y-42952380D01*
X113976190Y-42904761D01*
X114023809Y-42857142D01*
X114119047Y-42714285D01*
X114166666Y-42523809D01*
X114166666Y-42142857D01*
X114119047Y-42047619D01*
X114071428Y-42000000D01*
X113976190Y-41952380D01*
X113785714Y-41952380D01*
X113690476Y-42000000D01*
X113642857Y-42047619D01*
X113595238Y-42142857D01*
X113595238Y-42380952D01*
X113642857Y-42476190D01*
X113690476Y-42523809D01*
X113785714Y-42571428D01*
X113976190Y-42571428D01*
X114071428Y-42523809D01*
X114119047Y-42476190D01*
X114166666Y-42380952D01*
X114500000Y-41952380D02*
X115166666Y-41952380D01*
X114738095Y-42952380D01*
X116071428Y-42952380D02*
X115500000Y-42952380D01*
X115785714Y-42952380D02*
X115785714Y-41952380D01*
X115690476Y-42095238D01*
X115595238Y-42190476D01*
X115500000Y-42238095D01*
X116404761Y-43333333D02*
X116452380Y-43285714D01*
X116547619Y-43142857D01*
X116595238Y-43047619D01*
X116642857Y-42904761D01*
X116690476Y-42666666D01*
X116690476Y-42476190D01*
X116642857Y-42238095D01*
X116595238Y-42095238D01*
X116547619Y-42000000D01*
X116452380Y-41857142D01*
X116404761Y-41809523D01*
X102679619Y-60793380D02*
X103012952Y-61793380D01*
X103346285Y-60793380D01*
X103679619Y-61412428D02*
X104441523Y-61412428D01*
X128428571Y-62302380D02*
X128333333Y-62254761D01*
X128285714Y-62207142D01*
X128238095Y-62111904D01*
X128238095Y-61826190D01*
X128285714Y-61730952D01*
X128333333Y-61683333D01*
X128428571Y-61635714D01*
X128571428Y-61635714D01*
X128666666Y-61683333D01*
X128714285Y-61730952D01*
X128761904Y-61826190D01*
X128761904Y-62111904D01*
X128714285Y-62207142D01*
X128666666Y-62254761D01*
X128571428Y-62302380D01*
X128428571Y-62302380D01*
X128714285Y-63285714D02*
X128714285Y-63952380D01*
X128285714Y-63285714D02*
X128285714Y-63809523D01*
X128333333Y-63904761D01*
X128428571Y-63952380D01*
X128571428Y-63952380D01*
X128666666Y-63904761D01*
X128714285Y-63857142D01*
X128309523Y-64935714D02*
X128690476Y-64935714D01*
X128452380Y-64602380D02*
X128452380Y-65459523D01*
X128500000Y-65554761D01*
X128595238Y-65602380D01*
X128690476Y-65602380D01*
X128166666Y-54627380D02*
X128500000Y-55627380D01*
X128833333Y-54627380D01*
X128119047Y-56896428D02*
X128880952Y-56896428D01*
X128500000Y-57277380D02*
X128500000Y-56515476D01*
X84095238Y-56904761D02*
X84095238Y-55571428D01*
X84095238Y-54904761D02*
X84000000Y-55000000D01*
X84095238Y-55095238D01*
X84190476Y-55000000D01*
X84095238Y-54904761D01*
X84095238Y-55095238D01*
X85047619Y-55571428D02*
X85047619Y-56904761D01*
X85047619Y-55761904D02*
X85142857Y-55666666D01*
X85333333Y-55571428D01*
X85619047Y-55571428D01*
X85809523Y-55666666D01*
X85904761Y-55857142D01*
X85904761Y-56904761D01*
D11*
%TO.C,C4*%
X101580000Y-47170000D02*
X101580000Y-42330000D01*
X106420000Y-47170000D02*
X106420000Y-42330000D01*
X101580000Y-47170000D02*
X106420000Y-47170000D01*
X101580000Y-42330000D02*
X106420000Y-42330000D01*
%TO.C,C3*%
X83580000Y-71670000D02*
X83580000Y-66830000D01*
X88420000Y-71670000D02*
X88420000Y-66830000D01*
X83580000Y-71670000D02*
X88420000Y-71670000D01*
X83580000Y-66830000D02*
X88420000Y-66830000D01*
D12*
%TO.C,C1*%
X73250000Y-68500000D02*
G75*
G03*
X73250000Y-68500000I-6250000J0D01*
G01*
%TO.C,C2*%
X129250000Y-46500000D02*
G75*
G03*
X129250000Y-46500000I-6250000J0D01*
G01*
D11*
%TO.C,SOIC-8*%
X92560000Y-57000000D02*
X92560000Y-55050000D01*
X92560000Y-57000000D02*
X92560000Y-58950000D01*
X87440000Y-57000000D02*
X87440000Y-55050000D01*
X87440000Y-57000000D02*
X87440000Y-60450000D01*
%TO.C,GND*%
X68620000Y-40970000D02*
X68620000Y-46990000D01*
X68620000Y-46990000D02*
X73920000Y-46990000D01*
X73920000Y-46990000D02*
X73920000Y-40970000D01*
X73920000Y-40970000D02*
X68620000Y-40970000D01*
X68330000Y-42000000D02*
X68330000Y-46000000D01*
X70000000Y-46990000D02*
X70000000Y-45990000D01*
X70000000Y-45990000D02*
X72540000Y-45990000D01*
X72540000Y-45990000D02*
X72540000Y-46990000D01*
X70000000Y-45990000D02*
X70250000Y-45460000D01*
X70250000Y-45460000D02*
X72290000Y-45460000D01*
X72290000Y-45460000D02*
X72540000Y-45990000D01*
X70250000Y-46990000D02*
X70250000Y-45990000D01*
X72290000Y-46990000D02*
X72290000Y-45990000D01*
X69200000Y-40970000D02*
X69200000Y-41570000D01*
X69200000Y-41570000D02*
X70800000Y-41570000D01*
X70800000Y-41570000D02*
X70800000Y-40970000D01*
X71740000Y-40970000D02*
X71740000Y-41570000D01*
X71740000Y-41570000D02*
X73340000Y-41570000D01*
X73340000Y-41570000D02*
X73340000Y-40970000D01*
%TO.C,C4*%
D10*
X100505047Y-49982380D02*
X99933619Y-49982380D01*
X100219333Y-49982380D02*
X100219333Y-48982380D01*
X100124095Y-49125238D01*
X100028857Y-49220476D01*
X99933619Y-49268095D01*
X101124095Y-48982380D02*
X101219333Y-48982380D01*
X101314571Y-49030000D01*
X101362190Y-49077619D01*
X101409809Y-49172857D01*
X101457428Y-49363333D01*
X101457428Y-49601428D01*
X101409809Y-49791904D01*
X101362190Y-49887142D01*
X101314571Y-49934761D01*
X101219333Y-49982380D01*
X101124095Y-49982380D01*
X101028857Y-49934761D01*
X100981238Y-49887142D01*
X100933619Y-49791904D01*
X100886000Y-49601428D01*
X100886000Y-49363333D01*
X100933619Y-49172857D01*
X100981238Y-49077619D01*
X101028857Y-49030000D01*
X101124095Y-48982380D01*
X102076476Y-48982380D02*
X102171714Y-48982380D01*
X102266952Y-49030000D01*
X102314571Y-49077619D01*
X102362190Y-49172857D01*
X102409809Y-49363333D01*
X102409809Y-49601428D01*
X102362190Y-49791904D01*
X102314571Y-49887142D01*
X102266952Y-49934761D01*
X102171714Y-49982380D01*
X102076476Y-49982380D01*
X101981238Y-49934761D01*
X101933619Y-49887142D01*
X101886000Y-49791904D01*
X101838380Y-49601428D01*
X101838380Y-49363333D01*
X101886000Y-49172857D01*
X101933619Y-49077619D01*
X101981238Y-49030000D01*
X102076476Y-48982380D01*
X102838380Y-49315714D02*
X102838380Y-49982380D01*
X102838380Y-49410952D02*
X102886000Y-49363333D01*
X102981238Y-49315714D01*
X103124095Y-49315714D01*
X103219333Y-49363333D01*
X103266952Y-49458571D01*
X103266952Y-49982380D01*
X104076476Y-49458571D02*
X103743142Y-49458571D01*
X103743142Y-49982380D02*
X103743142Y-48982380D01*
X104219333Y-48982380D01*
X105266952Y-48982380D02*
X105933619Y-49982380D01*
X105933619Y-48982380D02*
X105266952Y-49982380D01*
X106219333Y-48982380D02*
X106886000Y-48982380D01*
X106457428Y-49982380D01*
X107838380Y-49982380D02*
X107505047Y-49506190D01*
X107266952Y-49982380D02*
X107266952Y-48982380D01*
X107647904Y-48982380D01*
X107743142Y-49030000D01*
X107790761Y-49077619D01*
X107838380Y-49172857D01*
X107838380Y-49315714D01*
X107790761Y-49410952D01*
X107743142Y-49458571D01*
X107647904Y-49506190D01*
X107266952Y-49506190D01*
%TO.C,C3*%
X82598047Y-74366380D02*
X82026619Y-74366380D01*
X82312333Y-74366380D02*
X82312333Y-73366380D01*
X82217095Y-73509238D01*
X82121857Y-73604476D01*
X82026619Y-73652095D01*
X83217095Y-73366380D02*
X83312333Y-73366380D01*
X83407571Y-73414000D01*
X83455190Y-73461619D01*
X83502809Y-73556857D01*
X83550428Y-73747333D01*
X83550428Y-73985428D01*
X83502809Y-74175904D01*
X83455190Y-74271142D01*
X83407571Y-74318761D01*
X83312333Y-74366380D01*
X83217095Y-74366380D01*
X83121857Y-74318761D01*
X83074238Y-74271142D01*
X83026619Y-74175904D01*
X82979000Y-73985428D01*
X82979000Y-73747333D01*
X83026619Y-73556857D01*
X83074238Y-73461619D01*
X83121857Y-73414000D01*
X83217095Y-73366380D01*
X84169476Y-73366380D02*
X84264714Y-73366380D01*
X84359952Y-73414000D01*
X84407571Y-73461619D01*
X84455190Y-73556857D01*
X84502809Y-73747333D01*
X84502809Y-73985428D01*
X84455190Y-74175904D01*
X84407571Y-74271142D01*
X84359952Y-74318761D01*
X84264714Y-74366380D01*
X84169476Y-74366380D01*
X84074238Y-74318761D01*
X84026619Y-74271142D01*
X83979000Y-74175904D01*
X83931380Y-73985428D01*
X83931380Y-73747333D01*
X83979000Y-73556857D01*
X84026619Y-73461619D01*
X84074238Y-73414000D01*
X84169476Y-73366380D01*
X84931380Y-73699714D02*
X84931380Y-74366380D01*
X84931380Y-73794952D02*
X84979000Y-73747333D01*
X85074238Y-73699714D01*
X85217095Y-73699714D01*
X85312333Y-73747333D01*
X85359952Y-73842571D01*
X85359952Y-74366380D01*
X86169476Y-73842571D02*
X85836142Y-73842571D01*
X85836142Y-74366380D02*
X85836142Y-73366380D01*
X86312333Y-73366380D01*
X87359952Y-73366380D02*
X88026619Y-74366380D01*
X88026619Y-73366380D02*
X87359952Y-74366380D01*
X88312333Y-73366380D02*
X88979000Y-73366380D01*
X88550428Y-74366380D01*
X89931380Y-74366380D02*
X89598047Y-73890190D01*
X89359952Y-74366380D02*
X89359952Y-73366380D01*
X89740904Y-73366380D01*
X89836142Y-73414000D01*
X89883761Y-73461619D01*
X89931380Y-73556857D01*
X89931380Y-73699714D01*
X89883761Y-73794952D01*
X89836142Y-73842571D01*
X89740904Y-73890190D01*
X89359952Y-73890190D01*
%TO.C,C1*%
D13*
X62796904Y-69074523D02*
X62071190Y-69074523D01*
X62434047Y-69074523D02*
X62434047Y-67804523D01*
X62313095Y-67985952D01*
X62192142Y-68106904D01*
X62071190Y-68167380D01*
X63583095Y-67804523D02*
X63704047Y-67804523D01*
X63825000Y-67865000D01*
X63885476Y-67925476D01*
X63945952Y-68046428D01*
X64006428Y-68288333D01*
X64006428Y-68590714D01*
X63945952Y-68832619D01*
X63885476Y-68953571D01*
X63825000Y-69014047D01*
X63704047Y-69074523D01*
X63583095Y-69074523D01*
X63462142Y-69014047D01*
X63401666Y-68953571D01*
X63341190Y-68832619D01*
X63280714Y-68590714D01*
X63280714Y-68288333D01*
X63341190Y-68046428D01*
X63401666Y-67925476D01*
X63462142Y-67865000D01*
X63583095Y-67804523D01*
X64792619Y-67804523D02*
X64913571Y-67804523D01*
X65034523Y-67865000D01*
X65095000Y-67925476D01*
X65155476Y-68046428D01*
X65215952Y-68288333D01*
X65215952Y-68590714D01*
X65155476Y-68832619D01*
X65095000Y-68953571D01*
X65034523Y-69014047D01*
X64913571Y-69074523D01*
X64792619Y-69074523D01*
X64671666Y-69014047D01*
X64611190Y-68953571D01*
X64550714Y-68832619D01*
X64490238Y-68590714D01*
X64490238Y-68288333D01*
X64550714Y-68046428D01*
X64611190Y-67925476D01*
X64671666Y-67865000D01*
X64792619Y-67804523D01*
X66304523Y-68227857D02*
X66304523Y-69074523D01*
X65760238Y-68227857D02*
X65760238Y-68893095D01*
X65820714Y-69014047D01*
X65941666Y-69074523D01*
X66123095Y-69074523D01*
X66244047Y-69014047D01*
X66304523Y-68953571D01*
X67332619Y-68409285D02*
X66909285Y-68409285D01*
X66909285Y-69074523D02*
X66909285Y-67804523D01*
X67514047Y-67804523D01*
X68844523Y-67804523D02*
X69630714Y-67804523D01*
X69207380Y-68288333D01*
X69388809Y-68288333D01*
X69509761Y-68348809D01*
X69570238Y-68409285D01*
X69630714Y-68530238D01*
X69630714Y-68832619D01*
X69570238Y-68953571D01*
X69509761Y-69014047D01*
X69388809Y-69074523D01*
X69025952Y-69074523D01*
X68905000Y-69014047D01*
X68844523Y-68953571D01*
X70779761Y-67804523D02*
X70175000Y-67804523D01*
X70114523Y-68409285D01*
X70175000Y-68348809D01*
X70295952Y-68288333D01*
X70598333Y-68288333D01*
X70719285Y-68348809D01*
X70779761Y-68409285D01*
X70840238Y-68530238D01*
X70840238Y-68832619D01*
X70779761Y-68953571D01*
X70719285Y-69014047D01*
X70598333Y-69074523D01*
X70295952Y-69074523D01*
X70175000Y-69014047D01*
X70114523Y-68953571D01*
X71203095Y-67804523D02*
X71626428Y-69074523D01*
X72049761Y-67804523D01*
%TO.C,C2*%
X118796904Y-47074523D02*
X118071190Y-47074523D01*
X118434047Y-47074523D02*
X118434047Y-45804523D01*
X118313095Y-45985952D01*
X118192142Y-46106904D01*
X118071190Y-46167380D01*
X119583095Y-45804523D02*
X119704047Y-45804523D01*
X119825000Y-45865000D01*
X119885476Y-45925476D01*
X119945952Y-46046428D01*
X120006428Y-46288333D01*
X120006428Y-46590714D01*
X119945952Y-46832619D01*
X119885476Y-46953571D01*
X119825000Y-47014047D01*
X119704047Y-47074523D01*
X119583095Y-47074523D01*
X119462142Y-47014047D01*
X119401666Y-46953571D01*
X119341190Y-46832619D01*
X119280714Y-46590714D01*
X119280714Y-46288333D01*
X119341190Y-46046428D01*
X119401666Y-45925476D01*
X119462142Y-45865000D01*
X119583095Y-45804523D01*
X120792619Y-45804523D02*
X120913571Y-45804523D01*
X121034523Y-45865000D01*
X121095000Y-45925476D01*
X121155476Y-46046428D01*
X121215952Y-46288333D01*
X121215952Y-46590714D01*
X121155476Y-46832619D01*
X121095000Y-46953571D01*
X121034523Y-47014047D01*
X120913571Y-47074523D01*
X120792619Y-47074523D01*
X120671666Y-47014047D01*
X120611190Y-46953571D01*
X120550714Y-46832619D01*
X120490238Y-46590714D01*
X120490238Y-46288333D01*
X120550714Y-46046428D01*
X120611190Y-45925476D01*
X120671666Y-45865000D01*
X120792619Y-45804523D01*
X122304523Y-46227857D02*
X122304523Y-47074523D01*
X121760238Y-46227857D02*
X121760238Y-46893095D01*
X121820714Y-47014047D01*
X121941666Y-47074523D01*
X122123095Y-47074523D01*
X122244047Y-47014047D01*
X122304523Y-46953571D01*
X123332619Y-46409285D02*
X122909285Y-46409285D01*
X122909285Y-47074523D02*
X122909285Y-45804523D01*
X123514047Y-45804523D01*
X124844523Y-45804523D02*
X125630714Y-45804523D01*
X125207380Y-46288333D01*
X125388809Y-46288333D01*
X125509761Y-46348809D01*
X125570238Y-46409285D01*
X125630714Y-46530238D01*
X125630714Y-46832619D01*
X125570238Y-46953571D01*
X125509761Y-47014047D01*
X125388809Y-47074523D01*
X125025952Y-47074523D01*
X124905000Y-47014047D01*
X124844523Y-46953571D01*
X126779761Y-45804523D02*
X126175000Y-45804523D01*
X126114523Y-46409285D01*
X126175000Y-46348809D01*
X126295952Y-46288333D01*
X126598333Y-46288333D01*
X126719285Y-46348809D01*
X126779761Y-46409285D01*
X126840238Y-46530238D01*
X126840238Y-46832619D01*
X126779761Y-46953571D01*
X126719285Y-47014047D01*
X126598333Y-47074523D01*
X126295952Y-47074523D01*
X126175000Y-47014047D01*
X126114523Y-46953571D01*
X127203095Y-45804523D02*
X127626428Y-47074523D01*
X128049761Y-45804523D01*
%TO.C,SOIC-8*%
D10*
X87357142Y-57404761D02*
X87500000Y-57452380D01*
X87738095Y-57452380D01*
X87833333Y-57404761D01*
X87880952Y-57357142D01*
X87928571Y-57261904D01*
X87928571Y-57166666D01*
X87880952Y-57071428D01*
X87833333Y-57023809D01*
X87738095Y-56976190D01*
X87547619Y-56928571D01*
X87452380Y-56880952D01*
X87404761Y-56833333D01*
X87357142Y-56738095D01*
X87357142Y-56642857D01*
X87404761Y-56547619D01*
X87452380Y-56500000D01*
X87547619Y-56452380D01*
X87785714Y-56452380D01*
X87928571Y-56500000D01*
X88547619Y-56452380D02*
X88738095Y-56452380D01*
X88833333Y-56500000D01*
X88928571Y-56595238D01*
X88976190Y-56785714D01*
X88976190Y-57119047D01*
X88928571Y-57309523D01*
X88833333Y-57404761D01*
X88738095Y-57452380D01*
X88547619Y-57452380D01*
X88452380Y-57404761D01*
X88357142Y-57309523D01*
X88309523Y-57119047D01*
X88309523Y-56785714D01*
X88357142Y-56595238D01*
X88452380Y-56500000D01*
X88547619Y-56452380D01*
X89404761Y-57452380D02*
X89404761Y-56452380D01*
X90452380Y-57357142D02*
X90404761Y-57404761D01*
X90261904Y-57452380D01*
X90166666Y-57452380D01*
X90023809Y-57404761D01*
X89928571Y-57309523D01*
X89880952Y-57214285D01*
X89833333Y-57023809D01*
X89833333Y-56880952D01*
X89880952Y-56690476D01*
X89928571Y-56595238D01*
X90023809Y-56500000D01*
X90166666Y-56452380D01*
X90261904Y-56452380D01*
X90404761Y-56500000D01*
X90452380Y-56547619D01*
X90880952Y-57071428D02*
X91642857Y-57071428D01*
X92261904Y-56880952D02*
X92166666Y-56833333D01*
X92119047Y-56785714D01*
X92071428Y-56690476D01*
X92071428Y-56642857D01*
X92119047Y-56547619D01*
X92166666Y-56500000D01*
X92261904Y-56452380D01*
X92452380Y-56452380D01*
X92547619Y-56500000D01*
X92595238Y-56547619D01*
X92642857Y-56642857D01*
X92642857Y-56690476D01*
X92595238Y-56785714D01*
X92547619Y-56833333D01*
X92452380Y-56880952D01*
X92261904Y-56880952D01*
X92166666Y-56928571D01*
X92119047Y-56976190D01*
X92071428Y-57071428D01*
X92071428Y-57261904D01*
X92119047Y-57357142D01*
X92166666Y-57404761D01*
X92261904Y-57452380D01*
X92452380Y-57452380D01*
X92547619Y-57404761D01*
X92595238Y-57357142D01*
X92642857Y-57261904D01*
X92642857Y-57071428D01*
X92595238Y-56976190D01*
X92547619Y-56928571D01*
X92452380Y-56880952D01*
%TO.C,H5*%
X66294095Y-47125000D02*
X66198857Y-47077380D01*
X66056000Y-47077380D01*
X65913142Y-47125000D01*
X65817904Y-47220238D01*
X65770285Y-47315476D01*
X65722666Y-47505952D01*
X65722666Y-47648809D01*
X65770285Y-47839285D01*
X65817904Y-47934523D01*
X65913142Y-48029761D01*
X66056000Y-48077380D01*
X66151238Y-48077380D01*
X66294095Y-48029761D01*
X66341714Y-47982142D01*
X66341714Y-47648809D01*
X66151238Y-47648809D01*
X66770285Y-48077380D02*
X66770285Y-47077380D01*
X67341714Y-48077380D01*
X67341714Y-47077380D01*
X67817904Y-48077380D02*
X67817904Y-47077380D01*
X68056000Y-47077380D01*
X68198857Y-47125000D01*
X68294095Y-47220238D01*
X68341714Y-47315476D01*
X68389333Y-47505952D01*
X68389333Y-47648809D01*
X68341714Y-47839285D01*
X68294095Y-47934523D01*
X68198857Y-48029761D01*
X68056000Y-48077380D01*
X67817904Y-48077380D01*
%TO.C,H1*%
X114109619Y-49109380D02*
X114442952Y-50109380D01*
X114776285Y-49109380D01*
X115109619Y-49728428D02*
X115871523Y-49728428D01*
X115490571Y-50109380D02*
X115490571Y-49347476D01*
%TO.C,H2*%
X80454619Y-67016380D02*
X80787952Y-68016380D01*
X81121285Y-67016380D01*
X81454619Y-67635428D02*
X82216523Y-67635428D01*
%TO.C,H3*%
X79938619Y-48712380D02*
X79938619Y-48045714D01*
X79938619Y-47712380D02*
X79891000Y-47760000D01*
X79938619Y-47807619D01*
X79986238Y-47760000D01*
X79938619Y-47712380D01*
X79938619Y-47807619D01*
X80414809Y-48045714D02*
X80414809Y-48712380D01*
X80414809Y-48140952D02*
X80462428Y-48093333D01*
X80557666Y-48045714D01*
X80700523Y-48045714D01*
X80795761Y-48093333D01*
X80843380Y-48188571D01*
X80843380Y-48712380D01*
%TO.C,H4*%
X114125476Y-69032380D02*
X114030238Y-68984761D01*
X113982619Y-68937142D01*
X113935000Y-68841904D01*
X113935000Y-68556190D01*
X113982619Y-68460952D01*
X114030238Y-68413333D01*
X114125476Y-68365714D01*
X114268333Y-68365714D01*
X114363571Y-68413333D01*
X114411190Y-68460952D01*
X114458809Y-68556190D01*
X114458809Y-68841904D01*
X114411190Y-68937142D01*
X114363571Y-68984761D01*
X114268333Y-69032380D01*
X114125476Y-69032380D01*
X115315952Y-68365714D02*
X115315952Y-69032380D01*
X114887380Y-68365714D02*
X114887380Y-68889523D01*
X114935000Y-68984761D01*
X115030238Y-69032380D01*
X115173095Y-69032380D01*
X115268333Y-68984761D01*
X115315952Y-68937142D01*
X115649285Y-68365714D02*
X116030238Y-68365714D01*
X115792142Y-68032380D02*
X115792142Y-68889523D01*
X115839761Y-68984761D01*
X115935000Y-69032380D01*
X116030238Y-69032380D01*
%TO.C,GND*%
X70485095Y-47252000D02*
X70389857Y-47204380D01*
X70247000Y-47204380D01*
X70104142Y-47252000D01*
X70008904Y-47347238D01*
X69961285Y-47442476D01*
X69913666Y-47632952D01*
X69913666Y-47775809D01*
X69961285Y-47966285D01*
X70008904Y-48061523D01*
X70104142Y-48156761D01*
X70247000Y-48204380D01*
X70342238Y-48204380D01*
X70485095Y-48156761D01*
X70532714Y-48109142D01*
X70532714Y-47775809D01*
X70342238Y-47775809D01*
X70961285Y-48204380D02*
X70961285Y-47204380D01*
X71532714Y-48204380D01*
X71532714Y-47204380D01*
X72008904Y-48204380D02*
X72008904Y-47204380D01*
X72247000Y-47204380D01*
X72389857Y-47252000D01*
X72485095Y-47347238D01*
X72532714Y-47442476D01*
X72580333Y-47632952D01*
X72580333Y-47775809D01*
X72532714Y-47966285D01*
X72485095Y-48061523D01*
X72389857Y-48156761D01*
X72247000Y-48204380D01*
X72008904Y-48204380D01*
%TD*%
M02*
