%TF.GenerationSoftware,KiCad,Pcbnew,(5.1.9)-1*%
%TF.CreationDate,2021-06-06T23:04:23+02:00*%
%TF.ProjectId,Yarra_Experimenter,59617272-615f-4457-9870-6572696d656e,rev?*%
%TF.SameCoordinates,Original*%
%TF.FileFunction,Paste,Bot*%
%TF.FilePolarity,Positive*%
%FSLAX46Y46*%
G04 Gerber Fmt 4.6, Leading zero omitted, Abs format (unit mm)*
G04 Created by KiCad (PCBNEW (5.1.9)-1) date 2021-06-06 23:04:23*
%MOMM*%
%LPD*%
G01*
G04 APERTURE LIST*
%ADD10R,0.635000X0.635000*%
G04 APERTURE END LIST*
D10*
%TO.C,REF\u002A\u002A*%
X89452500Y-45722500D03*
X88817500Y-45722500D03*
X87547500Y-45722500D03*
X86912500Y-45722500D03*
X86277500Y-45087500D03*
X86277500Y-44452500D03*
X90087500Y-45087500D03*
X90087500Y-44452500D03*
X91357500Y-45087500D03*
X91357500Y-44452500D03*
X85007500Y-45087500D03*
X85007500Y-44452500D03*
X85007500Y-43817500D03*
X85642500Y-43817500D03*
X86277500Y-43817500D03*
X86912500Y-43817500D03*
X87547500Y-43817500D03*
X88182500Y-43817500D03*
X88817500Y-43817500D03*
X89452500Y-43817500D03*
X90087500Y-43817500D03*
X90722500Y-43817500D03*
X91357500Y-43817500D03*
X90087500Y-41277500D03*
X86277500Y-41277500D03*
X86912500Y-41912500D03*
X89452500Y-41912500D03*
X86277500Y-42547500D03*
X86912500Y-42547500D03*
X87547500Y-42547500D03*
X88182500Y-42547500D03*
X88817500Y-42547500D03*
X89452500Y-42547500D03*
X90087500Y-42547500D03*
X90722500Y-43182500D03*
X90087500Y-43182500D03*
X85642500Y-43182500D03*
X86277500Y-43182500D03*
X88817500Y-43182500D03*
X87547500Y-43182500D03*
X88182500Y-43182500D03*
%TD*%
M02*
