%TF.GenerationSoftware,KiCad,Pcbnew,(5.1.9)-1*%
%TF.CreationDate,2021-06-06T23:04:22+02:00*%
%TF.ProjectId,Yarra_Experimenter,59617272-615f-4457-9870-6572696d656e,rev?*%
%TF.SameCoordinates,Original*%
%TF.FileFunction,Copper,L2,Bot*%
%TF.FilePolarity,Positive*%
%FSLAX46Y46*%
G04 Gerber Fmt 4.6, Leading zero omitted, Abs format (unit mm)*
G04 Created by KiCad (PCBNEW (5.1.9)-1) date 2021-06-06 23:04:22*
%MOMM*%
%LPD*%
G01*
G04 APERTURE LIST*
%TA.AperFunction,ComponentPad*%
%ADD10C,1.200000*%
%TD*%
%TA.AperFunction,ComponentPad*%
%ADD11C,2.000000*%
%TD*%
%TA.AperFunction,SMDPad,CuDef*%
%ADD12R,0.635000X0.635000*%
%TD*%
%TA.AperFunction,ComponentPad*%
%ADD13C,1.400000*%
%TD*%
%TA.AperFunction,ComponentPad*%
%ADD14C,1.575000*%
%TD*%
%TA.AperFunction,ComponentPad*%
%ADD15R,1.575000X1.575000*%
%TD*%
%TA.AperFunction,ConnectorPad*%
%ADD16C,6.400000*%
%TD*%
%TA.AperFunction,ComponentPad*%
%ADD17C,3.600000*%
%TD*%
%TA.AperFunction,ComponentPad*%
%ADD18O,1.740000X2.190000*%
%TD*%
%TA.AperFunction,ViaPad*%
%ADD19C,0.500000*%
%TD*%
%TA.AperFunction,Conductor*%
%ADD20C,1.000000*%
%TD*%
%TA.AperFunction,Conductor*%
%ADD21C,0.254000*%
%TD*%
%TA.AperFunction,Conductor*%
%ADD22C,0.100000*%
%TD*%
G04 APERTURE END LIST*
D10*
%TO.P,REF\u002A\u002A,1*%
%TO.N,GNDREF*%
X83790000Y-64500000D03*
%TD*%
%TO.P,REF\u002A\u002A,1*%
%TO.N,GNDREF*%
X82520000Y-64500000D03*
%TD*%
%TO.P,REF\u002A\u002A,1*%
%TO.N,GNDREF*%
X81250000Y-64500000D03*
%TD*%
%TO.P,REF\u002A\u002A,1*%
%TO.N,N/C*%
X71120000Y-53340000D03*
%TD*%
%TO.P,REF\u002A\u002A,1*%
%TO.N,N/C*%
X69850000Y-53340000D03*
%TD*%
%TO.P,REF\u002A\u002A,1*%
%TO.N,N/C*%
X68580000Y-53340000D03*
%TD*%
%TO.P,REF\u002A\u002A,1*%
%TO.N,N/C*%
X72390000Y-53340000D03*
%TD*%
%TO.P,REF\u002A\u002A,1*%
%TO.N,N/C*%
X76200000Y-53340000D03*
%TD*%
%TO.P,REF\u002A\u002A,1*%
%TO.N,N/C*%
X74930000Y-53340000D03*
%TD*%
%TO.P,REF\u002A\u002A,1*%
%TO.N,N/C*%
X77470000Y-53340000D03*
%TD*%
D11*
%TO.P,REF\u002A\u002A,1*%
%TO.N,GNDREF*%
X108204000Y-66802000D03*
%TD*%
D12*
%TO.P,REF\u002A\u002A,1*%
%TO.N,N/C*%
X89452500Y-45722500D03*
X88817500Y-45722500D03*
X87547500Y-45722500D03*
X86912500Y-45722500D03*
X86277500Y-45087500D03*
X86277500Y-44452500D03*
X90087500Y-45087500D03*
X90087500Y-44452500D03*
X91357500Y-45087500D03*
X91357500Y-44452500D03*
X85007500Y-45087500D03*
X85007500Y-44452500D03*
X85007500Y-43817500D03*
X85642500Y-43817500D03*
X86277500Y-43817500D03*
X86912500Y-43817500D03*
X87547500Y-43817500D03*
X88182500Y-43817500D03*
X88817500Y-43817500D03*
X89452500Y-43817500D03*
X90087500Y-43817500D03*
X90722500Y-43817500D03*
X91357500Y-43817500D03*
X90087500Y-41277500D03*
X86277500Y-41277500D03*
X86912500Y-41912500D03*
X89452500Y-41912500D03*
X86277500Y-42547500D03*
X86912500Y-42547500D03*
X87547500Y-42547500D03*
X88182500Y-42547500D03*
X88817500Y-42547500D03*
X89452500Y-42547500D03*
X90087500Y-42547500D03*
X90722500Y-43182500D03*
X90087500Y-43182500D03*
X85642500Y-43182500D03*
X86277500Y-43182500D03*
X88817500Y-43182500D03*
X87547500Y-43182500D03*
X88182500Y-43182500D03*
%TD*%
D10*
%TO.P,REF\u002A\u002A,1*%
%TO.N,Net-(C2-Pad1)*%
X77470000Y-60960000D03*
%TD*%
%TO.P,REF\u002A\u002A,1*%
%TO.N,Net-(C2-Pad1)*%
X76200000Y-60960000D03*
%TD*%
%TO.P,REF\u002A\u002A,1*%
%TO.N,Net-(C2-Pad1)*%
X74930000Y-60960000D03*
%TD*%
%TO.P,REF\u002A\u002A,1*%
%TO.N,Net-(C2-Pad1)*%
X73660000Y-60960000D03*
%TD*%
%TO.P,REF\u002A\u002A,1*%
%TO.N,Net-(C2-Pad1)*%
X72390000Y-60960000D03*
%TD*%
%TO.P,REF\u002A\u002A,1*%
%TO.N,Net-(C2-Pad1)*%
X71120000Y-60960000D03*
%TD*%
%TO.P,REF\u002A\u002A,1*%
%TO.N,Net-(C2-Pad1)*%
X69850000Y-60960000D03*
%TD*%
D11*
%TO.P,REF\u002A\u002A,1*%
%TO.N,Net-(C1-Pad2)*%
X91000000Y-71000000D03*
%TD*%
%TO.P,REF\u002A\u002A,1*%
%TO.N,N/C*%
X119856000Y-66167000D03*
%TD*%
%TO.P,REF\u002A\u002A,1*%
%TO.N,N/C*%
X119856000Y-63627000D03*
%TD*%
%TO.P,REF\u002A\u002A,1*%
%TO.N,N/C*%
X120999000Y-60706000D03*
%TD*%
%TO.P,REF\u002A\u002A,1*%
%TO.N,N/C*%
X120999000Y-55626000D03*
%TD*%
%TO.P,REF\u002A\u002A,1*%
%TO.N,N/C*%
X120999000Y-58166000D03*
%TD*%
%TO.P,REF\u002A\u002A,1*%
%TO.N,N/C*%
X114776000Y-66167000D03*
%TD*%
%TO.P,REF\u002A\u002A,1*%
%TO.N,N/C*%
X117316000Y-66167000D03*
%TD*%
%TO.P,REF\u002A\u002A,1*%
%TO.N,GNDREF*%
X109506000Y-64516000D03*
%TD*%
%TO.P,REF\u002A\u002A,1*%
%TO.N,N/C*%
X114776000Y-63627000D03*
%TD*%
%TO.P,REF\u002A\u002A,1*%
%TO.N,N/C*%
X117316000Y-63627000D03*
%TD*%
%TO.P,REF\u002A\u002A,1*%
%TO.N,N/C*%
X113379000Y-60706000D03*
%TD*%
%TO.P,REF\u002A\u002A,1*%
%TO.N,N/C*%
X115919000Y-60706000D03*
%TD*%
%TO.P,REF\u002A\u002A,1*%
%TO.N,N/C*%
X118459000Y-60706000D03*
%TD*%
%TO.P,REF\u002A\u002A,1*%
%TO.N,N/C*%
X113379000Y-58166000D03*
%TD*%
%TO.P,REF\u002A\u002A,1*%
%TO.N,N/C*%
X115919000Y-58166000D03*
%TD*%
%TO.P,REF\u002A\u002A,1*%
%TO.N,N/C*%
X118459000Y-58166000D03*
%TD*%
%TO.P,REF\u002A\u002A,1*%
%TO.N,N/C*%
X113379000Y-55626000D03*
%TD*%
%TO.P,REF\u002A\u002A,1*%
%TO.N,N/C*%
X115919000Y-55626000D03*
%TD*%
%TO.P,REF\u002A\u002A,1*%
%TO.N,N/C*%
X118459000Y-55626000D03*
%TD*%
%TO.P,REF\u002A\u002A,1*%
%TO.N,N/C*%
X104870000Y-53086000D03*
%TD*%
%TO.P,REF\u002A\u002A,1*%
%TO.N,N/C*%
X104870000Y-58166000D03*
%TD*%
%TO.P,REF\u002A\u002A,1*%
%TO.N,N/C*%
X104870000Y-55626000D03*
%TD*%
%TO.P,REF\u002A\u002A,1*%
%TO.N,N/C*%
X102330000Y-53086000D03*
%TD*%
%TO.P,REF\u002A\u002A,1*%
%TO.N,N/C*%
X102330000Y-58166000D03*
%TD*%
%TO.P,REF\u002A\u002A,1*%
%TO.N,N/C*%
X102330000Y-55626000D03*
%TD*%
%TO.P,REF\u002A\u002A,1*%
%TO.N,N/C*%
X99790000Y-53086000D03*
%TD*%
%TO.P,REF\u002A\u002A,1*%
%TO.N,N/C*%
X99790000Y-55626000D03*
%TD*%
%TO.P,REF\u002A\u002A,1*%
%TO.N,N/C*%
X99790000Y-58166000D03*
%TD*%
%TO.P,REF\u002A\u002A,1*%
%TO.N,N/C*%
X118459000Y-53086000D03*
%TD*%
%TO.P,REF\u002A\u002A,1*%
%TO.N,N/C*%
X115919000Y-53086000D03*
%TD*%
%TO.P,REF\u002A\u002A,1*%
%TO.N,N/C*%
X113379000Y-53086000D03*
%TD*%
%TO.P,REF\u002A\u002A,1*%
%TO.N,N/C*%
X110839000Y-53086000D03*
%TD*%
%TO.P,REF\u002A\u002A,1*%
%TO.N,GNDREF*%
X106966000Y-64516000D03*
%TD*%
%TO.P,REF\u002A\u002A,1*%
%TO.N,N/C*%
X110839000Y-60706000D03*
%TD*%
%TO.P,REF\u002A\u002A,1*%
%TO.N,N/C*%
X110839000Y-58166000D03*
%TD*%
%TO.P,REF\u002A\u002A,1*%
%TO.N,N/C*%
X110839000Y-55626000D03*
%TD*%
%TO.P,REF\u002A\u002A,1*%
%TO.N,N/C*%
X97250000Y-58166000D03*
%TD*%
%TO.P,REF\u002A\u002A,1*%
%TO.N,N/C*%
X97250000Y-55626000D03*
%TD*%
%TO.P,REF\u002A\u002A,1*%
%TO.N,N/C*%
X97250000Y-53086000D03*
%TD*%
D10*
%TO.P,REF\u002A\u002A,1*%
%TO.N,N/C*%
X77470000Y-58420000D03*
%TD*%
%TO.P,REF\u002A\u002A,1*%
%TO.N,N/C*%
X71120000Y-55880000D03*
%TD*%
%TO.P,REF\u002A\u002A,1*%
%TO.N,N/C*%
X71120000Y-50800000D03*
%TD*%
%TO.P,REF\u002A\u002A,1*%
%TO.N,N/C*%
X68580000Y-50800000D03*
%TD*%
%TO.P,REF\u002A\u002A,1*%
%TO.N,N/C*%
X68580000Y-50800000D03*
%TD*%
%TO.P,REF\u002A\u002A,1*%
%TO.N,N/C*%
X69850000Y-50800000D03*
%TD*%
%TO.P,REF\u002A\u002A,1*%
%TO.N,N/C*%
X69850000Y-50800000D03*
%TD*%
%TO.P,REF\u002A\u002A,1*%
%TO.N,N/C*%
X68580000Y-55880000D03*
%TD*%
%TO.P,REF\u002A\u002A,1*%
%TO.N,N/C*%
X68580000Y-55880000D03*
%TD*%
%TO.P,REF\u002A\u002A,1*%
%TO.N,N/C*%
X69850000Y-55880000D03*
%TD*%
%TO.P,REF\u002A\u002A,1*%
%TO.N,N/C*%
X69850000Y-55880000D03*
%TD*%
%TO.P,REF\u002A\u002A,1*%
%TO.N,Net-(C2-Pad1)*%
X68580000Y-60960000D03*
%TD*%
%TO.P,REF\u002A\u002A,1*%
%TO.N,GNDREF*%
X96520000Y-64500000D03*
%TD*%
%TO.P,REF\u002A\u002A,1*%
%TO.N,GNDREF*%
X97790000Y-64500000D03*
%TD*%
%TO.P,REF\u002A\u002A,1*%
%TO.N,GNDREF*%
X95250000Y-64500000D03*
%TD*%
%TO.P,REF\u002A\u002A,1*%
%TO.N,Net-(C1-Pad2)*%
X74680000Y-64460000D03*
%TD*%
%TO.P,REF\u002A\u002A,1*%
%TO.N,Net-(C1-Pad2)*%
X77220000Y-64460000D03*
%TD*%
%TO.P,REF\u002A\u002A,1*%
%TO.N,Net-(C1-Pad2)*%
X75950000Y-64460000D03*
%TD*%
%TO.P,REF\u002A\u002A,1*%
%TO.N,N/C*%
X68580000Y-58420000D03*
%TD*%
%TO.P,REF\u002A\u002A,1*%
%TO.N,N/C*%
X71120000Y-58420000D03*
%TD*%
%TO.P,REF\u002A\u002A,1*%
%TO.N,N/C*%
X69850000Y-58420000D03*
%TD*%
%TO.P,REF\u002A\u002A,1*%
%TO.N,N/C*%
X76200000Y-58420000D03*
%TD*%
%TO.P,REF\u002A\u002A,1*%
%TO.N,N/C*%
X74930000Y-58420000D03*
%TD*%
%TO.P,REF\u002A\u002A,1*%
%TO.N,N/C*%
X72390000Y-58420000D03*
%TD*%
%TO.P,REF\u002A\u002A,1*%
%TO.N,N/C*%
X77470000Y-50800000D03*
%TD*%
%TO.P,REF\u002A\u002A,1*%
%TO.N,N/C*%
X76200000Y-50800000D03*
%TD*%
%TO.P,REF\u002A\u002A,1*%
%TO.N,N/C*%
X73660000Y-50800000D03*
%TD*%
%TO.P,REF\u002A\u002A,1*%
%TO.N,N/C*%
X72390000Y-50800000D03*
%TD*%
%TO.P,REF\u002A\u002A,1*%
%TO.N,N/C*%
X74930000Y-50800000D03*
%TD*%
%TO.P,REF\u002A\u002A,1*%
%TO.N,Net-(H3-Pad1)*%
X82550000Y-55880000D03*
%TD*%
%TO.P,REF\u002A\u002A,1*%
%TO.N,Net-(H3-Pad1)*%
X82550000Y-50800000D03*
%TD*%
%TO.P,REF\u002A\u002A,1*%
%TO.N,Net-(H3-Pad1)*%
X82550000Y-53340000D03*
%TD*%
D11*
%TO.P,REF\u002A\u002A,1*%
%TO.N,Net-(C2-Pad1)*%
X100000000Y-47000000D03*
%TD*%
%TO.P,REF\u002A\u002A,1*%
%TO.N,Net-(C2-Pad1)*%
X97000000Y-47000000D03*
%TD*%
%TO.P,REF\u002A\u002A,1*%
%TO.N,Net-(C2-Pad1)*%
X94000000Y-47000000D03*
%TD*%
D10*
%TO.P,REF\u002A\u002A,1*%
%TO.N,N/C*%
X77470000Y-55880000D03*
%TD*%
%TO.P,REF\u002A\u002A,1*%
%TO.N,N/C*%
X76200000Y-55880000D03*
%TD*%
%TO.P,REF\u002A\u002A,1*%
%TO.N,N/C*%
X72390000Y-55880000D03*
%TD*%
D11*
%TO.P,REF\u002A\u002A,1*%
%TO.N,GNDREF*%
X64000000Y-61000000D03*
%TD*%
%TO.P,REF\u002A\u002A,1*%
%TO.N,GNDREF*%
X64000000Y-58000000D03*
%TD*%
%TO.P,REF\u002A\u002A,1*%
%TO.N,GNDREF*%
X64000000Y-52000000D03*
%TD*%
%TO.P,REF\u002A\u002A,1*%
%TO.N,GNDREF*%
X64000000Y-55000000D03*
%TD*%
%TO.P,REF\u002A\u002A,1*%
%TO.N,GNDREF*%
X64000000Y-49000000D03*
%TD*%
%TO.P,REF\u002A\u002A,1*%
%TO.N,Net-(C1-Pad2)*%
X95000000Y-71000000D03*
%TD*%
%TO.P,REF\u002A\u002A,1*%
%TO.N,Net-(C1-Pad2)*%
X101000000Y-62000000D03*
%TD*%
%TO.P,REF\u002A\u002A,1*%
%TO.N,Net-(C1-Pad2)*%
X101000000Y-68000000D03*
%TD*%
%TO.P,REF\u002A\u002A,1*%
%TO.N,Net-(C1-Pad2)*%
X101000000Y-64500000D03*
%TD*%
D10*
%TO.P,REF\u002A\u002A,1*%
%TO.N,Net-(C2-Pad1)*%
X104000000Y-48000000D03*
%TD*%
%TO.P,REF\u002A\u002A,1*%
%TO.N,Net-(C2-Pad1)*%
X104000000Y-47000000D03*
%TD*%
%TO.P,REF\u002A\u002A,1*%
%TO.N,GNDREF*%
X104000000Y-41500000D03*
%TD*%
%TO.P,REF\u002A\u002A,1*%
%TO.N,GNDREF*%
X104000000Y-42500000D03*
%TD*%
D13*
%TO.P,C4,2*%
%TO.N,GNDREF*%
X104000000Y-43500000D03*
%TO.P,C4,1*%
%TO.N,Net-(C2-Pad1)*%
X104000000Y-46000000D03*
%TD*%
%TO.P,C3,2*%
%TO.N,GNDREF*%
X86000000Y-68000000D03*
%TO.P,C3,1*%
%TO.N,Net-(C1-Pad2)*%
X86000000Y-70500000D03*
%TD*%
D11*
%TO.P,REF\u002A\u002A,1*%
%TO.N,GNDREF*%
X123000000Y-42000000D03*
%TD*%
D10*
%TO.P,REF\u002A\u002A,1*%
%TO.N,N/C*%
X73660000Y-55880000D03*
%TD*%
%TO.P,REF\u002A\u002A,1*%
%TO.N,N/C*%
X74930000Y-55880000D03*
%TD*%
D14*
%TO.P,C1,2*%
%TO.N,Net-(C1-Pad2)*%
X67000000Y-71000000D03*
D15*
%TO.P,C1,1*%
%TO.N,GNDREF*%
X67000000Y-66000000D03*
%TD*%
D14*
%TO.P,C2,2*%
%TO.N,GNDREF*%
X123000000Y-44000000D03*
D15*
%TO.P,C2,1*%
%TO.N,Net-(C2-Pad1)*%
X123000000Y-49000000D03*
%TD*%
D10*
%TO.P,REF\u002A\u002A,1*%
%TO.N,N/C*%
X93000000Y-62000000D03*
%TD*%
%TO.P,REF\u002A\u002A,1*%
%TO.N,N/C*%
X91000000Y-62000000D03*
%TD*%
%TO.P,REF\u002A\u002A,1*%
%TO.N,N/C*%
X89000000Y-62000000D03*
%TD*%
%TO.P,REF\u002A\u002A,1*%
%TO.N,N/C*%
X87000000Y-62000000D03*
%TD*%
%TO.P,REF\u002A\u002A,1*%
%TO.N,N/C*%
X93000000Y-52000000D03*
%TD*%
%TO.P,REF\u002A\u002A,1*%
%TO.N,N/C*%
X91000000Y-52000000D03*
%TD*%
%TO.P,REF\u002A\u002A,1*%
%TO.N,N/C*%
X89000000Y-52000000D03*
%TD*%
%TO.P,REF\u002A\u002A,1*%
%TO.N,N/C*%
X87000000Y-52000000D03*
%TD*%
D11*
%TO.P,REF\u002A\u002A,1*%
%TO.N,Net-(H4-Pad1)*%
X118000000Y-71000000D03*
%TD*%
%TO.P,REF\u002A\u002A,1*%
%TO.N,Net-(H4-Pad1)*%
X126000000Y-62000000D03*
%TD*%
%TO.P,REF\u002A\u002A,1*%
%TO.N,Net-(H4-Pad1)*%
X122000000Y-71000000D03*
%TD*%
%TO.P,REF\u002A\u002A,1*%
%TO.N,Net-(C2-Pad1)*%
X123000000Y-51000000D03*
%TD*%
%TO.P,REF\u002A\u002A,1*%
%TO.N,Net-(C1-Pad2)*%
X67000000Y-73000000D03*
%TD*%
%TO.P,REF\u002A\u002A,1*%
%TO.N,GNDREF*%
X67000000Y-64000000D03*
%TD*%
%TO.P,REF\u002A\u002A,1*%
%TO.N,Net-(H4-Pad1)*%
X126000000Y-68000000D03*
%TD*%
%TO.P,REF\u002A\u002A,1*%
%TO.N,Net-(C2-Pad1)*%
X126000000Y-54000000D03*
%TD*%
%TO.P,REF\u002A\u002A,1*%
%TO.N,Net-(C2-Pad1)*%
X126000000Y-57000000D03*
%TD*%
D10*
%TO.P,REF\u002A\u002A,1*%
%TO.N,Net-(C1-Pad2)*%
X86000000Y-71500000D03*
%TD*%
%TO.P,REF\u002A\u002A,1*%
%TO.N,Net-(C1-Pad2)*%
X86000000Y-72500000D03*
%TD*%
%TO.P,REF\u002A\u002A,1*%
%TO.N,GNDREF*%
X86000000Y-66000000D03*
%TD*%
%TO.P,REF\u002A\u002A,1*%
%TO.N,GNDREF*%
X86000000Y-67000000D03*
%TD*%
D16*
%TO.P,H5,1*%
%TO.N,GNDREF*%
X64000000Y-44000000D03*
D17*
X64000000Y-44000000D03*
%TD*%
D16*
%TO.P,H1,1*%
%TO.N,Net-(C2-Pad1)*%
X111000000Y-47000000D03*
D17*
X111000000Y-47000000D03*
%TD*%
D16*
%TO.P,H2,1*%
%TO.N,Net-(C1-Pad2)*%
X79000000Y-71000000D03*
D17*
X79000000Y-71000000D03*
%TD*%
D16*
%TO.P,H3,1*%
%TO.N,Net-(H3-Pad1)*%
X79000000Y-44000000D03*
D17*
X79000000Y-44000000D03*
%TD*%
D16*
%TO.P,H4,1*%
%TO.N,Net-(H4-Pad1)*%
X111000000Y-71000000D03*
D17*
X111000000Y-71000000D03*
%TD*%
D18*
%TO.P,GND,2*%
%TO.N,GNDREF*%
X72540000Y-44000000D03*
%TO.P,GND,1*%
%TA.AperFunction,ComponentPad*%
G36*
G01*
X69130000Y-44845001D02*
X69130000Y-43154999D01*
G75*
G02*
X69379999Y-42905000I249999J0D01*
G01*
X70620001Y-42905000D01*
G75*
G02*
X70870000Y-43154999I0J-249999D01*
G01*
X70870000Y-44845001D01*
G75*
G02*
X70620001Y-45095000I-249999J0D01*
G01*
X69379999Y-45095000D01*
G75*
G02*
X69130000Y-44845001I0J249999D01*
G01*
G37*
%TD.AperFunction*%
%TD*%
D19*
%TO.N,Net-(H3-Pad1)*%
X79000000Y-46600000D03*
X81500000Y-43900000D03*
X76400000Y-43900000D03*
X79000000Y-41400000D03*
X77300000Y-42100000D03*
X80700000Y-42000000D03*
X80800000Y-45900000D03*
X77200000Y-45900000D03*
%TO.N,Net-(H4-Pad1)*%
X111000000Y-68300000D03*
X111000000Y-73600000D03*
X113600000Y-70900000D03*
X108500000Y-70900000D03*
X109300000Y-69000000D03*
X112800000Y-69000000D03*
X113000000Y-72800000D03*
X109200000Y-72800000D03*
%TO.N,GNDREF*%
X64100000Y-41400000D03*
X64000000Y-46600000D03*
X66600000Y-44000000D03*
X61400000Y-44000000D03*
X62100000Y-42300000D03*
X65800000Y-42100000D03*
X65800000Y-45800000D03*
X62300000Y-46000000D03*
%TO.N,Net-(C1-Pad2)*%
X79000000Y-73600000D03*
X79100000Y-68400000D03*
X80800000Y-69200000D03*
X77300000Y-69100000D03*
X80700000Y-73000000D03*
X81500000Y-71000000D03*
X76500000Y-71000000D03*
X77500000Y-73000000D03*
%TO.N,Net-(C2-Pad1)*%
X111000000Y-44400000D03*
X111000000Y-49600000D03*
X113600000Y-46900000D03*
X108400000Y-46900000D03*
X109200000Y-45200000D03*
X112800000Y-45100000D03*
X113000000Y-48700000D03*
X109300000Y-48900000D03*
%TD*%
D20*
%TO.N,Net-(C2-Pad1)*%
X108000000Y-50000000D02*
X111000000Y-47000000D01*
X108000000Y-59640000D02*
X108000000Y-50000000D01*
X77470000Y-60960000D02*
X77510000Y-61000000D01*
X84000000Y-61000000D02*
X85000000Y-62000000D01*
X86000000Y-64000000D02*
X90000000Y-64000000D01*
X77510000Y-61000000D02*
X84000000Y-61000000D01*
X85000000Y-62000000D02*
X85000000Y-63000000D01*
X85000000Y-63000000D02*
X86000000Y-64000000D01*
X90000000Y-64000000D02*
X94000000Y-68000000D01*
X94000000Y-68000000D02*
X95940000Y-68000000D01*
X95940000Y-68000000D02*
X99060000Y-71120000D01*
X99060000Y-71120000D02*
X101600000Y-71120000D01*
X104140000Y-68580000D02*
X104140000Y-63500000D01*
X101600000Y-71120000D02*
X104140000Y-68580000D01*
X104140000Y-63500000D02*
X108000000Y-59640000D01*
%TD*%
D21*
%TO.N,GNDREF*%
X75716674Y-41305444D02*
X75254081Y-41997765D01*
X74935441Y-42767029D01*
X74773000Y-43583677D01*
X74773000Y-44416323D01*
X74935441Y-45232971D01*
X75254081Y-46002235D01*
X75716674Y-46694556D01*
X76305444Y-47283326D01*
X76997765Y-47745919D01*
X77767029Y-48064559D01*
X78583677Y-48227000D01*
X79416323Y-48227000D01*
X80232971Y-48064559D01*
X81002235Y-47745919D01*
X81694556Y-47283326D01*
X82283326Y-46694556D01*
X82745919Y-46002235D01*
X83064559Y-45232971D01*
X83227000Y-44416323D01*
X83227000Y-43583677D01*
X83064559Y-42767029D01*
X82745919Y-41997765D01*
X82283326Y-41305444D01*
X82029882Y-41052000D01*
X84928031Y-41052000D01*
X84928031Y-41595000D01*
X84947860Y-41796327D01*
X84978379Y-41896935D01*
X84930083Y-41911585D01*
X84751669Y-42006949D01*
X84595288Y-42135288D01*
X84466949Y-42291669D01*
X84371585Y-42470083D01*
X84353780Y-42528780D01*
X84295083Y-42546585D01*
X84116669Y-42641949D01*
X83960288Y-42770288D01*
X83831949Y-42926669D01*
X83736585Y-43105083D01*
X83677860Y-43298673D01*
X83658031Y-43500000D01*
X83658031Y-45405000D01*
X83677860Y-45606327D01*
X83736585Y-45799917D01*
X83831949Y-45978331D01*
X83960288Y-46134712D01*
X84116669Y-46263051D01*
X84295083Y-46358415D01*
X84488673Y-46417140D01*
X84690000Y-46436969D01*
X85325000Y-46436969D01*
X85526327Y-46417140D01*
X85626935Y-46386621D01*
X85641585Y-46434917D01*
X85736949Y-46613331D01*
X85865288Y-46769712D01*
X86021669Y-46898051D01*
X86200083Y-46993415D01*
X86393673Y-47052140D01*
X86595000Y-47071969D01*
X87865000Y-47071969D01*
X88066327Y-47052140D01*
X88182500Y-47016899D01*
X88298673Y-47052140D01*
X88500000Y-47071969D01*
X89770000Y-47071969D01*
X89971327Y-47052140D01*
X90164917Y-46993415D01*
X90343331Y-46898051D01*
X90499712Y-46769712D01*
X90628051Y-46613331D01*
X90723415Y-46434917D01*
X90738065Y-46386621D01*
X90838673Y-46417140D01*
X91040000Y-46436969D01*
X91675000Y-46436969D01*
X91876327Y-46417140D01*
X92069917Y-46358415D01*
X92072263Y-46357161D01*
X92050896Y-46408746D01*
X91973000Y-46800358D01*
X91973000Y-47199642D01*
X92050896Y-47591254D01*
X92203696Y-47960145D01*
X92425526Y-48292137D01*
X92707863Y-48574474D01*
X93039855Y-48796304D01*
X93408746Y-48949104D01*
X93800358Y-49027000D01*
X94199642Y-49027000D01*
X94591254Y-48949104D01*
X94960145Y-48796304D01*
X95292137Y-48574474D01*
X95500000Y-48366611D01*
X95707863Y-48574474D01*
X96039855Y-48796304D01*
X96408746Y-48949104D01*
X96800358Y-49027000D01*
X97199642Y-49027000D01*
X97591254Y-48949104D01*
X97960145Y-48796304D01*
X98292137Y-48574474D01*
X98500000Y-48366611D01*
X98707863Y-48574474D01*
X99039855Y-48796304D01*
X99408746Y-48949104D01*
X99800358Y-49027000D01*
X100199642Y-49027000D01*
X100591254Y-48949104D01*
X100960145Y-48796304D01*
X101292137Y-48574474D01*
X101574474Y-48292137D01*
X101796304Y-47960145D01*
X101949104Y-47591254D01*
X102027000Y-47199642D01*
X102027000Y-46800358D01*
X101949104Y-46408746D01*
X101796304Y-46039855D01*
X101656020Y-45829905D01*
X102273000Y-45829905D01*
X102273000Y-46170095D01*
X102339368Y-46503747D01*
X102407242Y-46667609D01*
X102373000Y-46839755D01*
X102373000Y-47160245D01*
X102435525Y-47474578D01*
X102446055Y-47500000D01*
X102435525Y-47525422D01*
X102373000Y-47839755D01*
X102373000Y-48160245D01*
X102435525Y-48474578D01*
X102558172Y-48770673D01*
X102736227Y-49037152D01*
X102962848Y-49263773D01*
X103229327Y-49441828D01*
X103525422Y-49564475D01*
X103839755Y-49627000D01*
X104160245Y-49627000D01*
X104474578Y-49564475D01*
X104770673Y-49441828D01*
X105037152Y-49263773D01*
X105263773Y-49037152D01*
X105441828Y-48770673D01*
X105564475Y-48474578D01*
X105627000Y-48160245D01*
X105627000Y-47839755D01*
X105564475Y-47525422D01*
X105553945Y-47500000D01*
X105564475Y-47474578D01*
X105627000Y-47160245D01*
X105627000Y-46839755D01*
X105592758Y-46667609D01*
X105660632Y-46503747D01*
X105727000Y-46170095D01*
X105727000Y-45829905D01*
X105660632Y-45496253D01*
X105530447Y-45181959D01*
X105341448Y-44899102D01*
X105100898Y-44658552D01*
X104818041Y-44469553D01*
X104503747Y-44339368D01*
X104170095Y-44273000D01*
X103829905Y-44273000D01*
X103496253Y-44339368D01*
X103181959Y-44469553D01*
X102899102Y-44658552D01*
X102658552Y-44899102D01*
X102469553Y-45181959D01*
X102339368Y-45496253D01*
X102273000Y-45829905D01*
X101656020Y-45829905D01*
X101574474Y-45707863D01*
X101292137Y-45425526D01*
X100960145Y-45203696D01*
X100591254Y-45050896D01*
X100199642Y-44973000D01*
X99800358Y-44973000D01*
X99408746Y-45050896D01*
X99039855Y-45203696D01*
X98707863Y-45425526D01*
X98500000Y-45633389D01*
X98292137Y-45425526D01*
X97960145Y-45203696D01*
X97591254Y-45050896D01*
X97199642Y-44973000D01*
X96800358Y-44973000D01*
X96408746Y-45050896D01*
X96039855Y-45203696D01*
X95707863Y-45425526D01*
X95500000Y-45633389D01*
X95292137Y-45425526D01*
X94960145Y-45203696D01*
X94591254Y-45050896D01*
X94199642Y-44973000D01*
X93800358Y-44973000D01*
X93408746Y-45050896D01*
X93039855Y-45203696D01*
X92707863Y-45425526D01*
X92704629Y-45428760D01*
X92706969Y-45405000D01*
X92706969Y-43500000D01*
X92687140Y-43298673D01*
X92628415Y-43105083D01*
X92533051Y-42926669D01*
X92404712Y-42770288D01*
X92248331Y-42641949D01*
X92069917Y-42546585D01*
X92011220Y-42528780D01*
X91993415Y-42470083D01*
X91898051Y-42291669D01*
X91769712Y-42135288D01*
X91613331Y-42006949D01*
X91434917Y-41911585D01*
X91386621Y-41896935D01*
X91417140Y-41796327D01*
X91436969Y-41595000D01*
X91436969Y-41052000D01*
X127564249Y-41052000D01*
X128948000Y-42435752D01*
X128948001Y-72948540D01*
X128924996Y-73183156D01*
X128871806Y-73359332D01*
X128785408Y-73521823D01*
X128669095Y-73664436D01*
X128527294Y-73781744D01*
X128365410Y-73869275D01*
X128189607Y-73923695D01*
X127958363Y-73948000D01*
X114029882Y-73948000D01*
X114283326Y-73694556D01*
X114745919Y-73002235D01*
X115064559Y-72232971D01*
X115227000Y-71416323D01*
X115227000Y-70800358D01*
X115973000Y-70800358D01*
X115973000Y-71199642D01*
X116050896Y-71591254D01*
X116203696Y-71960145D01*
X116425526Y-72292137D01*
X116707863Y-72574474D01*
X117039855Y-72796304D01*
X117408746Y-72949104D01*
X117800358Y-73027000D01*
X118199642Y-73027000D01*
X118591254Y-72949104D01*
X118960145Y-72796304D01*
X119292137Y-72574474D01*
X119574474Y-72292137D01*
X119796304Y-71960145D01*
X119949104Y-71591254D01*
X120000000Y-71335381D01*
X120050896Y-71591254D01*
X120203696Y-71960145D01*
X120425526Y-72292137D01*
X120707863Y-72574474D01*
X121039855Y-72796304D01*
X121408746Y-72949104D01*
X121800358Y-73027000D01*
X122199642Y-73027000D01*
X122591254Y-72949104D01*
X122960145Y-72796304D01*
X123292137Y-72574474D01*
X123574474Y-72292137D01*
X123796304Y-71960145D01*
X123949104Y-71591254D01*
X124027000Y-71199642D01*
X124027000Y-70800358D01*
X123949104Y-70408746D01*
X123796304Y-70039855D01*
X123574474Y-69707863D01*
X123292137Y-69425526D01*
X122960145Y-69203696D01*
X122591254Y-69050896D01*
X122199642Y-68973000D01*
X121800358Y-68973000D01*
X121408746Y-69050896D01*
X121039855Y-69203696D01*
X120707863Y-69425526D01*
X120425526Y-69707863D01*
X120203696Y-70039855D01*
X120050896Y-70408746D01*
X120000000Y-70664619D01*
X119949104Y-70408746D01*
X119796304Y-70039855D01*
X119574474Y-69707863D01*
X119292137Y-69425526D01*
X118960145Y-69203696D01*
X118591254Y-69050896D01*
X118199642Y-68973000D01*
X117800358Y-68973000D01*
X117408746Y-69050896D01*
X117039855Y-69203696D01*
X116707863Y-69425526D01*
X116425526Y-69707863D01*
X116203696Y-70039855D01*
X116050896Y-70408746D01*
X115973000Y-70800358D01*
X115227000Y-70800358D01*
X115227000Y-70583677D01*
X115064559Y-69767029D01*
X114745919Y-68997765D01*
X114283326Y-68305444D01*
X114029809Y-68051927D01*
X114184746Y-68116104D01*
X114576358Y-68194000D01*
X114975642Y-68194000D01*
X115367254Y-68116104D01*
X115736145Y-67963304D01*
X116046000Y-67756265D01*
X116355855Y-67963304D01*
X116724746Y-68116104D01*
X117116358Y-68194000D01*
X117515642Y-68194000D01*
X117907254Y-68116104D01*
X118276145Y-67963304D01*
X118586000Y-67756265D01*
X118895855Y-67963304D01*
X119264746Y-68116104D01*
X119656358Y-68194000D01*
X120055642Y-68194000D01*
X120447254Y-68116104D01*
X120816145Y-67963304D01*
X121060010Y-67800358D01*
X123973000Y-67800358D01*
X123973000Y-68199642D01*
X124050896Y-68591254D01*
X124203696Y-68960145D01*
X124425526Y-69292137D01*
X124707863Y-69574474D01*
X125039855Y-69796304D01*
X125408746Y-69949104D01*
X125800358Y-70027000D01*
X126199642Y-70027000D01*
X126591254Y-69949104D01*
X126960145Y-69796304D01*
X127292137Y-69574474D01*
X127574474Y-69292137D01*
X127796304Y-68960145D01*
X127949104Y-68591254D01*
X128027000Y-68199642D01*
X128027000Y-67800358D01*
X127949104Y-67408746D01*
X127796304Y-67039855D01*
X127574474Y-66707863D01*
X127292137Y-66425526D01*
X126960145Y-66203696D01*
X126591254Y-66050896D01*
X126199642Y-65973000D01*
X125800358Y-65973000D01*
X125408746Y-66050896D01*
X125039855Y-66203696D01*
X124707863Y-66425526D01*
X124425526Y-66707863D01*
X124203696Y-67039855D01*
X124050896Y-67408746D01*
X123973000Y-67800358D01*
X121060010Y-67800358D01*
X121148137Y-67741474D01*
X121430474Y-67459137D01*
X121652304Y-67127145D01*
X121805104Y-66758254D01*
X121883000Y-66366642D01*
X121883000Y-65967358D01*
X121805104Y-65575746D01*
X121652304Y-65206855D01*
X121445265Y-64897000D01*
X121652304Y-64587145D01*
X121805104Y-64218254D01*
X121883000Y-63826642D01*
X121883000Y-63427358D01*
X121805104Y-63035746D01*
X121652304Y-62666855D01*
X121632704Y-62637521D01*
X121959145Y-62502304D01*
X122291137Y-62280474D01*
X122573474Y-61998137D01*
X122705625Y-61800358D01*
X123973000Y-61800358D01*
X123973000Y-62199642D01*
X124050896Y-62591254D01*
X124203696Y-62960145D01*
X124425526Y-63292137D01*
X124707863Y-63574474D01*
X125039855Y-63796304D01*
X125408746Y-63949104D01*
X125800358Y-64027000D01*
X126199642Y-64027000D01*
X126591254Y-63949104D01*
X126960145Y-63796304D01*
X127292137Y-63574474D01*
X127574474Y-63292137D01*
X127796304Y-62960145D01*
X127949104Y-62591254D01*
X128027000Y-62199642D01*
X128027000Y-61800358D01*
X127949104Y-61408746D01*
X127796304Y-61039855D01*
X127574474Y-60707863D01*
X127292137Y-60425526D01*
X126960145Y-60203696D01*
X126591254Y-60050896D01*
X126199642Y-59973000D01*
X125800358Y-59973000D01*
X125408746Y-60050896D01*
X125039855Y-60203696D01*
X124707863Y-60425526D01*
X124425526Y-60707863D01*
X124203696Y-61039855D01*
X124050896Y-61408746D01*
X123973000Y-61800358D01*
X122705625Y-61800358D01*
X122795304Y-61666145D01*
X122948104Y-61297254D01*
X123026000Y-60905642D01*
X123026000Y-60506358D01*
X122948104Y-60114746D01*
X122795304Y-59745855D01*
X122588265Y-59436000D01*
X122795304Y-59126145D01*
X122948104Y-58757254D01*
X123026000Y-58365642D01*
X123026000Y-57966358D01*
X122948104Y-57574746D01*
X122795304Y-57205855D01*
X122588265Y-56896000D01*
X122795304Y-56586145D01*
X122948104Y-56217254D01*
X123026000Y-55825642D01*
X123026000Y-55426358D01*
X122948104Y-55034746D01*
X122795304Y-54665855D01*
X122573474Y-54333863D01*
X122291137Y-54051526D01*
X121959145Y-53829696D01*
X121888317Y-53800358D01*
X123973000Y-53800358D01*
X123973000Y-54199642D01*
X124050896Y-54591254D01*
X124203696Y-54960145D01*
X124425526Y-55292137D01*
X124633389Y-55500000D01*
X124425526Y-55707863D01*
X124203696Y-56039855D01*
X124050896Y-56408746D01*
X123973000Y-56800358D01*
X123973000Y-57199642D01*
X124050896Y-57591254D01*
X124203696Y-57960145D01*
X124425526Y-58292137D01*
X124707863Y-58574474D01*
X125039855Y-58796304D01*
X125408746Y-58949104D01*
X125800358Y-59027000D01*
X126199642Y-59027000D01*
X126591254Y-58949104D01*
X126960145Y-58796304D01*
X127292137Y-58574474D01*
X127574474Y-58292137D01*
X127796304Y-57960145D01*
X127949104Y-57591254D01*
X128027000Y-57199642D01*
X128027000Y-56800358D01*
X127949104Y-56408746D01*
X127796304Y-56039855D01*
X127574474Y-55707863D01*
X127366611Y-55500000D01*
X127574474Y-55292137D01*
X127796304Y-54960145D01*
X127949104Y-54591254D01*
X128027000Y-54199642D01*
X128027000Y-53800358D01*
X127949104Y-53408746D01*
X127796304Y-53039855D01*
X127574474Y-52707863D01*
X127292137Y-52425526D01*
X126960145Y-52203696D01*
X126591254Y-52050896D01*
X126199642Y-51973000D01*
X125800358Y-51973000D01*
X125408746Y-52050896D01*
X125039855Y-52203696D01*
X124707863Y-52425526D01*
X124425526Y-52707863D01*
X124203696Y-53039855D01*
X124050896Y-53408746D01*
X123973000Y-53800358D01*
X121888317Y-53800358D01*
X121590254Y-53676896D01*
X121198642Y-53599000D01*
X120799358Y-53599000D01*
X120408193Y-53676807D01*
X120486000Y-53285642D01*
X120486000Y-52886358D01*
X120408104Y-52494746D01*
X120255304Y-52125855D01*
X120033474Y-51793863D01*
X119751137Y-51511526D01*
X119419145Y-51289696D01*
X119050254Y-51136896D01*
X118658642Y-51059000D01*
X118259358Y-51059000D01*
X117867746Y-51136896D01*
X117498855Y-51289696D01*
X117189000Y-51496735D01*
X116879145Y-51289696D01*
X116510254Y-51136896D01*
X116118642Y-51059000D01*
X115719358Y-51059000D01*
X115327746Y-51136896D01*
X114958855Y-51289696D01*
X114649000Y-51496735D01*
X114339145Y-51289696D01*
X113970254Y-51136896D01*
X113578642Y-51059000D01*
X113179358Y-51059000D01*
X112787746Y-51136896D01*
X112418855Y-51289696D01*
X112109000Y-51496735D01*
X111799145Y-51289696D01*
X111572693Y-51195896D01*
X112232971Y-51064559D01*
X112870807Y-50800358D01*
X120973000Y-50800358D01*
X120973000Y-51199642D01*
X121050896Y-51591254D01*
X121203696Y-51960145D01*
X121425526Y-52292137D01*
X121707863Y-52574474D01*
X122039855Y-52796304D01*
X122408746Y-52949104D01*
X122800358Y-53027000D01*
X123199642Y-53027000D01*
X123591254Y-52949104D01*
X123960145Y-52796304D01*
X124292137Y-52574474D01*
X124574474Y-52292137D01*
X124796304Y-51960145D01*
X124949104Y-51591254D01*
X125027000Y-51199642D01*
X125027000Y-50800358D01*
X124949104Y-50408746D01*
X124796304Y-50039855D01*
X124787952Y-50027356D01*
X124799640Y-49988827D01*
X124819469Y-49787500D01*
X124819469Y-48212500D01*
X124799640Y-48011173D01*
X124740915Y-47817583D01*
X124645551Y-47639169D01*
X124517212Y-47482788D01*
X124360831Y-47354449D01*
X124182417Y-47259085D01*
X123988827Y-47200360D01*
X123787500Y-47180531D01*
X122212500Y-47180531D01*
X122011173Y-47200360D01*
X121817583Y-47259085D01*
X121639169Y-47354449D01*
X121482788Y-47482788D01*
X121354449Y-47639169D01*
X121259085Y-47817583D01*
X121200360Y-48011173D01*
X121180531Y-48212500D01*
X121180531Y-49787500D01*
X121200360Y-49988827D01*
X121212048Y-50027356D01*
X121203696Y-50039855D01*
X121050896Y-50408746D01*
X120973000Y-50800358D01*
X112870807Y-50800358D01*
X113002235Y-50745919D01*
X113694556Y-50283326D01*
X114283326Y-49694556D01*
X114745919Y-49002235D01*
X115064559Y-48232971D01*
X115227000Y-47416323D01*
X115227000Y-46583677D01*
X115064559Y-45767029D01*
X114745919Y-44997765D01*
X114283326Y-44305444D01*
X113694556Y-43716674D01*
X113002235Y-43254081D01*
X112232971Y-42935441D01*
X111416323Y-42773000D01*
X110583677Y-42773000D01*
X109767029Y-42935441D01*
X108997765Y-43254081D01*
X108305444Y-43716674D01*
X107716674Y-44305444D01*
X107254081Y-44997765D01*
X106935441Y-45767029D01*
X106773000Y-46583677D01*
X106773000Y-47416323D01*
X106935441Y-48232971D01*
X107132290Y-48708207D01*
X106973289Y-48867208D01*
X106915025Y-48915024D01*
X106867209Y-48973288D01*
X106867208Y-48973289D01*
X106724204Y-49147540D01*
X106582411Y-49412815D01*
X106495096Y-49700656D01*
X106465613Y-50000000D01*
X106473001Y-50075011D01*
X106473001Y-51836556D01*
X106444474Y-51793863D01*
X106162137Y-51511526D01*
X105830145Y-51289696D01*
X105461254Y-51136896D01*
X105069642Y-51059000D01*
X104670358Y-51059000D01*
X104278746Y-51136896D01*
X103909855Y-51289696D01*
X103600000Y-51496735D01*
X103290145Y-51289696D01*
X102921254Y-51136896D01*
X102529642Y-51059000D01*
X102130358Y-51059000D01*
X101738746Y-51136896D01*
X101369855Y-51289696D01*
X101060000Y-51496735D01*
X100750145Y-51289696D01*
X100381254Y-51136896D01*
X99989642Y-51059000D01*
X99590358Y-51059000D01*
X99198746Y-51136896D01*
X98829855Y-51289696D01*
X98520000Y-51496735D01*
X98210145Y-51289696D01*
X97841254Y-51136896D01*
X97449642Y-51059000D01*
X97050358Y-51059000D01*
X96658746Y-51136896D01*
X96289855Y-51289696D01*
X95957863Y-51511526D01*
X95675526Y-51793863D01*
X95453696Y-52125855D01*
X95300896Y-52494746D01*
X95223000Y-52886358D01*
X95223000Y-53285642D01*
X95300896Y-53677254D01*
X95453696Y-54046145D01*
X95660735Y-54356000D01*
X95453696Y-54665855D01*
X95300896Y-55034746D01*
X95223000Y-55426358D01*
X95223000Y-55825642D01*
X95300896Y-56217254D01*
X95453696Y-56586145D01*
X95660735Y-56896000D01*
X95453696Y-57205855D01*
X95300896Y-57574746D01*
X95223000Y-57966358D01*
X95223000Y-58365642D01*
X95300896Y-58757254D01*
X95453696Y-59126145D01*
X95675526Y-59458137D01*
X95957863Y-59740474D01*
X96289855Y-59962304D01*
X96658746Y-60115104D01*
X97050358Y-60193000D01*
X97449642Y-60193000D01*
X97841254Y-60115104D01*
X98210145Y-59962304D01*
X98520000Y-59755265D01*
X98829855Y-59962304D01*
X99198746Y-60115104D01*
X99590358Y-60193000D01*
X99989642Y-60193000D01*
X100135924Y-60163903D01*
X100039855Y-60203696D01*
X99707863Y-60425526D01*
X99425526Y-60707863D01*
X99203696Y-61039855D01*
X99050896Y-61408746D01*
X98973000Y-61800358D01*
X98973000Y-62199642D01*
X99050896Y-62591254D01*
X99203696Y-62960145D01*
X99397371Y-63250000D01*
X99203696Y-63539855D01*
X99050896Y-63908746D01*
X98973000Y-64300358D01*
X98973000Y-64699642D01*
X99050896Y-65091254D01*
X99203696Y-65460145D01*
X99425526Y-65792137D01*
X99707863Y-66074474D01*
X99970556Y-66250000D01*
X99707863Y-66425526D01*
X99425526Y-66707863D01*
X99203696Y-67039855D01*
X99050896Y-67408746D01*
X98973000Y-67800358D01*
X98973000Y-68199642D01*
X99050896Y-68591254D01*
X99203696Y-68960145D01*
X99425526Y-69292137D01*
X99707863Y-69574474D01*
X99735589Y-69593000D01*
X99692504Y-69593000D01*
X97072797Y-66973294D01*
X97024976Y-66915024D01*
X96792460Y-66724203D01*
X96527185Y-66582410D01*
X96239344Y-66495095D01*
X96015011Y-66473000D01*
X96015001Y-66473000D01*
X95940000Y-66465613D01*
X95864999Y-66473000D01*
X94632504Y-66473000D01*
X91650930Y-63491427D01*
X91770673Y-63441828D01*
X92000000Y-63288597D01*
X92229327Y-63441828D01*
X92525422Y-63564475D01*
X92839755Y-63627000D01*
X93160245Y-63627000D01*
X93474578Y-63564475D01*
X93770673Y-63441828D01*
X94037152Y-63263773D01*
X94263773Y-63037152D01*
X94441828Y-62770673D01*
X94564475Y-62474578D01*
X94627000Y-62160245D01*
X94627000Y-61839755D01*
X94564475Y-61525422D01*
X94441828Y-61229327D01*
X94263773Y-60962848D01*
X94037152Y-60736227D01*
X93770673Y-60558172D01*
X93474578Y-60435525D01*
X93160245Y-60373000D01*
X92839755Y-60373000D01*
X92525422Y-60435525D01*
X92229327Y-60558172D01*
X92000000Y-60711403D01*
X91770673Y-60558172D01*
X91474578Y-60435525D01*
X91160245Y-60373000D01*
X90839755Y-60373000D01*
X90525422Y-60435525D01*
X90229327Y-60558172D01*
X90000000Y-60711403D01*
X89770673Y-60558172D01*
X89474578Y-60435525D01*
X89160245Y-60373000D01*
X88839755Y-60373000D01*
X88525422Y-60435525D01*
X88229327Y-60558172D01*
X88000000Y-60711403D01*
X87770673Y-60558172D01*
X87474578Y-60435525D01*
X87160245Y-60373000D01*
X86839755Y-60373000D01*
X86525422Y-60435525D01*
X86229327Y-60558172D01*
X85962848Y-60736227D01*
X85929289Y-60769786D01*
X85132797Y-59973294D01*
X85084976Y-59915024D01*
X84852460Y-59724203D01*
X84587185Y-59582410D01*
X84299344Y-59495095D01*
X84075011Y-59473000D01*
X84075001Y-59473000D01*
X84000000Y-59465613D01*
X83924999Y-59473000D01*
X78717925Y-59473000D01*
X78733773Y-59457152D01*
X78911828Y-59190673D01*
X79034475Y-58894578D01*
X79097000Y-58580245D01*
X79097000Y-58259755D01*
X79034475Y-57945422D01*
X78911828Y-57649327D01*
X78733773Y-57382848D01*
X78507152Y-57156227D01*
X78497833Y-57150000D01*
X78507152Y-57143773D01*
X78733773Y-56917152D01*
X78911828Y-56650673D01*
X79034475Y-56354578D01*
X79097000Y-56040245D01*
X79097000Y-55719755D01*
X79034475Y-55405422D01*
X78911828Y-55109327D01*
X78733773Y-54842848D01*
X78507152Y-54616227D01*
X78497833Y-54610000D01*
X78507152Y-54603773D01*
X78733773Y-54377152D01*
X78911828Y-54110673D01*
X79034475Y-53814578D01*
X79097000Y-53500245D01*
X79097000Y-53179755D01*
X79034475Y-52865422D01*
X78911828Y-52569327D01*
X78733773Y-52302848D01*
X78507152Y-52076227D01*
X78497833Y-52070000D01*
X78507152Y-52063773D01*
X78733773Y-51837152D01*
X78911828Y-51570673D01*
X79034475Y-51274578D01*
X79097000Y-50960245D01*
X79097000Y-50639755D01*
X80923000Y-50639755D01*
X80923000Y-50960245D01*
X80985525Y-51274578D01*
X81108172Y-51570673D01*
X81286227Y-51837152D01*
X81512848Y-52063773D01*
X81522167Y-52070000D01*
X81512848Y-52076227D01*
X81286227Y-52302848D01*
X81108172Y-52569327D01*
X80985525Y-52865422D01*
X80923000Y-53179755D01*
X80923000Y-53500245D01*
X80985525Y-53814578D01*
X81108172Y-54110673D01*
X81286227Y-54377152D01*
X81512848Y-54603773D01*
X81522167Y-54610000D01*
X81512848Y-54616227D01*
X81286227Y-54842848D01*
X81108172Y-55109327D01*
X80985525Y-55405422D01*
X80923000Y-55719755D01*
X80923000Y-56040245D01*
X80985525Y-56354578D01*
X81108172Y-56650673D01*
X81286227Y-56917152D01*
X81512848Y-57143773D01*
X81779327Y-57321828D01*
X82075422Y-57444475D01*
X82389755Y-57507000D01*
X82710245Y-57507000D01*
X83024578Y-57444475D01*
X83320673Y-57321828D01*
X83587152Y-57143773D01*
X83813773Y-56917152D01*
X83991828Y-56650673D01*
X84114475Y-56354578D01*
X84177000Y-56040245D01*
X84177000Y-55719755D01*
X84114475Y-55405422D01*
X83991828Y-55109327D01*
X83813773Y-54842848D01*
X83587152Y-54616227D01*
X83577833Y-54610000D01*
X83587152Y-54603773D01*
X83813773Y-54377152D01*
X83991828Y-54110673D01*
X84114475Y-53814578D01*
X84177000Y-53500245D01*
X84177000Y-53179755D01*
X84114475Y-52865422D01*
X83991828Y-52569327D01*
X83813773Y-52302848D01*
X83587152Y-52076227D01*
X83577833Y-52070000D01*
X83587152Y-52063773D01*
X83811170Y-51839755D01*
X85373000Y-51839755D01*
X85373000Y-52160245D01*
X85435525Y-52474578D01*
X85558172Y-52770673D01*
X85736227Y-53037152D01*
X85962848Y-53263773D01*
X86229327Y-53441828D01*
X86525422Y-53564475D01*
X86839755Y-53627000D01*
X87160245Y-53627000D01*
X87474578Y-53564475D01*
X87770673Y-53441828D01*
X88000000Y-53288597D01*
X88229327Y-53441828D01*
X88525422Y-53564475D01*
X88839755Y-53627000D01*
X89160245Y-53627000D01*
X89474578Y-53564475D01*
X89770673Y-53441828D01*
X90000000Y-53288597D01*
X90229327Y-53441828D01*
X90525422Y-53564475D01*
X90839755Y-53627000D01*
X91160245Y-53627000D01*
X91474578Y-53564475D01*
X91770673Y-53441828D01*
X92000000Y-53288597D01*
X92229327Y-53441828D01*
X92525422Y-53564475D01*
X92839755Y-53627000D01*
X93160245Y-53627000D01*
X93474578Y-53564475D01*
X93770673Y-53441828D01*
X94037152Y-53263773D01*
X94263773Y-53037152D01*
X94441828Y-52770673D01*
X94564475Y-52474578D01*
X94627000Y-52160245D01*
X94627000Y-51839755D01*
X94564475Y-51525422D01*
X94441828Y-51229327D01*
X94263773Y-50962848D01*
X94037152Y-50736227D01*
X93770673Y-50558172D01*
X93474578Y-50435525D01*
X93160245Y-50373000D01*
X92839755Y-50373000D01*
X92525422Y-50435525D01*
X92229327Y-50558172D01*
X92000000Y-50711403D01*
X91770673Y-50558172D01*
X91474578Y-50435525D01*
X91160245Y-50373000D01*
X90839755Y-50373000D01*
X90525422Y-50435525D01*
X90229327Y-50558172D01*
X90000000Y-50711403D01*
X89770673Y-50558172D01*
X89474578Y-50435525D01*
X89160245Y-50373000D01*
X88839755Y-50373000D01*
X88525422Y-50435525D01*
X88229327Y-50558172D01*
X88000000Y-50711403D01*
X87770673Y-50558172D01*
X87474578Y-50435525D01*
X87160245Y-50373000D01*
X86839755Y-50373000D01*
X86525422Y-50435525D01*
X86229327Y-50558172D01*
X85962848Y-50736227D01*
X85736227Y-50962848D01*
X85558172Y-51229327D01*
X85435525Y-51525422D01*
X85373000Y-51839755D01*
X83811170Y-51839755D01*
X83813773Y-51837152D01*
X83991828Y-51570673D01*
X84114475Y-51274578D01*
X84177000Y-50960245D01*
X84177000Y-50639755D01*
X84114475Y-50325422D01*
X83991828Y-50029327D01*
X83813773Y-49762848D01*
X83587152Y-49536227D01*
X83320673Y-49358172D01*
X83024578Y-49235525D01*
X82710245Y-49173000D01*
X82389755Y-49173000D01*
X82075422Y-49235525D01*
X81779327Y-49358172D01*
X81512848Y-49536227D01*
X81286227Y-49762848D01*
X81108172Y-50029327D01*
X80985525Y-50325422D01*
X80923000Y-50639755D01*
X79097000Y-50639755D01*
X79034475Y-50325422D01*
X78911828Y-50029327D01*
X78733773Y-49762848D01*
X78507152Y-49536227D01*
X78240673Y-49358172D01*
X77944578Y-49235525D01*
X77630245Y-49173000D01*
X77309755Y-49173000D01*
X76995422Y-49235525D01*
X76835000Y-49301974D01*
X76674578Y-49235525D01*
X76360245Y-49173000D01*
X76039755Y-49173000D01*
X75725422Y-49235525D01*
X75565000Y-49301974D01*
X75404578Y-49235525D01*
X75090245Y-49173000D01*
X74769755Y-49173000D01*
X74455422Y-49235525D01*
X74295000Y-49301974D01*
X74134578Y-49235525D01*
X73820245Y-49173000D01*
X73499755Y-49173000D01*
X73185422Y-49235525D01*
X73025000Y-49301974D01*
X72864578Y-49235525D01*
X72550245Y-49173000D01*
X72229755Y-49173000D01*
X71915422Y-49235525D01*
X71755000Y-49301974D01*
X71594578Y-49235525D01*
X71280245Y-49173000D01*
X70959755Y-49173000D01*
X70645422Y-49235525D01*
X70485000Y-49301974D01*
X70324578Y-49235525D01*
X70010245Y-49173000D01*
X69689755Y-49173000D01*
X69375422Y-49235525D01*
X69215000Y-49301974D01*
X69054578Y-49235525D01*
X68740245Y-49173000D01*
X68419755Y-49173000D01*
X68105422Y-49235525D01*
X67809327Y-49358172D01*
X67542848Y-49536227D01*
X67316227Y-49762848D01*
X67138172Y-50029327D01*
X67015525Y-50325422D01*
X66953000Y-50639755D01*
X66953000Y-50960245D01*
X67015525Y-51274578D01*
X67138172Y-51570673D01*
X67316227Y-51837152D01*
X67542848Y-52063773D01*
X67552167Y-52070000D01*
X67542848Y-52076227D01*
X67316227Y-52302848D01*
X67138172Y-52569327D01*
X67015525Y-52865422D01*
X66953000Y-53179755D01*
X66953000Y-53500245D01*
X67015525Y-53814578D01*
X67138172Y-54110673D01*
X67316227Y-54377152D01*
X67542848Y-54603773D01*
X67552167Y-54610000D01*
X67542848Y-54616227D01*
X67316227Y-54842848D01*
X67138172Y-55109327D01*
X67015525Y-55405422D01*
X66953000Y-55719755D01*
X66953000Y-56040245D01*
X67015525Y-56354578D01*
X67138172Y-56650673D01*
X67316227Y-56917152D01*
X67542848Y-57143773D01*
X67552167Y-57150000D01*
X67542848Y-57156227D01*
X67316227Y-57382848D01*
X67138172Y-57649327D01*
X67015525Y-57945422D01*
X66953000Y-58259755D01*
X66953000Y-58580245D01*
X67015525Y-58894578D01*
X67138172Y-59190673D01*
X67316227Y-59457152D01*
X67542848Y-59683773D01*
X67552167Y-59690000D01*
X67542848Y-59696227D01*
X67316227Y-59922848D01*
X67138172Y-60189327D01*
X67015525Y-60485422D01*
X66953000Y-60799755D01*
X66953000Y-61120245D01*
X67015525Y-61434578D01*
X67138172Y-61730673D01*
X67316227Y-61997152D01*
X67542848Y-62223773D01*
X67809327Y-62401828D01*
X68105422Y-62524475D01*
X68419755Y-62587000D01*
X68740245Y-62587000D01*
X69054578Y-62524475D01*
X69215000Y-62458026D01*
X69375422Y-62524475D01*
X69689755Y-62587000D01*
X70010245Y-62587000D01*
X70324578Y-62524475D01*
X70485000Y-62458026D01*
X70645422Y-62524475D01*
X70959755Y-62587000D01*
X71280245Y-62587000D01*
X71594578Y-62524475D01*
X71755000Y-62458026D01*
X71915422Y-62524475D01*
X72229755Y-62587000D01*
X72550245Y-62587000D01*
X72864578Y-62524475D01*
X73025000Y-62458026D01*
X73185422Y-62524475D01*
X73499755Y-62587000D01*
X73820245Y-62587000D01*
X74134578Y-62524475D01*
X74295000Y-62458026D01*
X74455422Y-62524475D01*
X74769755Y-62587000D01*
X75090245Y-62587000D01*
X75404578Y-62524475D01*
X75565000Y-62458026D01*
X75725422Y-62524475D01*
X76039755Y-62587000D01*
X76360245Y-62587000D01*
X76674578Y-62524475D01*
X76835000Y-62458026D01*
X76995422Y-62524475D01*
X77309755Y-62587000D01*
X77630245Y-62587000D01*
X77931884Y-62527000D01*
X83367497Y-62527000D01*
X83473000Y-62632503D01*
X83473000Y-62924999D01*
X83465613Y-63000000D01*
X83473000Y-63075001D01*
X83473000Y-63075011D01*
X83495095Y-63299344D01*
X83582410Y-63587185D01*
X83724203Y-63852460D01*
X83915025Y-64084976D01*
X83973289Y-64132792D01*
X84867203Y-65026706D01*
X84915024Y-65084976D01*
X85052439Y-65197749D01*
X85147539Y-65275797D01*
X85412815Y-65417590D01*
X85700655Y-65504905D01*
X86000000Y-65534388D01*
X86075011Y-65527000D01*
X89367497Y-65527000D01*
X92867207Y-69026711D01*
X92915024Y-69084976D01*
X93147540Y-69275797D01*
X93412815Y-69417590D01*
X93645282Y-69488107D01*
X93425526Y-69707863D01*
X93203696Y-70039855D01*
X93050896Y-70408746D01*
X93000000Y-70664619D01*
X92949104Y-70408746D01*
X92796304Y-70039855D01*
X92574474Y-69707863D01*
X92292137Y-69425526D01*
X91960145Y-69203696D01*
X91591254Y-69050896D01*
X91199642Y-68973000D01*
X90800358Y-68973000D01*
X90408746Y-69050896D01*
X90039855Y-69203696D01*
X89707863Y-69425526D01*
X89425526Y-69707863D01*
X89203696Y-70039855D01*
X89050896Y-70408746D01*
X88973000Y-70800358D01*
X88973000Y-71199642D01*
X89050896Y-71591254D01*
X89203696Y-71960145D01*
X89425526Y-72292137D01*
X89707863Y-72574474D01*
X90039855Y-72796304D01*
X90408746Y-72949104D01*
X90800358Y-73027000D01*
X91199642Y-73027000D01*
X91591254Y-72949104D01*
X91960145Y-72796304D01*
X92292137Y-72574474D01*
X92574474Y-72292137D01*
X92796304Y-71960145D01*
X92949104Y-71591254D01*
X93000000Y-71335381D01*
X93050896Y-71591254D01*
X93203696Y-71960145D01*
X93425526Y-72292137D01*
X93707863Y-72574474D01*
X94039855Y-72796304D01*
X94408746Y-72949104D01*
X94800358Y-73027000D01*
X95199642Y-73027000D01*
X95591254Y-72949104D01*
X95960145Y-72796304D01*
X96292137Y-72574474D01*
X96574474Y-72292137D01*
X96796304Y-71960145D01*
X96949104Y-71591254D01*
X97019225Y-71238729D01*
X97927208Y-72146712D01*
X97975024Y-72204976D01*
X98207540Y-72395797D01*
X98472815Y-72537590D01*
X98760656Y-72624905D01*
X98984989Y-72647000D01*
X98984998Y-72647000D01*
X99059999Y-72654387D01*
X99135000Y-72647000D01*
X101524999Y-72647000D01*
X101600000Y-72654387D01*
X101675001Y-72647000D01*
X101675011Y-72647000D01*
X101899344Y-72624905D01*
X102187185Y-72537590D01*
X102452460Y-72395797D01*
X102684976Y-72204976D01*
X102732797Y-72146706D01*
X105166713Y-69712791D01*
X105224976Y-69664976D01*
X105415797Y-69432460D01*
X105557590Y-69167185D01*
X105644905Y-68879344D01*
X105667000Y-68655011D01*
X105667000Y-68655002D01*
X105674387Y-68580001D01*
X105667000Y-68505000D01*
X105667000Y-64132503D01*
X108825582Y-60973922D01*
X108889896Y-61297254D01*
X109042696Y-61666145D01*
X109264526Y-61998137D01*
X109546863Y-62280474D01*
X109878855Y-62502304D01*
X110247746Y-62655104D01*
X110639358Y-62733000D01*
X111038642Y-62733000D01*
X111430254Y-62655104D01*
X111799145Y-62502304D01*
X112109000Y-62295265D01*
X112418855Y-62502304D01*
X112787746Y-62655104D01*
X112969582Y-62691273D01*
X112826896Y-63035746D01*
X112749000Y-63427358D01*
X112749000Y-63826642D01*
X112826896Y-64218254D01*
X112979696Y-64587145D01*
X113186735Y-64897000D01*
X112979696Y-65206855D01*
X112826896Y-65575746D01*
X112749000Y-65967358D01*
X112749000Y-66366642D01*
X112826896Y-66758254D01*
X112979696Y-67127145D01*
X113114742Y-67329256D01*
X113002235Y-67254081D01*
X112232971Y-66935441D01*
X111416323Y-66773000D01*
X110583677Y-66773000D01*
X109767029Y-66935441D01*
X108997765Y-67254081D01*
X108305444Y-67716674D01*
X107716674Y-68305444D01*
X107254081Y-68997765D01*
X106935441Y-69767029D01*
X106773000Y-70583677D01*
X106773000Y-71416323D01*
X106935441Y-72232971D01*
X107254081Y-73002235D01*
X107716674Y-73694556D01*
X107970118Y-73948000D01*
X86755773Y-73948000D01*
X86770673Y-73941828D01*
X87037152Y-73763773D01*
X87263773Y-73537152D01*
X87441828Y-73270673D01*
X87564475Y-72974578D01*
X87627000Y-72660245D01*
X87627000Y-72339755D01*
X87564475Y-72025422D01*
X87553945Y-72000000D01*
X87564475Y-71974578D01*
X87627000Y-71660245D01*
X87627000Y-71339755D01*
X87592758Y-71167609D01*
X87660632Y-71003747D01*
X87727000Y-70670095D01*
X87727000Y-70329905D01*
X87660632Y-69996253D01*
X87530447Y-69681959D01*
X87341448Y-69399102D01*
X87100898Y-69158552D01*
X86818041Y-68969553D01*
X86503747Y-68839368D01*
X86170095Y-68773000D01*
X85829905Y-68773000D01*
X85496253Y-68839368D01*
X85181959Y-68969553D01*
X84899102Y-69158552D01*
X84658552Y-69399102D01*
X84469553Y-69681959D01*
X84339368Y-69996253D01*
X84273000Y-70329905D01*
X84273000Y-70670095D01*
X84339368Y-71003747D01*
X84407242Y-71167609D01*
X84373000Y-71339755D01*
X84373000Y-71660245D01*
X84435525Y-71974578D01*
X84446055Y-72000000D01*
X84435525Y-72025422D01*
X84373000Y-72339755D01*
X84373000Y-72660245D01*
X84435525Y-72974578D01*
X84558172Y-73270673D01*
X84736227Y-73537152D01*
X84962848Y-73763773D01*
X85229327Y-73941828D01*
X85244227Y-73948000D01*
X82029882Y-73948000D01*
X82283326Y-73694556D01*
X82745919Y-73002235D01*
X83064559Y-72232971D01*
X83227000Y-71416323D01*
X83227000Y-70583677D01*
X83064559Y-69767029D01*
X82745919Y-68997765D01*
X82283326Y-68305444D01*
X81694556Y-67716674D01*
X81002235Y-67254081D01*
X80232971Y-66935441D01*
X79416323Y-66773000D01*
X78583677Y-66773000D01*
X77767029Y-66935441D01*
X76997765Y-67254081D01*
X76305444Y-67716674D01*
X75716674Y-68305444D01*
X75254081Y-68997765D01*
X74935441Y-69767029D01*
X74773000Y-70583677D01*
X74773000Y-71416323D01*
X74935441Y-72232971D01*
X75254081Y-73002235D01*
X75716674Y-73694556D01*
X75970118Y-73948000D01*
X68801335Y-73948000D01*
X68949104Y-73591254D01*
X69027000Y-73199642D01*
X69027000Y-72800358D01*
X68949104Y-72408746D01*
X68796304Y-72039855D01*
X68633934Y-71796851D01*
X68744770Y-71529270D01*
X68814500Y-71178713D01*
X68814500Y-70821287D01*
X68744770Y-70470730D01*
X68607989Y-70140512D01*
X68409414Y-69843323D01*
X68156677Y-69590586D01*
X67859488Y-69392011D01*
X67529270Y-69255230D01*
X67178713Y-69185500D01*
X66821287Y-69185500D01*
X66470730Y-69255230D01*
X66140512Y-69392011D01*
X65843323Y-69590586D01*
X65590586Y-69843323D01*
X65392011Y-70140512D01*
X65255230Y-70470730D01*
X65185500Y-70821287D01*
X65185500Y-71178713D01*
X65255230Y-71529270D01*
X65366066Y-71796851D01*
X65203696Y-72039855D01*
X65050896Y-72408746D01*
X64973000Y-72800358D01*
X64973000Y-73199642D01*
X65050896Y-73591254D01*
X65198665Y-73948000D01*
X62051450Y-73948000D01*
X61816844Y-73924996D01*
X61640668Y-73871806D01*
X61478177Y-73785408D01*
X61335564Y-73669095D01*
X61218256Y-73527294D01*
X61130725Y-73365410D01*
X61076305Y-73189607D01*
X61052000Y-72958363D01*
X61052000Y-64299755D01*
X73053000Y-64299755D01*
X73053000Y-64620245D01*
X73115525Y-64934578D01*
X73238172Y-65230673D01*
X73416227Y-65497152D01*
X73642848Y-65723773D01*
X73909327Y-65901828D01*
X74205422Y-66024475D01*
X74519755Y-66087000D01*
X74840245Y-66087000D01*
X75154578Y-66024475D01*
X75315000Y-65958026D01*
X75475422Y-66024475D01*
X75789755Y-66087000D01*
X76110245Y-66087000D01*
X76424578Y-66024475D01*
X76585000Y-65958026D01*
X76745422Y-66024475D01*
X77059755Y-66087000D01*
X77380245Y-66087000D01*
X77694578Y-66024475D01*
X77990673Y-65901828D01*
X78257152Y-65723773D01*
X78483773Y-65497152D01*
X78661828Y-65230673D01*
X78784475Y-64934578D01*
X78847000Y-64620245D01*
X78847000Y-64299755D01*
X78784475Y-63985422D01*
X78661828Y-63689327D01*
X78483773Y-63422848D01*
X78257152Y-63196227D01*
X77990673Y-63018172D01*
X77694578Y-62895525D01*
X77380245Y-62833000D01*
X77059755Y-62833000D01*
X76745422Y-62895525D01*
X76585000Y-62961974D01*
X76424578Y-62895525D01*
X76110245Y-62833000D01*
X75789755Y-62833000D01*
X75475422Y-62895525D01*
X75315000Y-62961974D01*
X75154578Y-62895525D01*
X74840245Y-62833000D01*
X74519755Y-62833000D01*
X74205422Y-62895525D01*
X73909327Y-63018172D01*
X73642848Y-63196227D01*
X73416227Y-63422848D01*
X73238172Y-63689327D01*
X73115525Y-63985422D01*
X73053000Y-64299755D01*
X61052000Y-64299755D01*
X61052000Y-42051450D01*
X61075003Y-41816845D01*
X61128194Y-41640668D01*
X61214593Y-41478177D01*
X61330908Y-41335561D01*
X61472705Y-41218256D01*
X61634591Y-41130725D01*
X61810392Y-41076305D01*
X62041636Y-41052000D01*
X75970118Y-41052000D01*
X75716674Y-41305444D01*
%TA.AperFunction,Conductor*%
D22*
G36*
X75716674Y-41305444D02*
G01*
X75254081Y-41997765D01*
X74935441Y-42767029D01*
X74773000Y-43583677D01*
X74773000Y-44416323D01*
X74935441Y-45232971D01*
X75254081Y-46002235D01*
X75716674Y-46694556D01*
X76305444Y-47283326D01*
X76997765Y-47745919D01*
X77767029Y-48064559D01*
X78583677Y-48227000D01*
X79416323Y-48227000D01*
X80232971Y-48064559D01*
X81002235Y-47745919D01*
X81694556Y-47283326D01*
X82283326Y-46694556D01*
X82745919Y-46002235D01*
X83064559Y-45232971D01*
X83227000Y-44416323D01*
X83227000Y-43583677D01*
X83064559Y-42767029D01*
X82745919Y-41997765D01*
X82283326Y-41305444D01*
X82029882Y-41052000D01*
X84928031Y-41052000D01*
X84928031Y-41595000D01*
X84947860Y-41796327D01*
X84978379Y-41896935D01*
X84930083Y-41911585D01*
X84751669Y-42006949D01*
X84595288Y-42135288D01*
X84466949Y-42291669D01*
X84371585Y-42470083D01*
X84353780Y-42528780D01*
X84295083Y-42546585D01*
X84116669Y-42641949D01*
X83960288Y-42770288D01*
X83831949Y-42926669D01*
X83736585Y-43105083D01*
X83677860Y-43298673D01*
X83658031Y-43500000D01*
X83658031Y-45405000D01*
X83677860Y-45606327D01*
X83736585Y-45799917D01*
X83831949Y-45978331D01*
X83960288Y-46134712D01*
X84116669Y-46263051D01*
X84295083Y-46358415D01*
X84488673Y-46417140D01*
X84690000Y-46436969D01*
X85325000Y-46436969D01*
X85526327Y-46417140D01*
X85626935Y-46386621D01*
X85641585Y-46434917D01*
X85736949Y-46613331D01*
X85865288Y-46769712D01*
X86021669Y-46898051D01*
X86200083Y-46993415D01*
X86393673Y-47052140D01*
X86595000Y-47071969D01*
X87865000Y-47071969D01*
X88066327Y-47052140D01*
X88182500Y-47016899D01*
X88298673Y-47052140D01*
X88500000Y-47071969D01*
X89770000Y-47071969D01*
X89971327Y-47052140D01*
X90164917Y-46993415D01*
X90343331Y-46898051D01*
X90499712Y-46769712D01*
X90628051Y-46613331D01*
X90723415Y-46434917D01*
X90738065Y-46386621D01*
X90838673Y-46417140D01*
X91040000Y-46436969D01*
X91675000Y-46436969D01*
X91876327Y-46417140D01*
X92069917Y-46358415D01*
X92072263Y-46357161D01*
X92050896Y-46408746D01*
X91973000Y-46800358D01*
X91973000Y-47199642D01*
X92050896Y-47591254D01*
X92203696Y-47960145D01*
X92425526Y-48292137D01*
X92707863Y-48574474D01*
X93039855Y-48796304D01*
X93408746Y-48949104D01*
X93800358Y-49027000D01*
X94199642Y-49027000D01*
X94591254Y-48949104D01*
X94960145Y-48796304D01*
X95292137Y-48574474D01*
X95500000Y-48366611D01*
X95707863Y-48574474D01*
X96039855Y-48796304D01*
X96408746Y-48949104D01*
X96800358Y-49027000D01*
X97199642Y-49027000D01*
X97591254Y-48949104D01*
X97960145Y-48796304D01*
X98292137Y-48574474D01*
X98500000Y-48366611D01*
X98707863Y-48574474D01*
X99039855Y-48796304D01*
X99408746Y-48949104D01*
X99800358Y-49027000D01*
X100199642Y-49027000D01*
X100591254Y-48949104D01*
X100960145Y-48796304D01*
X101292137Y-48574474D01*
X101574474Y-48292137D01*
X101796304Y-47960145D01*
X101949104Y-47591254D01*
X102027000Y-47199642D01*
X102027000Y-46800358D01*
X101949104Y-46408746D01*
X101796304Y-46039855D01*
X101656020Y-45829905D01*
X102273000Y-45829905D01*
X102273000Y-46170095D01*
X102339368Y-46503747D01*
X102407242Y-46667609D01*
X102373000Y-46839755D01*
X102373000Y-47160245D01*
X102435525Y-47474578D01*
X102446055Y-47500000D01*
X102435525Y-47525422D01*
X102373000Y-47839755D01*
X102373000Y-48160245D01*
X102435525Y-48474578D01*
X102558172Y-48770673D01*
X102736227Y-49037152D01*
X102962848Y-49263773D01*
X103229327Y-49441828D01*
X103525422Y-49564475D01*
X103839755Y-49627000D01*
X104160245Y-49627000D01*
X104474578Y-49564475D01*
X104770673Y-49441828D01*
X105037152Y-49263773D01*
X105263773Y-49037152D01*
X105441828Y-48770673D01*
X105564475Y-48474578D01*
X105627000Y-48160245D01*
X105627000Y-47839755D01*
X105564475Y-47525422D01*
X105553945Y-47500000D01*
X105564475Y-47474578D01*
X105627000Y-47160245D01*
X105627000Y-46839755D01*
X105592758Y-46667609D01*
X105660632Y-46503747D01*
X105727000Y-46170095D01*
X105727000Y-45829905D01*
X105660632Y-45496253D01*
X105530447Y-45181959D01*
X105341448Y-44899102D01*
X105100898Y-44658552D01*
X104818041Y-44469553D01*
X104503747Y-44339368D01*
X104170095Y-44273000D01*
X103829905Y-44273000D01*
X103496253Y-44339368D01*
X103181959Y-44469553D01*
X102899102Y-44658552D01*
X102658552Y-44899102D01*
X102469553Y-45181959D01*
X102339368Y-45496253D01*
X102273000Y-45829905D01*
X101656020Y-45829905D01*
X101574474Y-45707863D01*
X101292137Y-45425526D01*
X100960145Y-45203696D01*
X100591254Y-45050896D01*
X100199642Y-44973000D01*
X99800358Y-44973000D01*
X99408746Y-45050896D01*
X99039855Y-45203696D01*
X98707863Y-45425526D01*
X98500000Y-45633389D01*
X98292137Y-45425526D01*
X97960145Y-45203696D01*
X97591254Y-45050896D01*
X97199642Y-44973000D01*
X96800358Y-44973000D01*
X96408746Y-45050896D01*
X96039855Y-45203696D01*
X95707863Y-45425526D01*
X95500000Y-45633389D01*
X95292137Y-45425526D01*
X94960145Y-45203696D01*
X94591254Y-45050896D01*
X94199642Y-44973000D01*
X93800358Y-44973000D01*
X93408746Y-45050896D01*
X93039855Y-45203696D01*
X92707863Y-45425526D01*
X92704629Y-45428760D01*
X92706969Y-45405000D01*
X92706969Y-43500000D01*
X92687140Y-43298673D01*
X92628415Y-43105083D01*
X92533051Y-42926669D01*
X92404712Y-42770288D01*
X92248331Y-42641949D01*
X92069917Y-42546585D01*
X92011220Y-42528780D01*
X91993415Y-42470083D01*
X91898051Y-42291669D01*
X91769712Y-42135288D01*
X91613331Y-42006949D01*
X91434917Y-41911585D01*
X91386621Y-41896935D01*
X91417140Y-41796327D01*
X91436969Y-41595000D01*
X91436969Y-41052000D01*
X127564249Y-41052000D01*
X128948000Y-42435752D01*
X128948001Y-72948540D01*
X128924996Y-73183156D01*
X128871806Y-73359332D01*
X128785408Y-73521823D01*
X128669095Y-73664436D01*
X128527294Y-73781744D01*
X128365410Y-73869275D01*
X128189607Y-73923695D01*
X127958363Y-73948000D01*
X114029882Y-73948000D01*
X114283326Y-73694556D01*
X114745919Y-73002235D01*
X115064559Y-72232971D01*
X115227000Y-71416323D01*
X115227000Y-70800358D01*
X115973000Y-70800358D01*
X115973000Y-71199642D01*
X116050896Y-71591254D01*
X116203696Y-71960145D01*
X116425526Y-72292137D01*
X116707863Y-72574474D01*
X117039855Y-72796304D01*
X117408746Y-72949104D01*
X117800358Y-73027000D01*
X118199642Y-73027000D01*
X118591254Y-72949104D01*
X118960145Y-72796304D01*
X119292137Y-72574474D01*
X119574474Y-72292137D01*
X119796304Y-71960145D01*
X119949104Y-71591254D01*
X120000000Y-71335381D01*
X120050896Y-71591254D01*
X120203696Y-71960145D01*
X120425526Y-72292137D01*
X120707863Y-72574474D01*
X121039855Y-72796304D01*
X121408746Y-72949104D01*
X121800358Y-73027000D01*
X122199642Y-73027000D01*
X122591254Y-72949104D01*
X122960145Y-72796304D01*
X123292137Y-72574474D01*
X123574474Y-72292137D01*
X123796304Y-71960145D01*
X123949104Y-71591254D01*
X124027000Y-71199642D01*
X124027000Y-70800358D01*
X123949104Y-70408746D01*
X123796304Y-70039855D01*
X123574474Y-69707863D01*
X123292137Y-69425526D01*
X122960145Y-69203696D01*
X122591254Y-69050896D01*
X122199642Y-68973000D01*
X121800358Y-68973000D01*
X121408746Y-69050896D01*
X121039855Y-69203696D01*
X120707863Y-69425526D01*
X120425526Y-69707863D01*
X120203696Y-70039855D01*
X120050896Y-70408746D01*
X120000000Y-70664619D01*
X119949104Y-70408746D01*
X119796304Y-70039855D01*
X119574474Y-69707863D01*
X119292137Y-69425526D01*
X118960145Y-69203696D01*
X118591254Y-69050896D01*
X118199642Y-68973000D01*
X117800358Y-68973000D01*
X117408746Y-69050896D01*
X117039855Y-69203696D01*
X116707863Y-69425526D01*
X116425526Y-69707863D01*
X116203696Y-70039855D01*
X116050896Y-70408746D01*
X115973000Y-70800358D01*
X115227000Y-70800358D01*
X115227000Y-70583677D01*
X115064559Y-69767029D01*
X114745919Y-68997765D01*
X114283326Y-68305444D01*
X114029809Y-68051927D01*
X114184746Y-68116104D01*
X114576358Y-68194000D01*
X114975642Y-68194000D01*
X115367254Y-68116104D01*
X115736145Y-67963304D01*
X116046000Y-67756265D01*
X116355855Y-67963304D01*
X116724746Y-68116104D01*
X117116358Y-68194000D01*
X117515642Y-68194000D01*
X117907254Y-68116104D01*
X118276145Y-67963304D01*
X118586000Y-67756265D01*
X118895855Y-67963304D01*
X119264746Y-68116104D01*
X119656358Y-68194000D01*
X120055642Y-68194000D01*
X120447254Y-68116104D01*
X120816145Y-67963304D01*
X121060010Y-67800358D01*
X123973000Y-67800358D01*
X123973000Y-68199642D01*
X124050896Y-68591254D01*
X124203696Y-68960145D01*
X124425526Y-69292137D01*
X124707863Y-69574474D01*
X125039855Y-69796304D01*
X125408746Y-69949104D01*
X125800358Y-70027000D01*
X126199642Y-70027000D01*
X126591254Y-69949104D01*
X126960145Y-69796304D01*
X127292137Y-69574474D01*
X127574474Y-69292137D01*
X127796304Y-68960145D01*
X127949104Y-68591254D01*
X128027000Y-68199642D01*
X128027000Y-67800358D01*
X127949104Y-67408746D01*
X127796304Y-67039855D01*
X127574474Y-66707863D01*
X127292137Y-66425526D01*
X126960145Y-66203696D01*
X126591254Y-66050896D01*
X126199642Y-65973000D01*
X125800358Y-65973000D01*
X125408746Y-66050896D01*
X125039855Y-66203696D01*
X124707863Y-66425526D01*
X124425526Y-66707863D01*
X124203696Y-67039855D01*
X124050896Y-67408746D01*
X123973000Y-67800358D01*
X121060010Y-67800358D01*
X121148137Y-67741474D01*
X121430474Y-67459137D01*
X121652304Y-67127145D01*
X121805104Y-66758254D01*
X121883000Y-66366642D01*
X121883000Y-65967358D01*
X121805104Y-65575746D01*
X121652304Y-65206855D01*
X121445265Y-64897000D01*
X121652304Y-64587145D01*
X121805104Y-64218254D01*
X121883000Y-63826642D01*
X121883000Y-63427358D01*
X121805104Y-63035746D01*
X121652304Y-62666855D01*
X121632704Y-62637521D01*
X121959145Y-62502304D01*
X122291137Y-62280474D01*
X122573474Y-61998137D01*
X122705625Y-61800358D01*
X123973000Y-61800358D01*
X123973000Y-62199642D01*
X124050896Y-62591254D01*
X124203696Y-62960145D01*
X124425526Y-63292137D01*
X124707863Y-63574474D01*
X125039855Y-63796304D01*
X125408746Y-63949104D01*
X125800358Y-64027000D01*
X126199642Y-64027000D01*
X126591254Y-63949104D01*
X126960145Y-63796304D01*
X127292137Y-63574474D01*
X127574474Y-63292137D01*
X127796304Y-62960145D01*
X127949104Y-62591254D01*
X128027000Y-62199642D01*
X128027000Y-61800358D01*
X127949104Y-61408746D01*
X127796304Y-61039855D01*
X127574474Y-60707863D01*
X127292137Y-60425526D01*
X126960145Y-60203696D01*
X126591254Y-60050896D01*
X126199642Y-59973000D01*
X125800358Y-59973000D01*
X125408746Y-60050896D01*
X125039855Y-60203696D01*
X124707863Y-60425526D01*
X124425526Y-60707863D01*
X124203696Y-61039855D01*
X124050896Y-61408746D01*
X123973000Y-61800358D01*
X122705625Y-61800358D01*
X122795304Y-61666145D01*
X122948104Y-61297254D01*
X123026000Y-60905642D01*
X123026000Y-60506358D01*
X122948104Y-60114746D01*
X122795304Y-59745855D01*
X122588265Y-59436000D01*
X122795304Y-59126145D01*
X122948104Y-58757254D01*
X123026000Y-58365642D01*
X123026000Y-57966358D01*
X122948104Y-57574746D01*
X122795304Y-57205855D01*
X122588265Y-56896000D01*
X122795304Y-56586145D01*
X122948104Y-56217254D01*
X123026000Y-55825642D01*
X123026000Y-55426358D01*
X122948104Y-55034746D01*
X122795304Y-54665855D01*
X122573474Y-54333863D01*
X122291137Y-54051526D01*
X121959145Y-53829696D01*
X121888317Y-53800358D01*
X123973000Y-53800358D01*
X123973000Y-54199642D01*
X124050896Y-54591254D01*
X124203696Y-54960145D01*
X124425526Y-55292137D01*
X124633389Y-55500000D01*
X124425526Y-55707863D01*
X124203696Y-56039855D01*
X124050896Y-56408746D01*
X123973000Y-56800358D01*
X123973000Y-57199642D01*
X124050896Y-57591254D01*
X124203696Y-57960145D01*
X124425526Y-58292137D01*
X124707863Y-58574474D01*
X125039855Y-58796304D01*
X125408746Y-58949104D01*
X125800358Y-59027000D01*
X126199642Y-59027000D01*
X126591254Y-58949104D01*
X126960145Y-58796304D01*
X127292137Y-58574474D01*
X127574474Y-58292137D01*
X127796304Y-57960145D01*
X127949104Y-57591254D01*
X128027000Y-57199642D01*
X128027000Y-56800358D01*
X127949104Y-56408746D01*
X127796304Y-56039855D01*
X127574474Y-55707863D01*
X127366611Y-55500000D01*
X127574474Y-55292137D01*
X127796304Y-54960145D01*
X127949104Y-54591254D01*
X128027000Y-54199642D01*
X128027000Y-53800358D01*
X127949104Y-53408746D01*
X127796304Y-53039855D01*
X127574474Y-52707863D01*
X127292137Y-52425526D01*
X126960145Y-52203696D01*
X126591254Y-52050896D01*
X126199642Y-51973000D01*
X125800358Y-51973000D01*
X125408746Y-52050896D01*
X125039855Y-52203696D01*
X124707863Y-52425526D01*
X124425526Y-52707863D01*
X124203696Y-53039855D01*
X124050896Y-53408746D01*
X123973000Y-53800358D01*
X121888317Y-53800358D01*
X121590254Y-53676896D01*
X121198642Y-53599000D01*
X120799358Y-53599000D01*
X120408193Y-53676807D01*
X120486000Y-53285642D01*
X120486000Y-52886358D01*
X120408104Y-52494746D01*
X120255304Y-52125855D01*
X120033474Y-51793863D01*
X119751137Y-51511526D01*
X119419145Y-51289696D01*
X119050254Y-51136896D01*
X118658642Y-51059000D01*
X118259358Y-51059000D01*
X117867746Y-51136896D01*
X117498855Y-51289696D01*
X117189000Y-51496735D01*
X116879145Y-51289696D01*
X116510254Y-51136896D01*
X116118642Y-51059000D01*
X115719358Y-51059000D01*
X115327746Y-51136896D01*
X114958855Y-51289696D01*
X114649000Y-51496735D01*
X114339145Y-51289696D01*
X113970254Y-51136896D01*
X113578642Y-51059000D01*
X113179358Y-51059000D01*
X112787746Y-51136896D01*
X112418855Y-51289696D01*
X112109000Y-51496735D01*
X111799145Y-51289696D01*
X111572693Y-51195896D01*
X112232971Y-51064559D01*
X112870807Y-50800358D01*
X120973000Y-50800358D01*
X120973000Y-51199642D01*
X121050896Y-51591254D01*
X121203696Y-51960145D01*
X121425526Y-52292137D01*
X121707863Y-52574474D01*
X122039855Y-52796304D01*
X122408746Y-52949104D01*
X122800358Y-53027000D01*
X123199642Y-53027000D01*
X123591254Y-52949104D01*
X123960145Y-52796304D01*
X124292137Y-52574474D01*
X124574474Y-52292137D01*
X124796304Y-51960145D01*
X124949104Y-51591254D01*
X125027000Y-51199642D01*
X125027000Y-50800358D01*
X124949104Y-50408746D01*
X124796304Y-50039855D01*
X124787952Y-50027356D01*
X124799640Y-49988827D01*
X124819469Y-49787500D01*
X124819469Y-48212500D01*
X124799640Y-48011173D01*
X124740915Y-47817583D01*
X124645551Y-47639169D01*
X124517212Y-47482788D01*
X124360831Y-47354449D01*
X124182417Y-47259085D01*
X123988827Y-47200360D01*
X123787500Y-47180531D01*
X122212500Y-47180531D01*
X122011173Y-47200360D01*
X121817583Y-47259085D01*
X121639169Y-47354449D01*
X121482788Y-47482788D01*
X121354449Y-47639169D01*
X121259085Y-47817583D01*
X121200360Y-48011173D01*
X121180531Y-48212500D01*
X121180531Y-49787500D01*
X121200360Y-49988827D01*
X121212048Y-50027356D01*
X121203696Y-50039855D01*
X121050896Y-50408746D01*
X120973000Y-50800358D01*
X112870807Y-50800358D01*
X113002235Y-50745919D01*
X113694556Y-50283326D01*
X114283326Y-49694556D01*
X114745919Y-49002235D01*
X115064559Y-48232971D01*
X115227000Y-47416323D01*
X115227000Y-46583677D01*
X115064559Y-45767029D01*
X114745919Y-44997765D01*
X114283326Y-44305444D01*
X113694556Y-43716674D01*
X113002235Y-43254081D01*
X112232971Y-42935441D01*
X111416323Y-42773000D01*
X110583677Y-42773000D01*
X109767029Y-42935441D01*
X108997765Y-43254081D01*
X108305444Y-43716674D01*
X107716674Y-44305444D01*
X107254081Y-44997765D01*
X106935441Y-45767029D01*
X106773000Y-46583677D01*
X106773000Y-47416323D01*
X106935441Y-48232971D01*
X107132290Y-48708207D01*
X106973289Y-48867208D01*
X106915025Y-48915024D01*
X106867209Y-48973288D01*
X106867208Y-48973289D01*
X106724204Y-49147540D01*
X106582411Y-49412815D01*
X106495096Y-49700656D01*
X106465613Y-50000000D01*
X106473001Y-50075011D01*
X106473001Y-51836556D01*
X106444474Y-51793863D01*
X106162137Y-51511526D01*
X105830145Y-51289696D01*
X105461254Y-51136896D01*
X105069642Y-51059000D01*
X104670358Y-51059000D01*
X104278746Y-51136896D01*
X103909855Y-51289696D01*
X103600000Y-51496735D01*
X103290145Y-51289696D01*
X102921254Y-51136896D01*
X102529642Y-51059000D01*
X102130358Y-51059000D01*
X101738746Y-51136896D01*
X101369855Y-51289696D01*
X101060000Y-51496735D01*
X100750145Y-51289696D01*
X100381254Y-51136896D01*
X99989642Y-51059000D01*
X99590358Y-51059000D01*
X99198746Y-51136896D01*
X98829855Y-51289696D01*
X98520000Y-51496735D01*
X98210145Y-51289696D01*
X97841254Y-51136896D01*
X97449642Y-51059000D01*
X97050358Y-51059000D01*
X96658746Y-51136896D01*
X96289855Y-51289696D01*
X95957863Y-51511526D01*
X95675526Y-51793863D01*
X95453696Y-52125855D01*
X95300896Y-52494746D01*
X95223000Y-52886358D01*
X95223000Y-53285642D01*
X95300896Y-53677254D01*
X95453696Y-54046145D01*
X95660735Y-54356000D01*
X95453696Y-54665855D01*
X95300896Y-55034746D01*
X95223000Y-55426358D01*
X95223000Y-55825642D01*
X95300896Y-56217254D01*
X95453696Y-56586145D01*
X95660735Y-56896000D01*
X95453696Y-57205855D01*
X95300896Y-57574746D01*
X95223000Y-57966358D01*
X95223000Y-58365642D01*
X95300896Y-58757254D01*
X95453696Y-59126145D01*
X95675526Y-59458137D01*
X95957863Y-59740474D01*
X96289855Y-59962304D01*
X96658746Y-60115104D01*
X97050358Y-60193000D01*
X97449642Y-60193000D01*
X97841254Y-60115104D01*
X98210145Y-59962304D01*
X98520000Y-59755265D01*
X98829855Y-59962304D01*
X99198746Y-60115104D01*
X99590358Y-60193000D01*
X99989642Y-60193000D01*
X100135924Y-60163903D01*
X100039855Y-60203696D01*
X99707863Y-60425526D01*
X99425526Y-60707863D01*
X99203696Y-61039855D01*
X99050896Y-61408746D01*
X98973000Y-61800358D01*
X98973000Y-62199642D01*
X99050896Y-62591254D01*
X99203696Y-62960145D01*
X99397371Y-63250000D01*
X99203696Y-63539855D01*
X99050896Y-63908746D01*
X98973000Y-64300358D01*
X98973000Y-64699642D01*
X99050896Y-65091254D01*
X99203696Y-65460145D01*
X99425526Y-65792137D01*
X99707863Y-66074474D01*
X99970556Y-66250000D01*
X99707863Y-66425526D01*
X99425526Y-66707863D01*
X99203696Y-67039855D01*
X99050896Y-67408746D01*
X98973000Y-67800358D01*
X98973000Y-68199642D01*
X99050896Y-68591254D01*
X99203696Y-68960145D01*
X99425526Y-69292137D01*
X99707863Y-69574474D01*
X99735589Y-69593000D01*
X99692504Y-69593000D01*
X97072797Y-66973294D01*
X97024976Y-66915024D01*
X96792460Y-66724203D01*
X96527185Y-66582410D01*
X96239344Y-66495095D01*
X96015011Y-66473000D01*
X96015001Y-66473000D01*
X95940000Y-66465613D01*
X95864999Y-66473000D01*
X94632504Y-66473000D01*
X91650930Y-63491427D01*
X91770673Y-63441828D01*
X92000000Y-63288597D01*
X92229327Y-63441828D01*
X92525422Y-63564475D01*
X92839755Y-63627000D01*
X93160245Y-63627000D01*
X93474578Y-63564475D01*
X93770673Y-63441828D01*
X94037152Y-63263773D01*
X94263773Y-63037152D01*
X94441828Y-62770673D01*
X94564475Y-62474578D01*
X94627000Y-62160245D01*
X94627000Y-61839755D01*
X94564475Y-61525422D01*
X94441828Y-61229327D01*
X94263773Y-60962848D01*
X94037152Y-60736227D01*
X93770673Y-60558172D01*
X93474578Y-60435525D01*
X93160245Y-60373000D01*
X92839755Y-60373000D01*
X92525422Y-60435525D01*
X92229327Y-60558172D01*
X92000000Y-60711403D01*
X91770673Y-60558172D01*
X91474578Y-60435525D01*
X91160245Y-60373000D01*
X90839755Y-60373000D01*
X90525422Y-60435525D01*
X90229327Y-60558172D01*
X90000000Y-60711403D01*
X89770673Y-60558172D01*
X89474578Y-60435525D01*
X89160245Y-60373000D01*
X88839755Y-60373000D01*
X88525422Y-60435525D01*
X88229327Y-60558172D01*
X88000000Y-60711403D01*
X87770673Y-60558172D01*
X87474578Y-60435525D01*
X87160245Y-60373000D01*
X86839755Y-60373000D01*
X86525422Y-60435525D01*
X86229327Y-60558172D01*
X85962848Y-60736227D01*
X85929289Y-60769786D01*
X85132797Y-59973294D01*
X85084976Y-59915024D01*
X84852460Y-59724203D01*
X84587185Y-59582410D01*
X84299344Y-59495095D01*
X84075011Y-59473000D01*
X84075001Y-59473000D01*
X84000000Y-59465613D01*
X83924999Y-59473000D01*
X78717925Y-59473000D01*
X78733773Y-59457152D01*
X78911828Y-59190673D01*
X79034475Y-58894578D01*
X79097000Y-58580245D01*
X79097000Y-58259755D01*
X79034475Y-57945422D01*
X78911828Y-57649327D01*
X78733773Y-57382848D01*
X78507152Y-57156227D01*
X78497833Y-57150000D01*
X78507152Y-57143773D01*
X78733773Y-56917152D01*
X78911828Y-56650673D01*
X79034475Y-56354578D01*
X79097000Y-56040245D01*
X79097000Y-55719755D01*
X79034475Y-55405422D01*
X78911828Y-55109327D01*
X78733773Y-54842848D01*
X78507152Y-54616227D01*
X78497833Y-54610000D01*
X78507152Y-54603773D01*
X78733773Y-54377152D01*
X78911828Y-54110673D01*
X79034475Y-53814578D01*
X79097000Y-53500245D01*
X79097000Y-53179755D01*
X79034475Y-52865422D01*
X78911828Y-52569327D01*
X78733773Y-52302848D01*
X78507152Y-52076227D01*
X78497833Y-52070000D01*
X78507152Y-52063773D01*
X78733773Y-51837152D01*
X78911828Y-51570673D01*
X79034475Y-51274578D01*
X79097000Y-50960245D01*
X79097000Y-50639755D01*
X80923000Y-50639755D01*
X80923000Y-50960245D01*
X80985525Y-51274578D01*
X81108172Y-51570673D01*
X81286227Y-51837152D01*
X81512848Y-52063773D01*
X81522167Y-52070000D01*
X81512848Y-52076227D01*
X81286227Y-52302848D01*
X81108172Y-52569327D01*
X80985525Y-52865422D01*
X80923000Y-53179755D01*
X80923000Y-53500245D01*
X80985525Y-53814578D01*
X81108172Y-54110673D01*
X81286227Y-54377152D01*
X81512848Y-54603773D01*
X81522167Y-54610000D01*
X81512848Y-54616227D01*
X81286227Y-54842848D01*
X81108172Y-55109327D01*
X80985525Y-55405422D01*
X80923000Y-55719755D01*
X80923000Y-56040245D01*
X80985525Y-56354578D01*
X81108172Y-56650673D01*
X81286227Y-56917152D01*
X81512848Y-57143773D01*
X81779327Y-57321828D01*
X82075422Y-57444475D01*
X82389755Y-57507000D01*
X82710245Y-57507000D01*
X83024578Y-57444475D01*
X83320673Y-57321828D01*
X83587152Y-57143773D01*
X83813773Y-56917152D01*
X83991828Y-56650673D01*
X84114475Y-56354578D01*
X84177000Y-56040245D01*
X84177000Y-55719755D01*
X84114475Y-55405422D01*
X83991828Y-55109327D01*
X83813773Y-54842848D01*
X83587152Y-54616227D01*
X83577833Y-54610000D01*
X83587152Y-54603773D01*
X83813773Y-54377152D01*
X83991828Y-54110673D01*
X84114475Y-53814578D01*
X84177000Y-53500245D01*
X84177000Y-53179755D01*
X84114475Y-52865422D01*
X83991828Y-52569327D01*
X83813773Y-52302848D01*
X83587152Y-52076227D01*
X83577833Y-52070000D01*
X83587152Y-52063773D01*
X83811170Y-51839755D01*
X85373000Y-51839755D01*
X85373000Y-52160245D01*
X85435525Y-52474578D01*
X85558172Y-52770673D01*
X85736227Y-53037152D01*
X85962848Y-53263773D01*
X86229327Y-53441828D01*
X86525422Y-53564475D01*
X86839755Y-53627000D01*
X87160245Y-53627000D01*
X87474578Y-53564475D01*
X87770673Y-53441828D01*
X88000000Y-53288597D01*
X88229327Y-53441828D01*
X88525422Y-53564475D01*
X88839755Y-53627000D01*
X89160245Y-53627000D01*
X89474578Y-53564475D01*
X89770673Y-53441828D01*
X90000000Y-53288597D01*
X90229327Y-53441828D01*
X90525422Y-53564475D01*
X90839755Y-53627000D01*
X91160245Y-53627000D01*
X91474578Y-53564475D01*
X91770673Y-53441828D01*
X92000000Y-53288597D01*
X92229327Y-53441828D01*
X92525422Y-53564475D01*
X92839755Y-53627000D01*
X93160245Y-53627000D01*
X93474578Y-53564475D01*
X93770673Y-53441828D01*
X94037152Y-53263773D01*
X94263773Y-53037152D01*
X94441828Y-52770673D01*
X94564475Y-52474578D01*
X94627000Y-52160245D01*
X94627000Y-51839755D01*
X94564475Y-51525422D01*
X94441828Y-51229327D01*
X94263773Y-50962848D01*
X94037152Y-50736227D01*
X93770673Y-50558172D01*
X93474578Y-50435525D01*
X93160245Y-50373000D01*
X92839755Y-50373000D01*
X92525422Y-50435525D01*
X92229327Y-50558172D01*
X92000000Y-50711403D01*
X91770673Y-50558172D01*
X91474578Y-50435525D01*
X91160245Y-50373000D01*
X90839755Y-50373000D01*
X90525422Y-50435525D01*
X90229327Y-50558172D01*
X90000000Y-50711403D01*
X89770673Y-50558172D01*
X89474578Y-50435525D01*
X89160245Y-50373000D01*
X88839755Y-50373000D01*
X88525422Y-50435525D01*
X88229327Y-50558172D01*
X88000000Y-50711403D01*
X87770673Y-50558172D01*
X87474578Y-50435525D01*
X87160245Y-50373000D01*
X86839755Y-50373000D01*
X86525422Y-50435525D01*
X86229327Y-50558172D01*
X85962848Y-50736227D01*
X85736227Y-50962848D01*
X85558172Y-51229327D01*
X85435525Y-51525422D01*
X85373000Y-51839755D01*
X83811170Y-51839755D01*
X83813773Y-51837152D01*
X83991828Y-51570673D01*
X84114475Y-51274578D01*
X84177000Y-50960245D01*
X84177000Y-50639755D01*
X84114475Y-50325422D01*
X83991828Y-50029327D01*
X83813773Y-49762848D01*
X83587152Y-49536227D01*
X83320673Y-49358172D01*
X83024578Y-49235525D01*
X82710245Y-49173000D01*
X82389755Y-49173000D01*
X82075422Y-49235525D01*
X81779327Y-49358172D01*
X81512848Y-49536227D01*
X81286227Y-49762848D01*
X81108172Y-50029327D01*
X80985525Y-50325422D01*
X80923000Y-50639755D01*
X79097000Y-50639755D01*
X79034475Y-50325422D01*
X78911828Y-50029327D01*
X78733773Y-49762848D01*
X78507152Y-49536227D01*
X78240673Y-49358172D01*
X77944578Y-49235525D01*
X77630245Y-49173000D01*
X77309755Y-49173000D01*
X76995422Y-49235525D01*
X76835000Y-49301974D01*
X76674578Y-49235525D01*
X76360245Y-49173000D01*
X76039755Y-49173000D01*
X75725422Y-49235525D01*
X75565000Y-49301974D01*
X75404578Y-49235525D01*
X75090245Y-49173000D01*
X74769755Y-49173000D01*
X74455422Y-49235525D01*
X74295000Y-49301974D01*
X74134578Y-49235525D01*
X73820245Y-49173000D01*
X73499755Y-49173000D01*
X73185422Y-49235525D01*
X73025000Y-49301974D01*
X72864578Y-49235525D01*
X72550245Y-49173000D01*
X72229755Y-49173000D01*
X71915422Y-49235525D01*
X71755000Y-49301974D01*
X71594578Y-49235525D01*
X71280245Y-49173000D01*
X70959755Y-49173000D01*
X70645422Y-49235525D01*
X70485000Y-49301974D01*
X70324578Y-49235525D01*
X70010245Y-49173000D01*
X69689755Y-49173000D01*
X69375422Y-49235525D01*
X69215000Y-49301974D01*
X69054578Y-49235525D01*
X68740245Y-49173000D01*
X68419755Y-49173000D01*
X68105422Y-49235525D01*
X67809327Y-49358172D01*
X67542848Y-49536227D01*
X67316227Y-49762848D01*
X67138172Y-50029327D01*
X67015525Y-50325422D01*
X66953000Y-50639755D01*
X66953000Y-50960245D01*
X67015525Y-51274578D01*
X67138172Y-51570673D01*
X67316227Y-51837152D01*
X67542848Y-52063773D01*
X67552167Y-52070000D01*
X67542848Y-52076227D01*
X67316227Y-52302848D01*
X67138172Y-52569327D01*
X67015525Y-52865422D01*
X66953000Y-53179755D01*
X66953000Y-53500245D01*
X67015525Y-53814578D01*
X67138172Y-54110673D01*
X67316227Y-54377152D01*
X67542848Y-54603773D01*
X67552167Y-54610000D01*
X67542848Y-54616227D01*
X67316227Y-54842848D01*
X67138172Y-55109327D01*
X67015525Y-55405422D01*
X66953000Y-55719755D01*
X66953000Y-56040245D01*
X67015525Y-56354578D01*
X67138172Y-56650673D01*
X67316227Y-56917152D01*
X67542848Y-57143773D01*
X67552167Y-57150000D01*
X67542848Y-57156227D01*
X67316227Y-57382848D01*
X67138172Y-57649327D01*
X67015525Y-57945422D01*
X66953000Y-58259755D01*
X66953000Y-58580245D01*
X67015525Y-58894578D01*
X67138172Y-59190673D01*
X67316227Y-59457152D01*
X67542848Y-59683773D01*
X67552167Y-59690000D01*
X67542848Y-59696227D01*
X67316227Y-59922848D01*
X67138172Y-60189327D01*
X67015525Y-60485422D01*
X66953000Y-60799755D01*
X66953000Y-61120245D01*
X67015525Y-61434578D01*
X67138172Y-61730673D01*
X67316227Y-61997152D01*
X67542848Y-62223773D01*
X67809327Y-62401828D01*
X68105422Y-62524475D01*
X68419755Y-62587000D01*
X68740245Y-62587000D01*
X69054578Y-62524475D01*
X69215000Y-62458026D01*
X69375422Y-62524475D01*
X69689755Y-62587000D01*
X70010245Y-62587000D01*
X70324578Y-62524475D01*
X70485000Y-62458026D01*
X70645422Y-62524475D01*
X70959755Y-62587000D01*
X71280245Y-62587000D01*
X71594578Y-62524475D01*
X71755000Y-62458026D01*
X71915422Y-62524475D01*
X72229755Y-62587000D01*
X72550245Y-62587000D01*
X72864578Y-62524475D01*
X73025000Y-62458026D01*
X73185422Y-62524475D01*
X73499755Y-62587000D01*
X73820245Y-62587000D01*
X74134578Y-62524475D01*
X74295000Y-62458026D01*
X74455422Y-62524475D01*
X74769755Y-62587000D01*
X75090245Y-62587000D01*
X75404578Y-62524475D01*
X75565000Y-62458026D01*
X75725422Y-62524475D01*
X76039755Y-62587000D01*
X76360245Y-62587000D01*
X76674578Y-62524475D01*
X76835000Y-62458026D01*
X76995422Y-62524475D01*
X77309755Y-62587000D01*
X77630245Y-62587000D01*
X77931884Y-62527000D01*
X83367497Y-62527000D01*
X83473000Y-62632503D01*
X83473000Y-62924999D01*
X83465613Y-63000000D01*
X83473000Y-63075001D01*
X83473000Y-63075011D01*
X83495095Y-63299344D01*
X83582410Y-63587185D01*
X83724203Y-63852460D01*
X83915025Y-64084976D01*
X83973289Y-64132792D01*
X84867203Y-65026706D01*
X84915024Y-65084976D01*
X85052439Y-65197749D01*
X85147539Y-65275797D01*
X85412815Y-65417590D01*
X85700655Y-65504905D01*
X86000000Y-65534388D01*
X86075011Y-65527000D01*
X89367497Y-65527000D01*
X92867207Y-69026711D01*
X92915024Y-69084976D01*
X93147540Y-69275797D01*
X93412815Y-69417590D01*
X93645282Y-69488107D01*
X93425526Y-69707863D01*
X93203696Y-70039855D01*
X93050896Y-70408746D01*
X93000000Y-70664619D01*
X92949104Y-70408746D01*
X92796304Y-70039855D01*
X92574474Y-69707863D01*
X92292137Y-69425526D01*
X91960145Y-69203696D01*
X91591254Y-69050896D01*
X91199642Y-68973000D01*
X90800358Y-68973000D01*
X90408746Y-69050896D01*
X90039855Y-69203696D01*
X89707863Y-69425526D01*
X89425526Y-69707863D01*
X89203696Y-70039855D01*
X89050896Y-70408746D01*
X88973000Y-70800358D01*
X88973000Y-71199642D01*
X89050896Y-71591254D01*
X89203696Y-71960145D01*
X89425526Y-72292137D01*
X89707863Y-72574474D01*
X90039855Y-72796304D01*
X90408746Y-72949104D01*
X90800358Y-73027000D01*
X91199642Y-73027000D01*
X91591254Y-72949104D01*
X91960145Y-72796304D01*
X92292137Y-72574474D01*
X92574474Y-72292137D01*
X92796304Y-71960145D01*
X92949104Y-71591254D01*
X93000000Y-71335381D01*
X93050896Y-71591254D01*
X93203696Y-71960145D01*
X93425526Y-72292137D01*
X93707863Y-72574474D01*
X94039855Y-72796304D01*
X94408746Y-72949104D01*
X94800358Y-73027000D01*
X95199642Y-73027000D01*
X95591254Y-72949104D01*
X95960145Y-72796304D01*
X96292137Y-72574474D01*
X96574474Y-72292137D01*
X96796304Y-71960145D01*
X96949104Y-71591254D01*
X97019225Y-71238729D01*
X97927208Y-72146712D01*
X97975024Y-72204976D01*
X98207540Y-72395797D01*
X98472815Y-72537590D01*
X98760656Y-72624905D01*
X98984989Y-72647000D01*
X98984998Y-72647000D01*
X99059999Y-72654387D01*
X99135000Y-72647000D01*
X101524999Y-72647000D01*
X101600000Y-72654387D01*
X101675001Y-72647000D01*
X101675011Y-72647000D01*
X101899344Y-72624905D01*
X102187185Y-72537590D01*
X102452460Y-72395797D01*
X102684976Y-72204976D01*
X102732797Y-72146706D01*
X105166713Y-69712791D01*
X105224976Y-69664976D01*
X105415797Y-69432460D01*
X105557590Y-69167185D01*
X105644905Y-68879344D01*
X105667000Y-68655011D01*
X105667000Y-68655002D01*
X105674387Y-68580001D01*
X105667000Y-68505000D01*
X105667000Y-64132503D01*
X108825582Y-60973922D01*
X108889896Y-61297254D01*
X109042696Y-61666145D01*
X109264526Y-61998137D01*
X109546863Y-62280474D01*
X109878855Y-62502304D01*
X110247746Y-62655104D01*
X110639358Y-62733000D01*
X111038642Y-62733000D01*
X111430254Y-62655104D01*
X111799145Y-62502304D01*
X112109000Y-62295265D01*
X112418855Y-62502304D01*
X112787746Y-62655104D01*
X112969582Y-62691273D01*
X112826896Y-63035746D01*
X112749000Y-63427358D01*
X112749000Y-63826642D01*
X112826896Y-64218254D01*
X112979696Y-64587145D01*
X113186735Y-64897000D01*
X112979696Y-65206855D01*
X112826896Y-65575746D01*
X112749000Y-65967358D01*
X112749000Y-66366642D01*
X112826896Y-66758254D01*
X112979696Y-67127145D01*
X113114742Y-67329256D01*
X113002235Y-67254081D01*
X112232971Y-66935441D01*
X111416323Y-66773000D01*
X110583677Y-66773000D01*
X109767029Y-66935441D01*
X108997765Y-67254081D01*
X108305444Y-67716674D01*
X107716674Y-68305444D01*
X107254081Y-68997765D01*
X106935441Y-69767029D01*
X106773000Y-70583677D01*
X106773000Y-71416323D01*
X106935441Y-72232971D01*
X107254081Y-73002235D01*
X107716674Y-73694556D01*
X107970118Y-73948000D01*
X86755773Y-73948000D01*
X86770673Y-73941828D01*
X87037152Y-73763773D01*
X87263773Y-73537152D01*
X87441828Y-73270673D01*
X87564475Y-72974578D01*
X87627000Y-72660245D01*
X87627000Y-72339755D01*
X87564475Y-72025422D01*
X87553945Y-72000000D01*
X87564475Y-71974578D01*
X87627000Y-71660245D01*
X87627000Y-71339755D01*
X87592758Y-71167609D01*
X87660632Y-71003747D01*
X87727000Y-70670095D01*
X87727000Y-70329905D01*
X87660632Y-69996253D01*
X87530447Y-69681959D01*
X87341448Y-69399102D01*
X87100898Y-69158552D01*
X86818041Y-68969553D01*
X86503747Y-68839368D01*
X86170095Y-68773000D01*
X85829905Y-68773000D01*
X85496253Y-68839368D01*
X85181959Y-68969553D01*
X84899102Y-69158552D01*
X84658552Y-69399102D01*
X84469553Y-69681959D01*
X84339368Y-69996253D01*
X84273000Y-70329905D01*
X84273000Y-70670095D01*
X84339368Y-71003747D01*
X84407242Y-71167609D01*
X84373000Y-71339755D01*
X84373000Y-71660245D01*
X84435525Y-71974578D01*
X84446055Y-72000000D01*
X84435525Y-72025422D01*
X84373000Y-72339755D01*
X84373000Y-72660245D01*
X84435525Y-72974578D01*
X84558172Y-73270673D01*
X84736227Y-73537152D01*
X84962848Y-73763773D01*
X85229327Y-73941828D01*
X85244227Y-73948000D01*
X82029882Y-73948000D01*
X82283326Y-73694556D01*
X82745919Y-73002235D01*
X83064559Y-72232971D01*
X83227000Y-71416323D01*
X83227000Y-70583677D01*
X83064559Y-69767029D01*
X82745919Y-68997765D01*
X82283326Y-68305444D01*
X81694556Y-67716674D01*
X81002235Y-67254081D01*
X80232971Y-66935441D01*
X79416323Y-66773000D01*
X78583677Y-66773000D01*
X77767029Y-66935441D01*
X76997765Y-67254081D01*
X76305444Y-67716674D01*
X75716674Y-68305444D01*
X75254081Y-68997765D01*
X74935441Y-69767029D01*
X74773000Y-70583677D01*
X74773000Y-71416323D01*
X74935441Y-72232971D01*
X75254081Y-73002235D01*
X75716674Y-73694556D01*
X75970118Y-73948000D01*
X68801335Y-73948000D01*
X68949104Y-73591254D01*
X69027000Y-73199642D01*
X69027000Y-72800358D01*
X68949104Y-72408746D01*
X68796304Y-72039855D01*
X68633934Y-71796851D01*
X68744770Y-71529270D01*
X68814500Y-71178713D01*
X68814500Y-70821287D01*
X68744770Y-70470730D01*
X68607989Y-70140512D01*
X68409414Y-69843323D01*
X68156677Y-69590586D01*
X67859488Y-69392011D01*
X67529270Y-69255230D01*
X67178713Y-69185500D01*
X66821287Y-69185500D01*
X66470730Y-69255230D01*
X66140512Y-69392011D01*
X65843323Y-69590586D01*
X65590586Y-69843323D01*
X65392011Y-70140512D01*
X65255230Y-70470730D01*
X65185500Y-70821287D01*
X65185500Y-71178713D01*
X65255230Y-71529270D01*
X65366066Y-71796851D01*
X65203696Y-72039855D01*
X65050896Y-72408746D01*
X64973000Y-72800358D01*
X64973000Y-73199642D01*
X65050896Y-73591254D01*
X65198665Y-73948000D01*
X62051450Y-73948000D01*
X61816844Y-73924996D01*
X61640668Y-73871806D01*
X61478177Y-73785408D01*
X61335564Y-73669095D01*
X61218256Y-73527294D01*
X61130725Y-73365410D01*
X61076305Y-73189607D01*
X61052000Y-72958363D01*
X61052000Y-64299755D01*
X73053000Y-64299755D01*
X73053000Y-64620245D01*
X73115525Y-64934578D01*
X73238172Y-65230673D01*
X73416227Y-65497152D01*
X73642848Y-65723773D01*
X73909327Y-65901828D01*
X74205422Y-66024475D01*
X74519755Y-66087000D01*
X74840245Y-66087000D01*
X75154578Y-66024475D01*
X75315000Y-65958026D01*
X75475422Y-66024475D01*
X75789755Y-66087000D01*
X76110245Y-66087000D01*
X76424578Y-66024475D01*
X76585000Y-65958026D01*
X76745422Y-66024475D01*
X77059755Y-66087000D01*
X77380245Y-66087000D01*
X77694578Y-66024475D01*
X77990673Y-65901828D01*
X78257152Y-65723773D01*
X78483773Y-65497152D01*
X78661828Y-65230673D01*
X78784475Y-64934578D01*
X78847000Y-64620245D01*
X78847000Y-64299755D01*
X78784475Y-63985422D01*
X78661828Y-63689327D01*
X78483773Y-63422848D01*
X78257152Y-63196227D01*
X77990673Y-63018172D01*
X77694578Y-62895525D01*
X77380245Y-62833000D01*
X77059755Y-62833000D01*
X76745422Y-62895525D01*
X76585000Y-62961974D01*
X76424578Y-62895525D01*
X76110245Y-62833000D01*
X75789755Y-62833000D01*
X75475422Y-62895525D01*
X75315000Y-62961974D01*
X75154578Y-62895525D01*
X74840245Y-62833000D01*
X74519755Y-62833000D01*
X74205422Y-62895525D01*
X73909327Y-63018172D01*
X73642848Y-63196227D01*
X73416227Y-63422848D01*
X73238172Y-63689327D01*
X73115525Y-63985422D01*
X73053000Y-64299755D01*
X61052000Y-64299755D01*
X61052000Y-42051450D01*
X61075003Y-41816845D01*
X61128194Y-41640668D01*
X61214593Y-41478177D01*
X61330908Y-41335561D01*
X61472705Y-41218256D01*
X61634591Y-41130725D01*
X61810392Y-41076305D01*
X62041636Y-41052000D01*
X75970118Y-41052000D01*
X75716674Y-41305444D01*
G37*
%TD.AperFunction*%
%TD*%
M02*
