M48
INCH,TZ
T1C0.0118
T2C0.0197
T3C0.0276
T4C0.0413
T5C0.0469
T6C0.0472
T7C0.1260
%
G90
G05
T1
X24173Y-17323
X24449Y-16654
X24528Y-18110
X25197Y-18346
X25236Y-16299
X25906Y-16575
X25906Y-18031
X26220Y-17323
X30079Y-17283
X30394Y-18071
X30433Y-16575
X31102Y-16299
X31102Y-18346
X31772Y-16535
X31811Y-18071
X32087Y-17283
X34409Y-27953
X34724Y-28701
X34764Y-27205
X35433Y-28976
X35472Y-26929
X36102Y-28740
X36142Y-27244
X36457Y-27953
X41496Y-18465
X41535Y-27913
X41811Y-17795
X41811Y-28661
X41850Y-19252
X41850Y-27165
X42520Y-17480
X42520Y-19528
X42520Y-26890
X42520Y-28976
X43228Y-17756
X43228Y-27165
X43307Y-19173
X43307Y-28661
X43543Y-18465
X43543Y-27913
T2
X27000Y-20000
X27000Y-20000
X27000Y-21000
X27000Y-22000
X27000Y-22000
X27000Y-23000
X27000Y-24000
X27500Y-20000
X27500Y-20000
X27500Y-21000
X27500Y-22000
X27500Y-22000
X27500Y-23000
X27500Y-24000
X28000Y-20000
X28000Y-21000
X28000Y-22000
X28000Y-23000
X28000Y-24000
X28500Y-20000
X28500Y-21000
X28500Y-22000
X28500Y-23000
X28500Y-24000
X29000Y-20000
X29000Y-22000
X29000Y-24000
X29500Y-20000
X29500Y-21000
X29500Y-22000
X29500Y-23000
X29500Y-24000
X29921Y-25591
X29921Y-25984
X29921Y-27953
X29921Y-28346
X30000Y-20000
X30000Y-21000
X30000Y-22000
X30000Y-23000
X30000Y-24000
X30500Y-20000
X30500Y-21000
X30500Y-22000
X30500Y-23000
X30500Y-24000
X32496Y-25858
X32496Y-26358
X32496Y-26858
X32500Y-19866
X32500Y-21000
X32500Y-22000
X34252Y-20472
X34252Y-24409
X35039Y-20472
X35039Y-24409
X35827Y-20472
X35827Y-24409
X36614Y-20472
X36614Y-24409
X37500Y-25000
X37500Y-26000
X38000Y-25000
X38000Y-26000
X38500Y-25000
X38500Y-26000
X44882Y-16339
X44882Y-16732
X44882Y-18504
X44882Y-18898
T3
X29921Y-26575
X29921Y-27559
X44882Y-17126
X44882Y-18110
T4
X26378Y-25984
X26378Y-27953
X48425Y-17323
X48425Y-19291
T5
X27559Y-17323
X28559Y-17323
T6
X25197Y-19291
X25197Y-20472
X25197Y-21654
X25197Y-22835
X25197Y-24016
X26378Y-25197
X26378Y-28740
X31890Y-27953
X33071Y-27953
X37402Y-27953
X38189Y-18504
X38287Y-21000
X38287Y-22000
X38287Y-23000
X39287Y-21000
X39287Y-22000
X39287Y-23000
X39370Y-18504
X39764Y-24409
X39764Y-25591
X39764Y-26772
X40287Y-21000
X40287Y-22000
X40287Y-23000
X40551Y-18504
X41287Y-21000
X41287Y-22000
X41287Y-23000
X43787Y-21000
X43787Y-22000
X43787Y-23000
X43787Y-24000
X43787Y-25000
X43787Y-26000
X44787Y-21000
X44787Y-22000
X44787Y-23000
X44787Y-24000
X44787Y-25000
X44787Y-26000
X45669Y-27953
X45787Y-21000
X45787Y-22000
X45787Y-23000
X45787Y-24000
X45787Y-25000
X45787Y-26000
X46787Y-21000
X46787Y-22000
X46787Y-23000
X46787Y-24000
X46787Y-25000
X46787Y-26000
X47787Y-22000
X47787Y-23000
X47787Y-24000
X47787Y-25000
X47787Y-26000
X48031Y-27953
X48425Y-16535
X48425Y-20079
X49606Y-21260
X49606Y-22441
X49606Y-24409
X49606Y-26772
T7
X25197Y-17323
X31102Y-17323
X35433Y-27953
X42520Y-18504
X42520Y-27953
T0
M30
