%TF.GenerationSoftware,KiCad,Pcbnew,(5.1.9)-1*%
%TF.CreationDate,2021-06-06T14:42:32+02:00*%
%TF.ProjectId,Yarra_Experimenter,59617272-615f-4457-9870-6572696d656e,rev?*%
%TF.SameCoordinates,Original*%
%TF.FileFunction,Copper,L2,Bot*%
%TF.FilePolarity,Positive*%
%FSLAX46Y46*%
G04 Gerber Fmt 4.6, Leading zero omitted, Abs format (unit mm)*
G04 Created by KiCad (PCBNEW (5.1.9)-1) date 2021-06-06 14:42:32*
%MOMM*%
%LPD*%
G01*
G04 APERTURE LIST*
%TA.AperFunction,ComponentPad*%
%ADD10C,1.200000*%
%TD*%
%TA.AperFunction,ComponentPad*%
%ADD11C,2.000000*%
%TD*%
%TA.AperFunction,SMDPad,CuDef*%
%ADD12R,0.635000X0.635000*%
%TD*%
%TA.AperFunction,ComponentPad*%
%ADD13C,1.400000*%
%TD*%
%TA.AperFunction,ComponentPad*%
%ADD14C,1.575000*%
%TD*%
%TA.AperFunction,ComponentPad*%
%ADD15R,1.575000X1.575000*%
%TD*%
%TA.AperFunction,ConnectorPad*%
%ADD16C,6.400000*%
%TD*%
%TA.AperFunction,ComponentPad*%
%ADD17C,3.600000*%
%TD*%
%TA.AperFunction,ComponentPad*%
%ADD18O,1.740000X2.190000*%
%TD*%
%TA.AperFunction,ViaPad*%
%ADD19C,0.500000*%
%TD*%
%TA.AperFunction,Conductor*%
%ADD20C,3.000000*%
%TD*%
%TA.AperFunction,Conductor*%
%ADD21C,1.000000*%
%TD*%
%TA.AperFunction,Conductor*%
%ADD22C,0.254000*%
%TD*%
%TA.AperFunction,Conductor*%
%ADD23C,0.100000*%
%TD*%
G04 APERTURE END LIST*
D10*
%TO.P,REF\u002A\u002A,1*%
%TO.N,N/C*%
X71120000Y-53340000D03*
%TD*%
%TO.P,REF\u002A\u002A,1*%
%TO.N,N/C*%
X69850000Y-53340000D03*
%TD*%
%TO.P,REF\u002A\u002A,1*%
%TO.N,N/C*%
X68580000Y-53340000D03*
%TD*%
%TO.P,REF\u002A\u002A,1*%
%TO.N,N/C*%
X72390000Y-53340000D03*
%TD*%
%TO.P,REF\u002A\u002A,1*%
%TO.N,N/C*%
X76200000Y-53340000D03*
%TD*%
%TO.P,REF\u002A\u002A,1*%
%TO.N,N/C*%
X74930000Y-53340000D03*
%TD*%
%TO.P,REF\u002A\u002A,1*%
%TO.N,N/C*%
X77470000Y-53340000D03*
%TD*%
D11*
%TO.P,REF\u002A\u002A,1*%
%TO.N,N/C*%
X113760000Y-66040000D03*
%TD*%
%TO.P,REF\u002A\u002A,1*%
%TO.N,N/C*%
X111220000Y-66040000D03*
%TD*%
D12*
%TO.P,REF\u002A\u002A,1*%
%TO.N,N/C*%
X89452500Y-45722500D03*
X88817500Y-45722500D03*
X87547500Y-45722500D03*
X86912500Y-45722500D03*
X86277500Y-45087500D03*
X86277500Y-44452500D03*
X90087500Y-45087500D03*
X90087500Y-44452500D03*
X91357500Y-45087500D03*
X91357500Y-44452500D03*
X85007500Y-45087500D03*
X85007500Y-44452500D03*
X85007500Y-43817500D03*
X85642500Y-43817500D03*
X86277500Y-43817500D03*
X86912500Y-43817500D03*
X87547500Y-43817500D03*
X88182500Y-43817500D03*
X88817500Y-43817500D03*
X89452500Y-43817500D03*
X90087500Y-43817500D03*
X90722500Y-43817500D03*
X91357500Y-43817500D03*
X90087500Y-41277500D03*
X86277500Y-41277500D03*
X86912500Y-41912500D03*
X89452500Y-41912500D03*
X86277500Y-42547500D03*
X86912500Y-42547500D03*
X87547500Y-42547500D03*
X88182500Y-42547500D03*
X88817500Y-42547500D03*
X89452500Y-42547500D03*
X90087500Y-42547500D03*
X90722500Y-43182500D03*
X90087500Y-43182500D03*
X85642500Y-43182500D03*
X86277500Y-43182500D03*
X88817500Y-43182500D03*
X87547500Y-43182500D03*
X88182500Y-43182500D03*
%TD*%
D10*
%TO.P,REF\u002A\u002A,1*%
%TO.N,Net-(C2-Pad1)*%
X77470000Y-60960000D03*
%TD*%
%TO.P,REF\u002A\u002A,1*%
%TO.N,Net-(C2-Pad1)*%
X76200000Y-60960000D03*
%TD*%
%TO.P,REF\u002A\u002A,1*%
%TO.N,Net-(C2-Pad1)*%
X74930000Y-60960000D03*
%TD*%
%TO.P,REF\u002A\u002A,1*%
%TO.N,Net-(C2-Pad1)*%
X73660000Y-60960000D03*
%TD*%
%TO.P,REF\u002A\u002A,1*%
%TO.N,Net-(C2-Pad1)*%
X72390000Y-60960000D03*
%TD*%
%TO.P,REF\u002A\u002A,1*%
%TO.N,Net-(C2-Pad1)*%
X71120000Y-60960000D03*
%TD*%
%TO.P,REF\u002A\u002A,1*%
%TO.N,Net-(C2-Pad1)*%
X69850000Y-60960000D03*
%TD*%
D11*
%TO.P,REF\u002A\u002A,1*%
%TO.N,Net-(C1-Pad2)*%
X81000000Y-71000000D03*
%TD*%
%TO.P,REF\u002A\u002A,1*%
%TO.N,Net-(C1-Pad2)*%
X84000000Y-71000000D03*
%TD*%
%TO.P,REF\u002A\u002A,1*%
%TO.N,N/C*%
X121380000Y-66040000D03*
%TD*%
%TO.P,REF\u002A\u002A,1*%
%TO.N,N/C*%
X121380000Y-63500000D03*
%TD*%
%TO.P,REF\u002A\u002A,1*%
%TO.N,N/C*%
X121380000Y-60960000D03*
%TD*%
%TO.P,REF\u002A\u002A,1*%
%TO.N,N/C*%
X121380000Y-55880000D03*
%TD*%
%TO.P,REF\u002A\u002A,1*%
%TO.N,N/C*%
X121380000Y-58420000D03*
%TD*%
%TO.P,REF\u002A\u002A,1*%
%TO.N,N/C*%
X116300000Y-66040000D03*
%TD*%
%TO.P,REF\u002A\u002A,1*%
%TO.N,N/C*%
X118840000Y-66040000D03*
%TD*%
%TO.P,REF\u002A\u002A,1*%
%TO.N,N/C*%
X113760000Y-63500000D03*
%TD*%
%TO.P,REF\u002A\u002A,1*%
%TO.N,N/C*%
X116300000Y-63500000D03*
%TD*%
%TO.P,REF\u002A\u002A,1*%
%TO.N,N/C*%
X118840000Y-63500000D03*
%TD*%
%TO.P,REF\u002A\u002A,1*%
%TO.N,N/C*%
X113760000Y-60960000D03*
%TD*%
%TO.P,REF\u002A\u002A,1*%
%TO.N,N/C*%
X116300000Y-60960000D03*
%TD*%
%TO.P,REF\u002A\u002A,1*%
%TO.N,N/C*%
X118840000Y-60960000D03*
%TD*%
%TO.P,REF\u002A\u002A,1*%
%TO.N,N/C*%
X113760000Y-58420000D03*
%TD*%
%TO.P,REF\u002A\u002A,1*%
%TO.N,N/C*%
X116300000Y-58420000D03*
%TD*%
%TO.P,REF\u002A\u002A,1*%
%TO.N,N/C*%
X118840000Y-58420000D03*
%TD*%
%TO.P,REF\u002A\u002A,1*%
%TO.N,N/C*%
X113760000Y-55880000D03*
%TD*%
%TO.P,REF\u002A\u002A,1*%
%TO.N,N/C*%
X116300000Y-55880000D03*
%TD*%
%TO.P,REF\u002A\u002A,1*%
%TO.N,N/C*%
X118840000Y-55880000D03*
%TD*%
%TO.P,REF\u002A\u002A,1*%
%TO.N,N/C*%
X104870000Y-53340000D03*
%TD*%
%TO.P,REF\u002A\u002A,1*%
%TO.N,N/C*%
X104870000Y-58420000D03*
%TD*%
%TO.P,REF\u002A\u002A,1*%
%TO.N,N/C*%
X104870000Y-55880000D03*
%TD*%
%TO.P,REF\u002A\u002A,1*%
%TO.N,N/C*%
X102330000Y-53340000D03*
%TD*%
%TO.P,REF\u002A\u002A,1*%
%TO.N,N/C*%
X102330000Y-58420000D03*
%TD*%
%TO.P,REF\u002A\u002A,1*%
%TO.N,N/C*%
X102330000Y-55880000D03*
%TD*%
%TO.P,REF\u002A\u002A,1*%
%TO.N,N/C*%
X99790000Y-53340000D03*
%TD*%
%TO.P,REF\u002A\u002A,1*%
%TO.N,N/C*%
X99790000Y-55880000D03*
%TD*%
%TO.P,REF\u002A\u002A,1*%
%TO.N,N/C*%
X99790000Y-58420000D03*
%TD*%
%TO.P,REF\u002A\u002A,1*%
%TO.N,N/C*%
X118840000Y-53340000D03*
%TD*%
%TO.P,REF\u002A\u002A,1*%
%TO.N,N/C*%
X116300000Y-53340000D03*
%TD*%
%TO.P,REF\u002A\u002A,1*%
%TO.N,N/C*%
X113760000Y-53340000D03*
%TD*%
%TO.P,REF\u002A\u002A,1*%
%TO.N,N/C*%
X111220000Y-53340000D03*
%TD*%
%TO.P,REF\u002A\u002A,1*%
%TO.N,N/C*%
X111220000Y-63500000D03*
%TD*%
%TO.P,REF\u002A\u002A,1*%
%TO.N,N/C*%
X111220000Y-60960000D03*
%TD*%
%TO.P,REF\u002A\u002A,1*%
%TO.N,N/C*%
X111220000Y-58420000D03*
%TD*%
%TO.P,REF\u002A\u002A,1*%
%TO.N,N/C*%
X111220000Y-55880000D03*
%TD*%
%TO.P,REF\u002A\u002A,1*%
%TO.N,N/C*%
X97250000Y-58420000D03*
%TD*%
%TO.P,REF\u002A\u002A,1*%
%TO.N,N/C*%
X97250000Y-55880000D03*
%TD*%
%TO.P,REF\u002A\u002A,1*%
%TO.N,N/C*%
X97250000Y-53340000D03*
%TD*%
D10*
%TO.P,REF\u002A\u002A,1*%
%TO.N,N/C*%
X77470000Y-58420000D03*
%TD*%
%TO.P,REF\u002A\u002A,1*%
%TO.N,N/C*%
X71120000Y-55880000D03*
%TD*%
%TO.P,REF\u002A\u002A,1*%
%TO.N,N/C*%
X71120000Y-50800000D03*
%TD*%
%TO.P,REF\u002A\u002A,1*%
%TO.N,N/C*%
X68580000Y-50800000D03*
%TD*%
%TO.P,REF\u002A\u002A,1*%
%TO.N,N/C*%
X68580000Y-50800000D03*
%TD*%
%TO.P,REF\u002A\u002A,1*%
%TO.N,N/C*%
X69850000Y-50800000D03*
%TD*%
%TO.P,REF\u002A\u002A,1*%
%TO.N,N/C*%
X69850000Y-50800000D03*
%TD*%
%TO.P,REF\u002A\u002A,1*%
%TO.N,N/C*%
X68580000Y-55880000D03*
%TD*%
%TO.P,REF\u002A\u002A,1*%
%TO.N,N/C*%
X68580000Y-55880000D03*
%TD*%
%TO.P,REF\u002A\u002A,1*%
%TO.N,N/C*%
X69850000Y-55880000D03*
%TD*%
%TO.P,REF\u002A\u002A,1*%
%TO.N,N/C*%
X69850000Y-55880000D03*
%TD*%
%TO.P,REF\u002A\u002A,1*%
%TO.N,Net-(C2-Pad1)*%
X68580000Y-60960000D03*
%TD*%
%TO.P,REF\u002A\u002A,1*%
%TO.N,N/C*%
X95250000Y-66040000D03*
%TD*%
%TO.P,REF\u002A\u002A,1*%
%TO.N,N/C*%
X96520000Y-66040000D03*
%TD*%
%TO.P,REF\u002A\u002A,1*%
%TO.N,N/C*%
X97790000Y-66040000D03*
%TD*%
%TO.P,REF\u002A\u002A,1*%
%TO.N,N/C*%
X96520000Y-63500000D03*
%TD*%
%TO.P,REF\u002A\u002A,1*%
%TO.N,N/C*%
X97790000Y-63500000D03*
%TD*%
%TO.P,REF\u002A\u002A,1*%
%TO.N,N/C*%
X95250000Y-63500000D03*
%TD*%
%TO.P,REF\u002A\u002A,1*%
%TO.N,Net-(C1-Pad2)*%
X82540000Y-65680000D03*
%TD*%
%TO.P,REF\u002A\u002A,1*%
%TO.N,Net-(C1-Pad2)*%
X82540000Y-68220000D03*
%TD*%
%TO.P,REF\u002A\u002A,1*%
%TO.N,Net-(C1-Pad2)*%
X82540000Y-66950000D03*
%TD*%
%TO.P,REF\u002A\u002A,1*%
%TO.N,N/C*%
X68580000Y-58420000D03*
%TD*%
%TO.P,REF\u002A\u002A,1*%
%TO.N,N/C*%
X71120000Y-58420000D03*
%TD*%
%TO.P,REF\u002A\u002A,1*%
%TO.N,N/C*%
X69850000Y-58420000D03*
%TD*%
%TO.P,REF\u002A\u002A,1*%
%TO.N,N/C*%
X76200000Y-58420000D03*
%TD*%
%TO.P,REF\u002A\u002A,1*%
%TO.N,N/C*%
X74930000Y-58420000D03*
%TD*%
%TO.P,REF\u002A\u002A,1*%
%TO.N,N/C*%
X72390000Y-58420000D03*
%TD*%
%TO.P,REF\u002A\u002A,1*%
%TO.N,N/C*%
X77470000Y-50800000D03*
%TD*%
%TO.P,REF\u002A\u002A,1*%
%TO.N,N/C*%
X76200000Y-50800000D03*
%TD*%
%TO.P,REF\u002A\u002A,1*%
%TO.N,N/C*%
X73660000Y-50800000D03*
%TD*%
%TO.P,REF\u002A\u002A,1*%
%TO.N,N/C*%
X72390000Y-50800000D03*
%TD*%
%TO.P,REF\u002A\u002A,1*%
%TO.N,N/C*%
X74930000Y-50800000D03*
%TD*%
%TO.P,REF\u002A\u002A,1*%
%TO.N,Net-(H3-Pad1)*%
X82550000Y-55880000D03*
%TD*%
%TO.P,REF\u002A\u002A,1*%
%TO.N,Net-(H3-Pad1)*%
X82550000Y-50460000D03*
%TD*%
%TO.P,REF\u002A\u002A,1*%
%TO.N,Net-(H3-Pad1)*%
X82550000Y-53340000D03*
%TD*%
D11*
%TO.P,REF\u002A\u002A,1*%
%TO.N,Net-(C2-Pad1)*%
X103000000Y-47000000D03*
%TD*%
%TO.P,REF\u002A\u002A,1*%
%TO.N,Net-(C2-Pad1)*%
X100000000Y-47000000D03*
%TD*%
%TO.P,REF\u002A\u002A,1*%
%TO.N,Net-(C2-Pad1)*%
X97000000Y-47000000D03*
%TD*%
D10*
%TO.P,REF\u002A\u002A,1*%
%TO.N,N/C*%
X77470000Y-55880000D03*
%TD*%
%TO.P,REF\u002A\u002A,1*%
%TO.N,N/C*%
X76200000Y-55880000D03*
%TD*%
%TO.P,REF\u002A\u002A,1*%
%TO.N,N/C*%
X72390000Y-55880000D03*
%TD*%
D11*
%TO.P,REF\u002A\u002A,1*%
%TO.N,GNDREF*%
X64000000Y-61000000D03*
%TD*%
%TO.P,REF\u002A\u002A,1*%
%TO.N,GNDREF*%
X64000000Y-58000000D03*
%TD*%
%TO.P,REF\u002A\u002A,1*%
%TO.N,GNDREF*%
X64000000Y-52000000D03*
%TD*%
%TO.P,REF\u002A\u002A,1*%
%TO.N,GNDREF*%
X64000000Y-55000000D03*
%TD*%
%TO.P,REF\u002A\u002A,1*%
%TO.N,GNDREF*%
X64000000Y-49000000D03*
%TD*%
%TO.P,REF\u002A\u002A,1*%
%TO.N,N/C*%
X95000000Y-71000000D03*
%TD*%
%TO.P,REF\u002A\u002A,1*%
%TO.N,N/C*%
X101000000Y-62000000D03*
%TD*%
%TO.P,REF\u002A\u002A,1*%
%TO.N,N/C*%
X101000000Y-68000000D03*
%TD*%
%TO.P,REF\u002A\u002A,1*%
%TO.N,N/C*%
X101000000Y-65000000D03*
%TD*%
D10*
%TO.P,REF\u002A\u002A,1*%
%TO.N,Net-(C2-Pad1)*%
X114000000Y-48000000D03*
%TD*%
%TO.P,REF\u002A\u002A,1*%
%TO.N,Net-(C2-Pad1)*%
X114000000Y-47000000D03*
%TD*%
%TO.P,REF\u002A\u002A,1*%
%TO.N,GNDREF*%
X114000000Y-41500000D03*
%TD*%
%TO.P,REF\u002A\u002A,1*%
%TO.N,GNDREF*%
X114000000Y-42500000D03*
%TD*%
D13*
%TO.P,C4,2*%
%TO.N,GNDREF*%
X114000000Y-43500000D03*
%TO.P,C4,1*%
%TO.N,Net-(C2-Pad1)*%
X114000000Y-46000000D03*
%TD*%
%TO.P,C3,2*%
%TO.N,GNDREF*%
X76000000Y-67500000D03*
%TO.P,C3,1*%
%TO.N,Net-(C1-Pad2)*%
X76000000Y-70000000D03*
%TD*%
D11*
%TO.P,REF\u002A\u002A,1*%
%TO.N,GNDREF*%
X123000000Y-42000000D03*
%TD*%
D10*
%TO.P,REF\u002A\u002A,1*%
%TO.N,N/C*%
X73660000Y-55880000D03*
%TD*%
%TO.P,REF\u002A\u002A,1*%
%TO.N,N/C*%
X74930000Y-55880000D03*
%TD*%
D14*
%TO.P,C1,2*%
%TO.N,Net-(C1-Pad2)*%
X67000000Y-71000000D03*
D15*
%TO.P,C1,1*%
%TO.N,GNDREF*%
X67000000Y-66000000D03*
%TD*%
D14*
%TO.P,C2,2*%
%TO.N,GNDREF*%
X123000000Y-44000000D03*
D15*
%TO.P,C2,1*%
%TO.N,Net-(C2-Pad1)*%
X123000000Y-49000000D03*
%TD*%
D10*
%TO.P,REF\u002A\u002A,1*%
%TO.N,N/C*%
X93000000Y-62000000D03*
%TD*%
%TO.P,REF\u002A\u002A,1*%
%TO.N,N/C*%
X91000000Y-62000000D03*
%TD*%
%TO.P,REF\u002A\u002A,1*%
%TO.N,N/C*%
X89000000Y-62000000D03*
%TD*%
%TO.P,REF\u002A\u002A,1*%
%TO.N,N/C*%
X87000000Y-62000000D03*
%TD*%
%TO.P,REF\u002A\u002A,1*%
%TO.N,N/C*%
X93000000Y-52000000D03*
%TD*%
%TO.P,REF\u002A\u002A,1*%
%TO.N,N/C*%
X91000000Y-52000000D03*
%TD*%
%TO.P,REF\u002A\u002A,1*%
%TO.N,N/C*%
X89000000Y-52000000D03*
%TD*%
%TO.P,REF\u002A\u002A,1*%
%TO.N,N/C*%
X87000000Y-52000000D03*
%TD*%
D11*
%TO.P,REF\u002A\u002A,1*%
%TO.N,N/C*%
X116000000Y-71000000D03*
%TD*%
%TO.P,REF\u002A\u002A,1*%
%TO.N,N/C*%
X126000000Y-62000000D03*
%TD*%
%TO.P,REF\u002A\u002A,1*%
%TO.N,N/C*%
X122000000Y-71000000D03*
%TD*%
%TO.P,REF\u002A\u002A,1*%
%TO.N,Net-(C2-Pad1)*%
X123000000Y-51000000D03*
%TD*%
%TO.P,REF\u002A\u002A,1*%
%TO.N,Net-(C1-Pad2)*%
X67000000Y-73000000D03*
%TD*%
%TO.P,REF\u002A\u002A,1*%
%TO.N,GNDREF*%
X67000000Y-64000000D03*
%TD*%
%TO.P,REF\u002A\u002A,1*%
%TO.N,N/C*%
X126000000Y-68000000D03*
%TD*%
%TO.P,REF\u002A\u002A,1*%
%TO.N,Net-(C2-Pad1)*%
X126000000Y-54000000D03*
%TD*%
%TO.P,REF\u002A\u002A,1*%
%TO.N,Net-(C2-Pad1)*%
X126000000Y-57000000D03*
%TD*%
D10*
%TO.P,REF\u002A\u002A,1*%
%TO.N,Net-(C1-Pad2)*%
X76000000Y-72000000D03*
%TD*%
%TO.P,REF\u002A\u002A,1*%
%TO.N,Net-(C1-Pad2)*%
X76000000Y-71000000D03*
%TD*%
%TO.P,REF\u002A\u002A,1*%
%TO.N,GNDREF*%
X76000000Y-65000000D03*
%TD*%
%TO.P,REF\u002A\u002A,1*%
%TO.N,GNDREF*%
X76000000Y-66000000D03*
%TD*%
D16*
%TO.P,H5,1*%
%TO.N,GNDREF*%
X64000000Y-44000000D03*
D17*
X64000000Y-44000000D03*
%TD*%
D16*
%TO.P,H1,1*%
%TO.N,Net-(C2-Pad1)*%
X108000000Y-47000000D03*
D17*
X108000000Y-47000000D03*
%TD*%
D16*
%TO.P,H2,1*%
%TO.N,Net-(C1-Pad2)*%
X90000000Y-71000000D03*
D17*
X90000000Y-71000000D03*
%TD*%
D16*
%TO.P,H3,1*%
%TO.N,Net-(H3-Pad1)*%
X79000000Y-44000000D03*
D17*
X79000000Y-44000000D03*
%TD*%
D16*
%TO.P,H4,1*%
%TO.N,Net-(H4-Pad1)*%
X108000000Y-71000000D03*
D17*
X108000000Y-71000000D03*
%TD*%
D18*
%TO.P,GND,2*%
%TO.N,GNDREF*%
X72540000Y-44000000D03*
%TO.P,GND,1*%
%TA.AperFunction,ComponentPad*%
G36*
G01*
X69130000Y-44845001D02*
X69130000Y-43154999D01*
G75*
G02*
X69379999Y-42905000I249999J0D01*
G01*
X70620001Y-42905000D01*
G75*
G02*
X70870000Y-43154999I0J-249999D01*
G01*
X70870000Y-44845001D01*
G75*
G02*
X70620001Y-45095000I-249999J0D01*
G01*
X69379999Y-45095000D01*
G75*
G02*
X69130000Y-44845001I0J249999D01*
G01*
G37*
%TD.AperFunction*%
%TD*%
D19*
%TO.N,Net-(C1-Pad2)*%
X87400000Y-71000000D03*
X90000000Y-73600000D03*
X90100000Y-68400000D03*
X91800000Y-69200000D03*
X88300000Y-69100000D03*
X88200000Y-72900000D03*
X91700000Y-73000000D03*
%TO.N,Net-(H4-Pad1)*%
X108000000Y-68300000D03*
X108000000Y-73600000D03*
X110600000Y-70900000D03*
X105500000Y-70900000D03*
X106300000Y-69000000D03*
X109800000Y-69000000D03*
X110000000Y-72800000D03*
X106200000Y-72800000D03*
%TO.N,Net-(C2-Pad1)*%
X108000000Y-44400000D03*
X108000000Y-49600000D03*
X110600000Y-46900000D03*
X105400000Y-46900000D03*
X106200000Y-45200000D03*
X109800000Y-45100000D03*
X110000000Y-48700000D03*
X106300000Y-48900000D03*
%TO.N,Net-(H3-Pad1)*%
X79000000Y-46600000D03*
X81500000Y-43900000D03*
X76400000Y-43900000D03*
X79000000Y-41400000D03*
X77300000Y-42100000D03*
X80700000Y-42000000D03*
X80800000Y-45900000D03*
X77200000Y-45900000D03*
%TO.N,GNDREF*%
X64100000Y-41400000D03*
X64000000Y-46600000D03*
X66600000Y-44000000D03*
X61400000Y-44000000D03*
X62100000Y-42300000D03*
X65800000Y-42100000D03*
X65800000Y-45800000D03*
X62300000Y-46000000D03*
%TO.N,Net-(C1-Pad2)*%
X92600000Y-71000000D03*
%TD*%
D20*
%TO.N,GNDREF*%
X67000000Y-66000000D02*
X76000000Y-66000000D01*
D21*
%TO.N,Net-(C2-Pad1)*%
X81280000Y-60960000D02*
X80010000Y-60960000D01*
X95250000Y-68580000D02*
X92710000Y-66040000D01*
X96520000Y-68580000D02*
X95250000Y-68580000D01*
X99060000Y-71120000D02*
X96520000Y-68580000D01*
X80010000Y-60960000D02*
X77470000Y-60960000D01*
X92710000Y-66040000D02*
X86360000Y-66040000D01*
X101600000Y-71120000D02*
X99060000Y-71120000D01*
X104140000Y-68580000D02*
X101600000Y-71120000D01*
X86360000Y-66040000D02*
X81280000Y-60960000D01*
X104140000Y-63500000D02*
X104140000Y-68580000D01*
X108000000Y-59640000D02*
X104140000Y-63500000D01*
X108000000Y-47000000D02*
X108000000Y-59640000D01*
%TD*%
D22*
%TO.N,GNDREF*%
X75716674Y-41305444D02*
X75254081Y-41997765D01*
X74935441Y-42767029D01*
X74773000Y-43583677D01*
X74773000Y-44416323D01*
X74935441Y-45232971D01*
X75254081Y-46002235D01*
X75716674Y-46694556D01*
X76305444Y-47283326D01*
X76997765Y-47745919D01*
X77767029Y-48064559D01*
X78583677Y-48227000D01*
X79416323Y-48227000D01*
X80232971Y-48064559D01*
X81002235Y-47745919D01*
X81694556Y-47283326D01*
X82283326Y-46694556D01*
X82745919Y-46002235D01*
X83064559Y-45232971D01*
X83227000Y-44416323D01*
X83227000Y-43583677D01*
X83064559Y-42767029D01*
X82745919Y-41997765D01*
X82283326Y-41305444D01*
X82029882Y-41052000D01*
X84928031Y-41052000D01*
X84928031Y-41595000D01*
X84947860Y-41796327D01*
X84978379Y-41896935D01*
X84930083Y-41911585D01*
X84751669Y-42006949D01*
X84595288Y-42135288D01*
X84466949Y-42291669D01*
X84371585Y-42470083D01*
X84353780Y-42528780D01*
X84295083Y-42546585D01*
X84116669Y-42641949D01*
X83960288Y-42770288D01*
X83831949Y-42926669D01*
X83736585Y-43105083D01*
X83677860Y-43298673D01*
X83658031Y-43500000D01*
X83658031Y-45405000D01*
X83677860Y-45606327D01*
X83736585Y-45799917D01*
X83831949Y-45978331D01*
X83960288Y-46134712D01*
X84116669Y-46263051D01*
X84295083Y-46358415D01*
X84488673Y-46417140D01*
X84690000Y-46436969D01*
X85325000Y-46436969D01*
X85526327Y-46417140D01*
X85626935Y-46386621D01*
X85641585Y-46434917D01*
X85736949Y-46613331D01*
X85865288Y-46769712D01*
X86021669Y-46898051D01*
X86200083Y-46993415D01*
X86393673Y-47052140D01*
X86595000Y-47071969D01*
X87865000Y-47071969D01*
X88066327Y-47052140D01*
X88182500Y-47016899D01*
X88298673Y-47052140D01*
X88500000Y-47071969D01*
X89770000Y-47071969D01*
X89971327Y-47052140D01*
X90164917Y-46993415D01*
X90343331Y-46898051D01*
X90499712Y-46769712D01*
X90628051Y-46613331D01*
X90723415Y-46434917D01*
X90738065Y-46386621D01*
X90838673Y-46417140D01*
X91040000Y-46436969D01*
X91675000Y-46436969D01*
X91876327Y-46417140D01*
X92069917Y-46358415D01*
X92248331Y-46263051D01*
X92404712Y-46134712D01*
X92533051Y-45978331D01*
X92628415Y-45799917D01*
X92687140Y-45606327D01*
X92706969Y-45405000D01*
X92706969Y-43500000D01*
X92687140Y-43298673D01*
X92628415Y-43105083D01*
X92533051Y-42926669D01*
X92404712Y-42770288D01*
X92248331Y-42641949D01*
X92069917Y-42546585D01*
X92011220Y-42528780D01*
X91993415Y-42470083D01*
X91898051Y-42291669D01*
X91769712Y-42135288D01*
X91613331Y-42006949D01*
X91434917Y-41911585D01*
X91386621Y-41896935D01*
X91417140Y-41796327D01*
X91436969Y-41595000D01*
X91436969Y-41052000D01*
X127564249Y-41052000D01*
X128948000Y-42435752D01*
X128948001Y-72948540D01*
X128924996Y-73183156D01*
X128871806Y-73359332D01*
X128785408Y-73521823D01*
X128669095Y-73664436D01*
X128527294Y-73781744D01*
X128365410Y-73869275D01*
X128189607Y-73923695D01*
X127958363Y-73948000D01*
X111029882Y-73948000D01*
X111283326Y-73694556D01*
X111745919Y-73002235D01*
X112064559Y-72232971D01*
X112227000Y-71416323D01*
X112227000Y-70800358D01*
X113973000Y-70800358D01*
X113973000Y-71199642D01*
X114050896Y-71591254D01*
X114203696Y-71960145D01*
X114425526Y-72292137D01*
X114707863Y-72574474D01*
X115039855Y-72796304D01*
X115408746Y-72949104D01*
X115800358Y-73027000D01*
X116199642Y-73027000D01*
X116591254Y-72949104D01*
X116960145Y-72796304D01*
X117292137Y-72574474D01*
X117574474Y-72292137D01*
X117796304Y-71960145D01*
X117949104Y-71591254D01*
X118027000Y-71199642D01*
X118027000Y-70800358D01*
X119973000Y-70800358D01*
X119973000Y-71199642D01*
X120050896Y-71591254D01*
X120203696Y-71960145D01*
X120425526Y-72292137D01*
X120707863Y-72574474D01*
X121039855Y-72796304D01*
X121408746Y-72949104D01*
X121800358Y-73027000D01*
X122199642Y-73027000D01*
X122591254Y-72949104D01*
X122960145Y-72796304D01*
X123292137Y-72574474D01*
X123574474Y-72292137D01*
X123796304Y-71960145D01*
X123949104Y-71591254D01*
X124027000Y-71199642D01*
X124027000Y-70800358D01*
X123949104Y-70408746D01*
X123796304Y-70039855D01*
X123574474Y-69707863D01*
X123292137Y-69425526D01*
X122960145Y-69203696D01*
X122591254Y-69050896D01*
X122199642Y-68973000D01*
X121800358Y-68973000D01*
X121408746Y-69050896D01*
X121039855Y-69203696D01*
X120707863Y-69425526D01*
X120425526Y-69707863D01*
X120203696Y-70039855D01*
X120050896Y-70408746D01*
X119973000Y-70800358D01*
X118027000Y-70800358D01*
X117949104Y-70408746D01*
X117796304Y-70039855D01*
X117574474Y-69707863D01*
X117292137Y-69425526D01*
X116960145Y-69203696D01*
X116591254Y-69050896D01*
X116199642Y-68973000D01*
X115800358Y-68973000D01*
X115408746Y-69050896D01*
X115039855Y-69203696D01*
X114707863Y-69425526D01*
X114425526Y-69707863D01*
X114203696Y-70039855D01*
X114050896Y-70408746D01*
X113973000Y-70800358D01*
X112227000Y-70800358D01*
X112227000Y-70583677D01*
X112064559Y-69767029D01*
X111745919Y-68997765D01*
X111283326Y-68305444D01*
X111044882Y-68067000D01*
X111419642Y-68067000D01*
X111811254Y-67989104D01*
X112180145Y-67836304D01*
X112490000Y-67629265D01*
X112799855Y-67836304D01*
X113168746Y-67989104D01*
X113560358Y-68067000D01*
X113959642Y-68067000D01*
X114351254Y-67989104D01*
X114720145Y-67836304D01*
X115030000Y-67629265D01*
X115339855Y-67836304D01*
X115708746Y-67989104D01*
X116100358Y-68067000D01*
X116499642Y-68067000D01*
X116891254Y-67989104D01*
X117260145Y-67836304D01*
X117570000Y-67629265D01*
X117879855Y-67836304D01*
X118248746Y-67989104D01*
X118640358Y-68067000D01*
X119039642Y-68067000D01*
X119431254Y-67989104D01*
X119800145Y-67836304D01*
X120110000Y-67629265D01*
X120419855Y-67836304D01*
X120788746Y-67989104D01*
X121180358Y-68067000D01*
X121579642Y-68067000D01*
X121971254Y-67989104D01*
X122340145Y-67836304D01*
X122393941Y-67800358D01*
X123973000Y-67800358D01*
X123973000Y-68199642D01*
X124050896Y-68591254D01*
X124203696Y-68960145D01*
X124425526Y-69292137D01*
X124707863Y-69574474D01*
X125039855Y-69796304D01*
X125408746Y-69949104D01*
X125800358Y-70027000D01*
X126199642Y-70027000D01*
X126591254Y-69949104D01*
X126960145Y-69796304D01*
X127292137Y-69574474D01*
X127574474Y-69292137D01*
X127796304Y-68960145D01*
X127949104Y-68591254D01*
X128027000Y-68199642D01*
X128027000Y-67800358D01*
X127949104Y-67408746D01*
X127796304Y-67039855D01*
X127574474Y-66707863D01*
X127292137Y-66425526D01*
X126960145Y-66203696D01*
X126591254Y-66050896D01*
X126199642Y-65973000D01*
X125800358Y-65973000D01*
X125408746Y-66050896D01*
X125039855Y-66203696D01*
X124707863Y-66425526D01*
X124425526Y-66707863D01*
X124203696Y-67039855D01*
X124050896Y-67408746D01*
X123973000Y-67800358D01*
X122393941Y-67800358D01*
X122672137Y-67614474D01*
X122954474Y-67332137D01*
X123176304Y-67000145D01*
X123329104Y-66631254D01*
X123407000Y-66239642D01*
X123407000Y-65840358D01*
X123329104Y-65448746D01*
X123176304Y-65079855D01*
X122969265Y-64770000D01*
X123176304Y-64460145D01*
X123329104Y-64091254D01*
X123407000Y-63699642D01*
X123407000Y-63300358D01*
X123329104Y-62908746D01*
X123176304Y-62539855D01*
X122969265Y-62230000D01*
X123176304Y-61920145D01*
X123225921Y-61800358D01*
X123973000Y-61800358D01*
X123973000Y-62199642D01*
X124050896Y-62591254D01*
X124203696Y-62960145D01*
X124425526Y-63292137D01*
X124707863Y-63574474D01*
X125039855Y-63796304D01*
X125408746Y-63949104D01*
X125800358Y-64027000D01*
X126199642Y-64027000D01*
X126591254Y-63949104D01*
X126960145Y-63796304D01*
X127292137Y-63574474D01*
X127574474Y-63292137D01*
X127796304Y-62960145D01*
X127949104Y-62591254D01*
X128027000Y-62199642D01*
X128027000Y-61800358D01*
X127949104Y-61408746D01*
X127796304Y-61039855D01*
X127574474Y-60707863D01*
X127292137Y-60425526D01*
X126960145Y-60203696D01*
X126591254Y-60050896D01*
X126199642Y-59973000D01*
X125800358Y-59973000D01*
X125408746Y-60050896D01*
X125039855Y-60203696D01*
X124707863Y-60425526D01*
X124425526Y-60707863D01*
X124203696Y-61039855D01*
X124050896Y-61408746D01*
X123973000Y-61800358D01*
X123225921Y-61800358D01*
X123329104Y-61551254D01*
X123407000Y-61159642D01*
X123407000Y-60760358D01*
X123329104Y-60368746D01*
X123176304Y-59999855D01*
X122969265Y-59690000D01*
X123176304Y-59380145D01*
X123329104Y-59011254D01*
X123407000Y-58619642D01*
X123407000Y-58220358D01*
X123329104Y-57828746D01*
X123176304Y-57459855D01*
X122969265Y-57150000D01*
X123176304Y-56840145D01*
X123329104Y-56471254D01*
X123407000Y-56079642D01*
X123407000Y-55680358D01*
X123329104Y-55288746D01*
X123176304Y-54919855D01*
X122954474Y-54587863D01*
X122672137Y-54305526D01*
X122340145Y-54083696D01*
X121971254Y-53930896D01*
X121579642Y-53853000D01*
X121180358Y-53853000D01*
X120789193Y-53930807D01*
X120815140Y-53800358D01*
X123973000Y-53800358D01*
X123973000Y-54199642D01*
X124050896Y-54591254D01*
X124203696Y-54960145D01*
X124425526Y-55292137D01*
X124633389Y-55500000D01*
X124425526Y-55707863D01*
X124203696Y-56039855D01*
X124050896Y-56408746D01*
X123973000Y-56800358D01*
X123973000Y-57199642D01*
X124050896Y-57591254D01*
X124203696Y-57960145D01*
X124425526Y-58292137D01*
X124707863Y-58574474D01*
X125039855Y-58796304D01*
X125408746Y-58949104D01*
X125800358Y-59027000D01*
X126199642Y-59027000D01*
X126591254Y-58949104D01*
X126960145Y-58796304D01*
X127292137Y-58574474D01*
X127574474Y-58292137D01*
X127796304Y-57960145D01*
X127949104Y-57591254D01*
X128027000Y-57199642D01*
X128027000Y-56800358D01*
X127949104Y-56408746D01*
X127796304Y-56039855D01*
X127574474Y-55707863D01*
X127366611Y-55500000D01*
X127574474Y-55292137D01*
X127796304Y-54960145D01*
X127949104Y-54591254D01*
X128027000Y-54199642D01*
X128027000Y-53800358D01*
X127949104Y-53408746D01*
X127796304Y-53039855D01*
X127574474Y-52707863D01*
X127292137Y-52425526D01*
X126960145Y-52203696D01*
X126591254Y-52050896D01*
X126199642Y-51973000D01*
X125800358Y-51973000D01*
X125408746Y-52050896D01*
X125039855Y-52203696D01*
X124707863Y-52425526D01*
X124425526Y-52707863D01*
X124203696Y-53039855D01*
X124050896Y-53408746D01*
X123973000Y-53800358D01*
X120815140Y-53800358D01*
X120867000Y-53539642D01*
X120867000Y-53140358D01*
X120789104Y-52748746D01*
X120636304Y-52379855D01*
X120414474Y-52047863D01*
X120132137Y-51765526D01*
X119800145Y-51543696D01*
X119431254Y-51390896D01*
X119039642Y-51313000D01*
X118640358Y-51313000D01*
X118248746Y-51390896D01*
X117879855Y-51543696D01*
X117570000Y-51750735D01*
X117260145Y-51543696D01*
X116891254Y-51390896D01*
X116499642Y-51313000D01*
X116100358Y-51313000D01*
X115708746Y-51390896D01*
X115339855Y-51543696D01*
X115030000Y-51750735D01*
X114720145Y-51543696D01*
X114351254Y-51390896D01*
X113959642Y-51313000D01*
X113560358Y-51313000D01*
X113168746Y-51390896D01*
X112799855Y-51543696D01*
X112490000Y-51750735D01*
X112180145Y-51543696D01*
X111811254Y-51390896D01*
X111419642Y-51313000D01*
X111020358Y-51313000D01*
X110628746Y-51390896D01*
X110259855Y-51543696D01*
X109927863Y-51765526D01*
X109645526Y-52047863D01*
X109527000Y-52225250D01*
X109527000Y-50942768D01*
X109870807Y-50800358D01*
X120973000Y-50800358D01*
X120973000Y-51199642D01*
X121050896Y-51591254D01*
X121203696Y-51960145D01*
X121425526Y-52292137D01*
X121707863Y-52574474D01*
X122039855Y-52796304D01*
X122408746Y-52949104D01*
X122800358Y-53027000D01*
X123199642Y-53027000D01*
X123591254Y-52949104D01*
X123960145Y-52796304D01*
X124292137Y-52574474D01*
X124574474Y-52292137D01*
X124796304Y-51960145D01*
X124949104Y-51591254D01*
X125027000Y-51199642D01*
X125027000Y-50800358D01*
X124949104Y-50408746D01*
X124796304Y-50039855D01*
X124787952Y-50027356D01*
X124799640Y-49988827D01*
X124819469Y-49787500D01*
X124819469Y-48212500D01*
X124799640Y-48011173D01*
X124740915Y-47817583D01*
X124645551Y-47639169D01*
X124517212Y-47482788D01*
X124360831Y-47354449D01*
X124182417Y-47259085D01*
X123988827Y-47200360D01*
X123787500Y-47180531D01*
X122212500Y-47180531D01*
X122011173Y-47200360D01*
X121817583Y-47259085D01*
X121639169Y-47354449D01*
X121482788Y-47482788D01*
X121354449Y-47639169D01*
X121259085Y-47817583D01*
X121200360Y-48011173D01*
X121180531Y-48212500D01*
X121180531Y-49787500D01*
X121200360Y-49988827D01*
X121212048Y-50027356D01*
X121203696Y-50039855D01*
X121050896Y-50408746D01*
X120973000Y-50800358D01*
X109870807Y-50800358D01*
X110002235Y-50745919D01*
X110694556Y-50283326D01*
X111283326Y-49694556D01*
X111745919Y-49002235D01*
X112064559Y-48232971D01*
X112227000Y-47416323D01*
X112227000Y-46583677D01*
X112077066Y-45829905D01*
X112273000Y-45829905D01*
X112273000Y-46170095D01*
X112339368Y-46503747D01*
X112407242Y-46667609D01*
X112373000Y-46839755D01*
X112373000Y-47160245D01*
X112435525Y-47474578D01*
X112446055Y-47500000D01*
X112435525Y-47525422D01*
X112373000Y-47839755D01*
X112373000Y-48160245D01*
X112435525Y-48474578D01*
X112558172Y-48770673D01*
X112736227Y-49037152D01*
X112962848Y-49263773D01*
X113229327Y-49441828D01*
X113525422Y-49564475D01*
X113839755Y-49627000D01*
X114160245Y-49627000D01*
X114474578Y-49564475D01*
X114770673Y-49441828D01*
X115037152Y-49263773D01*
X115263773Y-49037152D01*
X115441828Y-48770673D01*
X115564475Y-48474578D01*
X115627000Y-48160245D01*
X115627000Y-47839755D01*
X115564475Y-47525422D01*
X115553945Y-47500000D01*
X115564475Y-47474578D01*
X115627000Y-47160245D01*
X115627000Y-46839755D01*
X115592758Y-46667609D01*
X115660632Y-46503747D01*
X115727000Y-46170095D01*
X115727000Y-45829905D01*
X115660632Y-45496253D01*
X115530447Y-45181959D01*
X115341448Y-44899102D01*
X115100898Y-44658552D01*
X114818041Y-44469553D01*
X114503747Y-44339368D01*
X114170095Y-44273000D01*
X113829905Y-44273000D01*
X113496253Y-44339368D01*
X113181959Y-44469553D01*
X112899102Y-44658552D01*
X112658552Y-44899102D01*
X112469553Y-45181959D01*
X112339368Y-45496253D01*
X112273000Y-45829905D01*
X112077066Y-45829905D01*
X112064559Y-45767029D01*
X111745919Y-44997765D01*
X111283326Y-44305444D01*
X110694556Y-43716674D01*
X110002235Y-43254081D01*
X109232971Y-42935441D01*
X108416323Y-42773000D01*
X107583677Y-42773000D01*
X106767029Y-42935441D01*
X105997765Y-43254081D01*
X105305444Y-43716674D01*
X104716674Y-44305444D01*
X104254081Y-44997765D01*
X104123555Y-45312883D01*
X103960145Y-45203696D01*
X103591254Y-45050896D01*
X103199642Y-44973000D01*
X102800358Y-44973000D01*
X102408746Y-45050896D01*
X102039855Y-45203696D01*
X101707863Y-45425526D01*
X101500000Y-45633389D01*
X101292137Y-45425526D01*
X100960145Y-45203696D01*
X100591254Y-45050896D01*
X100199642Y-44973000D01*
X99800358Y-44973000D01*
X99408746Y-45050896D01*
X99039855Y-45203696D01*
X98707863Y-45425526D01*
X98500000Y-45633389D01*
X98292137Y-45425526D01*
X97960145Y-45203696D01*
X97591254Y-45050896D01*
X97199642Y-44973000D01*
X96800358Y-44973000D01*
X96408746Y-45050896D01*
X96039855Y-45203696D01*
X95707863Y-45425526D01*
X95425526Y-45707863D01*
X95203696Y-46039855D01*
X95050896Y-46408746D01*
X94973000Y-46800358D01*
X94973000Y-47199642D01*
X95050896Y-47591254D01*
X95203696Y-47960145D01*
X95425526Y-48292137D01*
X95707863Y-48574474D01*
X96039855Y-48796304D01*
X96408746Y-48949104D01*
X96800358Y-49027000D01*
X97199642Y-49027000D01*
X97591254Y-48949104D01*
X97960145Y-48796304D01*
X98292137Y-48574474D01*
X98500000Y-48366611D01*
X98707863Y-48574474D01*
X99039855Y-48796304D01*
X99408746Y-48949104D01*
X99800358Y-49027000D01*
X100199642Y-49027000D01*
X100591254Y-48949104D01*
X100960145Y-48796304D01*
X101292137Y-48574474D01*
X101500000Y-48366611D01*
X101707863Y-48574474D01*
X102039855Y-48796304D01*
X102408746Y-48949104D01*
X102800358Y-49027000D01*
X103199642Y-49027000D01*
X103591254Y-48949104D01*
X103960145Y-48796304D01*
X104123555Y-48687117D01*
X104254081Y-49002235D01*
X104716674Y-49694556D01*
X105305444Y-50283326D01*
X105997765Y-50745919D01*
X106473000Y-50942768D01*
X106473000Y-52090556D01*
X106444474Y-52047863D01*
X106162137Y-51765526D01*
X105830145Y-51543696D01*
X105461254Y-51390896D01*
X105069642Y-51313000D01*
X104670358Y-51313000D01*
X104278746Y-51390896D01*
X103909855Y-51543696D01*
X103600000Y-51750735D01*
X103290145Y-51543696D01*
X102921254Y-51390896D01*
X102529642Y-51313000D01*
X102130358Y-51313000D01*
X101738746Y-51390896D01*
X101369855Y-51543696D01*
X101060000Y-51750735D01*
X100750145Y-51543696D01*
X100381254Y-51390896D01*
X99989642Y-51313000D01*
X99590358Y-51313000D01*
X99198746Y-51390896D01*
X98829855Y-51543696D01*
X98520000Y-51750735D01*
X98210145Y-51543696D01*
X97841254Y-51390896D01*
X97449642Y-51313000D01*
X97050358Y-51313000D01*
X96658746Y-51390896D01*
X96289855Y-51543696D01*
X95957863Y-51765526D01*
X95675526Y-52047863D01*
X95453696Y-52379855D01*
X95300896Y-52748746D01*
X95223000Y-53140358D01*
X95223000Y-53539642D01*
X95300896Y-53931254D01*
X95453696Y-54300145D01*
X95660735Y-54610000D01*
X95453696Y-54919855D01*
X95300896Y-55288746D01*
X95223000Y-55680358D01*
X95223000Y-56079642D01*
X95300896Y-56471254D01*
X95453696Y-56840145D01*
X95660735Y-57150000D01*
X95453696Y-57459855D01*
X95300896Y-57828746D01*
X95223000Y-58220358D01*
X95223000Y-58619642D01*
X95300896Y-59011254D01*
X95453696Y-59380145D01*
X95675526Y-59712137D01*
X95957863Y-59994474D01*
X96289855Y-60216304D01*
X96658746Y-60369104D01*
X97050358Y-60447000D01*
X97449642Y-60447000D01*
X97841254Y-60369104D01*
X98210145Y-60216304D01*
X98520000Y-60009265D01*
X98829855Y-60216304D01*
X99198746Y-60369104D01*
X99590358Y-60447000D01*
X99686389Y-60447000D01*
X99425526Y-60707863D01*
X99203696Y-61039855D01*
X99050896Y-61408746D01*
X98973000Y-61800358D01*
X98973000Y-62199642D01*
X99018298Y-62427373D01*
X98827152Y-62236227D01*
X98560673Y-62058172D01*
X98264578Y-61935525D01*
X97950245Y-61873000D01*
X97629755Y-61873000D01*
X97315422Y-61935525D01*
X97155000Y-62001974D01*
X96994578Y-61935525D01*
X96680245Y-61873000D01*
X96359755Y-61873000D01*
X96045422Y-61935525D01*
X95885000Y-62001974D01*
X95724578Y-61935525D01*
X95410245Y-61873000D01*
X95089755Y-61873000D01*
X94775422Y-61935525D01*
X94627000Y-61997004D01*
X94627000Y-61839755D01*
X94564475Y-61525422D01*
X94441828Y-61229327D01*
X94263773Y-60962848D01*
X94037152Y-60736227D01*
X93770673Y-60558172D01*
X93474578Y-60435525D01*
X93160245Y-60373000D01*
X92839755Y-60373000D01*
X92525422Y-60435525D01*
X92229327Y-60558172D01*
X92000000Y-60711403D01*
X91770673Y-60558172D01*
X91474578Y-60435525D01*
X91160245Y-60373000D01*
X90839755Y-60373000D01*
X90525422Y-60435525D01*
X90229327Y-60558172D01*
X90000000Y-60711403D01*
X89770673Y-60558172D01*
X89474578Y-60435525D01*
X89160245Y-60373000D01*
X88839755Y-60373000D01*
X88525422Y-60435525D01*
X88229327Y-60558172D01*
X88000000Y-60711403D01*
X87770673Y-60558172D01*
X87474578Y-60435525D01*
X87160245Y-60373000D01*
X86839755Y-60373000D01*
X86525422Y-60435525D01*
X86229327Y-60558172D01*
X85962848Y-60736227D01*
X85736227Y-60962848D01*
X85558172Y-61229327D01*
X85435525Y-61525422D01*
X85373000Y-61839755D01*
X85373000Y-62160245D01*
X85435525Y-62474578D01*
X85558172Y-62770673D01*
X85736227Y-63037152D01*
X85962848Y-63263773D01*
X86229327Y-63441828D01*
X86525422Y-63564475D01*
X86839755Y-63627000D01*
X87160245Y-63627000D01*
X87474578Y-63564475D01*
X87770673Y-63441828D01*
X88000000Y-63288597D01*
X88229327Y-63441828D01*
X88525422Y-63564475D01*
X88839755Y-63627000D01*
X89160245Y-63627000D01*
X89474578Y-63564475D01*
X89770673Y-63441828D01*
X90000000Y-63288597D01*
X90229327Y-63441828D01*
X90525422Y-63564475D01*
X90839755Y-63627000D01*
X91160245Y-63627000D01*
X91474578Y-63564475D01*
X91770673Y-63441828D01*
X92000000Y-63288597D01*
X92229327Y-63441828D01*
X92525422Y-63564475D01*
X92839755Y-63627000D01*
X93160245Y-63627000D01*
X93474578Y-63564475D01*
X93623000Y-63502996D01*
X93623000Y-63660245D01*
X93685525Y-63974578D01*
X93808172Y-64270673D01*
X93986227Y-64537152D01*
X94212848Y-64763773D01*
X94222167Y-64770000D01*
X94212848Y-64776227D01*
X93986227Y-65002848D01*
X93924593Y-65095090D01*
X93842797Y-65013294D01*
X93794976Y-64955024D01*
X93562460Y-64764203D01*
X93297185Y-64622410D01*
X93009344Y-64535095D01*
X92785011Y-64513000D01*
X92785001Y-64513000D01*
X92710000Y-64505613D01*
X92634999Y-64513000D01*
X86992504Y-64513000D01*
X82412797Y-59933294D01*
X82364976Y-59875024D01*
X82132460Y-59684203D01*
X81867185Y-59542410D01*
X81579344Y-59455095D01*
X81355011Y-59433000D01*
X81355001Y-59433000D01*
X81280000Y-59425613D01*
X81204999Y-59433000D01*
X78749911Y-59433000D01*
X78911828Y-59190673D01*
X79034475Y-58894578D01*
X79097000Y-58580245D01*
X79097000Y-58259755D01*
X79034475Y-57945422D01*
X78911828Y-57649327D01*
X78733773Y-57382848D01*
X78507152Y-57156227D01*
X78497833Y-57150000D01*
X78507152Y-57143773D01*
X78733773Y-56917152D01*
X78911828Y-56650673D01*
X79034475Y-56354578D01*
X79097000Y-56040245D01*
X79097000Y-55719755D01*
X79034475Y-55405422D01*
X78911828Y-55109327D01*
X78733773Y-54842848D01*
X78507152Y-54616227D01*
X78497833Y-54610000D01*
X78507152Y-54603773D01*
X78733773Y-54377152D01*
X78911828Y-54110673D01*
X79034475Y-53814578D01*
X79097000Y-53500245D01*
X79097000Y-53179755D01*
X79034475Y-52865422D01*
X78911828Y-52569327D01*
X78733773Y-52302848D01*
X78507152Y-52076227D01*
X78497833Y-52070000D01*
X78507152Y-52063773D01*
X78733773Y-51837152D01*
X78911828Y-51570673D01*
X79034475Y-51274578D01*
X79097000Y-50960245D01*
X79097000Y-50639755D01*
X79034475Y-50325422D01*
X79023844Y-50299755D01*
X80923000Y-50299755D01*
X80923000Y-50620245D01*
X80985525Y-50934578D01*
X81108172Y-51230673D01*
X81286227Y-51497152D01*
X81512848Y-51723773D01*
X81776591Y-51900000D01*
X81512848Y-52076227D01*
X81286227Y-52302848D01*
X81108172Y-52569327D01*
X80985525Y-52865422D01*
X80923000Y-53179755D01*
X80923000Y-53500245D01*
X80985525Y-53814578D01*
X81108172Y-54110673D01*
X81286227Y-54377152D01*
X81512848Y-54603773D01*
X81522167Y-54610000D01*
X81512848Y-54616227D01*
X81286227Y-54842848D01*
X81108172Y-55109327D01*
X80985525Y-55405422D01*
X80923000Y-55719755D01*
X80923000Y-56040245D01*
X80985525Y-56354578D01*
X81108172Y-56650673D01*
X81286227Y-56917152D01*
X81512848Y-57143773D01*
X81779327Y-57321828D01*
X82075422Y-57444475D01*
X82389755Y-57507000D01*
X82710245Y-57507000D01*
X83024578Y-57444475D01*
X83320673Y-57321828D01*
X83587152Y-57143773D01*
X83813773Y-56917152D01*
X83991828Y-56650673D01*
X84114475Y-56354578D01*
X84177000Y-56040245D01*
X84177000Y-55719755D01*
X84114475Y-55405422D01*
X83991828Y-55109327D01*
X83813773Y-54842848D01*
X83587152Y-54616227D01*
X83577833Y-54610000D01*
X83587152Y-54603773D01*
X83813773Y-54377152D01*
X83991828Y-54110673D01*
X84114475Y-53814578D01*
X84177000Y-53500245D01*
X84177000Y-53179755D01*
X84114475Y-52865422D01*
X83991828Y-52569327D01*
X83813773Y-52302848D01*
X83587152Y-52076227D01*
X83323409Y-51900000D01*
X83413572Y-51839755D01*
X85373000Y-51839755D01*
X85373000Y-52160245D01*
X85435525Y-52474578D01*
X85558172Y-52770673D01*
X85736227Y-53037152D01*
X85962848Y-53263773D01*
X86229327Y-53441828D01*
X86525422Y-53564475D01*
X86839755Y-53627000D01*
X87160245Y-53627000D01*
X87474578Y-53564475D01*
X87770673Y-53441828D01*
X88000000Y-53288597D01*
X88229327Y-53441828D01*
X88525422Y-53564475D01*
X88839755Y-53627000D01*
X89160245Y-53627000D01*
X89474578Y-53564475D01*
X89770673Y-53441828D01*
X90000000Y-53288597D01*
X90229327Y-53441828D01*
X90525422Y-53564475D01*
X90839755Y-53627000D01*
X91160245Y-53627000D01*
X91474578Y-53564475D01*
X91770673Y-53441828D01*
X92000000Y-53288597D01*
X92229327Y-53441828D01*
X92525422Y-53564475D01*
X92839755Y-53627000D01*
X93160245Y-53627000D01*
X93474578Y-53564475D01*
X93770673Y-53441828D01*
X94037152Y-53263773D01*
X94263773Y-53037152D01*
X94441828Y-52770673D01*
X94564475Y-52474578D01*
X94627000Y-52160245D01*
X94627000Y-51839755D01*
X94564475Y-51525422D01*
X94441828Y-51229327D01*
X94263773Y-50962848D01*
X94037152Y-50736227D01*
X93770673Y-50558172D01*
X93474578Y-50435525D01*
X93160245Y-50373000D01*
X92839755Y-50373000D01*
X92525422Y-50435525D01*
X92229327Y-50558172D01*
X92000000Y-50711403D01*
X91770673Y-50558172D01*
X91474578Y-50435525D01*
X91160245Y-50373000D01*
X90839755Y-50373000D01*
X90525422Y-50435525D01*
X90229327Y-50558172D01*
X90000000Y-50711403D01*
X89770673Y-50558172D01*
X89474578Y-50435525D01*
X89160245Y-50373000D01*
X88839755Y-50373000D01*
X88525422Y-50435525D01*
X88229327Y-50558172D01*
X88000000Y-50711403D01*
X87770673Y-50558172D01*
X87474578Y-50435525D01*
X87160245Y-50373000D01*
X86839755Y-50373000D01*
X86525422Y-50435525D01*
X86229327Y-50558172D01*
X85962848Y-50736227D01*
X85736227Y-50962848D01*
X85558172Y-51229327D01*
X85435525Y-51525422D01*
X85373000Y-51839755D01*
X83413572Y-51839755D01*
X83587152Y-51723773D01*
X83813773Y-51497152D01*
X83991828Y-51230673D01*
X84114475Y-50934578D01*
X84177000Y-50620245D01*
X84177000Y-50299755D01*
X84114475Y-49985422D01*
X83991828Y-49689327D01*
X83813773Y-49422848D01*
X83587152Y-49196227D01*
X83320673Y-49018172D01*
X83024578Y-48895525D01*
X82710245Y-48833000D01*
X82389755Y-48833000D01*
X82075422Y-48895525D01*
X81779327Y-49018172D01*
X81512848Y-49196227D01*
X81286227Y-49422848D01*
X81108172Y-49689327D01*
X80985525Y-49985422D01*
X80923000Y-50299755D01*
X79023844Y-50299755D01*
X78911828Y-50029327D01*
X78733773Y-49762848D01*
X78507152Y-49536227D01*
X78240673Y-49358172D01*
X77944578Y-49235525D01*
X77630245Y-49173000D01*
X77309755Y-49173000D01*
X76995422Y-49235525D01*
X76835000Y-49301974D01*
X76674578Y-49235525D01*
X76360245Y-49173000D01*
X76039755Y-49173000D01*
X75725422Y-49235525D01*
X75565000Y-49301974D01*
X75404578Y-49235525D01*
X75090245Y-49173000D01*
X74769755Y-49173000D01*
X74455422Y-49235525D01*
X74295000Y-49301974D01*
X74134578Y-49235525D01*
X73820245Y-49173000D01*
X73499755Y-49173000D01*
X73185422Y-49235525D01*
X73025000Y-49301974D01*
X72864578Y-49235525D01*
X72550245Y-49173000D01*
X72229755Y-49173000D01*
X71915422Y-49235525D01*
X71755000Y-49301974D01*
X71594578Y-49235525D01*
X71280245Y-49173000D01*
X70959755Y-49173000D01*
X70645422Y-49235525D01*
X70485000Y-49301974D01*
X70324578Y-49235525D01*
X70010245Y-49173000D01*
X69689755Y-49173000D01*
X69375422Y-49235525D01*
X69215000Y-49301974D01*
X69054578Y-49235525D01*
X68740245Y-49173000D01*
X68419755Y-49173000D01*
X68105422Y-49235525D01*
X67809327Y-49358172D01*
X67542848Y-49536227D01*
X67316227Y-49762848D01*
X67138172Y-50029327D01*
X67015525Y-50325422D01*
X66953000Y-50639755D01*
X66953000Y-50960245D01*
X67015525Y-51274578D01*
X67138172Y-51570673D01*
X67316227Y-51837152D01*
X67542848Y-52063773D01*
X67552167Y-52070000D01*
X67542848Y-52076227D01*
X67316227Y-52302848D01*
X67138172Y-52569327D01*
X67015525Y-52865422D01*
X66953000Y-53179755D01*
X66953000Y-53500245D01*
X67015525Y-53814578D01*
X67138172Y-54110673D01*
X67316227Y-54377152D01*
X67542848Y-54603773D01*
X67552167Y-54610000D01*
X67542848Y-54616227D01*
X67316227Y-54842848D01*
X67138172Y-55109327D01*
X67015525Y-55405422D01*
X66953000Y-55719755D01*
X66953000Y-56040245D01*
X67015525Y-56354578D01*
X67138172Y-56650673D01*
X67316227Y-56917152D01*
X67542848Y-57143773D01*
X67552167Y-57150000D01*
X67542848Y-57156227D01*
X67316227Y-57382848D01*
X67138172Y-57649327D01*
X67015525Y-57945422D01*
X66953000Y-58259755D01*
X66953000Y-58580245D01*
X67015525Y-58894578D01*
X67138172Y-59190673D01*
X67316227Y-59457152D01*
X67542848Y-59683773D01*
X67552167Y-59690000D01*
X67542848Y-59696227D01*
X67316227Y-59922848D01*
X67138172Y-60189327D01*
X67015525Y-60485422D01*
X66953000Y-60799755D01*
X66953000Y-61120245D01*
X67015525Y-61434578D01*
X67138172Y-61730673D01*
X67316227Y-61997152D01*
X67542848Y-62223773D01*
X67809327Y-62401828D01*
X68105422Y-62524475D01*
X68419755Y-62587000D01*
X68740245Y-62587000D01*
X69054578Y-62524475D01*
X69215000Y-62458026D01*
X69375422Y-62524475D01*
X69689755Y-62587000D01*
X70010245Y-62587000D01*
X70324578Y-62524475D01*
X70485000Y-62458026D01*
X70645422Y-62524475D01*
X70959755Y-62587000D01*
X71280245Y-62587000D01*
X71594578Y-62524475D01*
X71755000Y-62458026D01*
X71915422Y-62524475D01*
X72229755Y-62587000D01*
X72550245Y-62587000D01*
X72864578Y-62524475D01*
X73025000Y-62458026D01*
X73185422Y-62524475D01*
X73499755Y-62587000D01*
X73820245Y-62587000D01*
X74134578Y-62524475D01*
X74295000Y-62458026D01*
X74455422Y-62524475D01*
X74769755Y-62587000D01*
X75090245Y-62587000D01*
X75404578Y-62524475D01*
X75565000Y-62458026D01*
X75725422Y-62524475D01*
X76039755Y-62587000D01*
X76360245Y-62587000D01*
X76674578Y-62524475D01*
X76835000Y-62458026D01*
X76995422Y-62524475D01*
X77309755Y-62587000D01*
X77630245Y-62587000D01*
X77944578Y-62524475D01*
X78035050Y-62487000D01*
X80647497Y-62487000D01*
X82241081Y-64080584D01*
X82065422Y-64115525D01*
X81769327Y-64238172D01*
X81502848Y-64416227D01*
X81276227Y-64642848D01*
X81098172Y-64909327D01*
X80975525Y-65205422D01*
X80913000Y-65519755D01*
X80913000Y-65840245D01*
X80975525Y-66154578D01*
X81041974Y-66315000D01*
X80975525Y-66475422D01*
X80913000Y-66789755D01*
X80913000Y-67110245D01*
X80975525Y-67424578D01*
X81041974Y-67585000D01*
X80975525Y-67745422D01*
X80913000Y-68059755D01*
X80913000Y-68380245D01*
X80975525Y-68694578D01*
X81090852Y-68973000D01*
X80800358Y-68973000D01*
X80408746Y-69050896D01*
X80039855Y-69203696D01*
X79707863Y-69425526D01*
X79425526Y-69707863D01*
X79203696Y-70039855D01*
X79050896Y-70408746D01*
X78973000Y-70800358D01*
X78973000Y-71199642D01*
X79050896Y-71591254D01*
X79203696Y-71960145D01*
X79425526Y-72292137D01*
X79707863Y-72574474D01*
X80039855Y-72796304D01*
X80408746Y-72949104D01*
X80800358Y-73027000D01*
X81199642Y-73027000D01*
X81591254Y-72949104D01*
X81960145Y-72796304D01*
X82292137Y-72574474D01*
X82500000Y-72366611D01*
X82707863Y-72574474D01*
X83039855Y-72796304D01*
X83408746Y-72949104D01*
X83800358Y-73027000D01*
X84199642Y-73027000D01*
X84591254Y-72949104D01*
X84960145Y-72796304D01*
X85292137Y-72574474D01*
X85574474Y-72292137D01*
X85796304Y-71960145D01*
X85853639Y-71821725D01*
X85935441Y-72232971D01*
X86254081Y-73002235D01*
X86716674Y-73694556D01*
X86970118Y-73948000D01*
X68801335Y-73948000D01*
X68949104Y-73591254D01*
X69027000Y-73199642D01*
X69027000Y-72800358D01*
X68949104Y-72408746D01*
X68796304Y-72039855D01*
X68633934Y-71796851D01*
X68744770Y-71529270D01*
X68814500Y-71178713D01*
X68814500Y-70821287D01*
X68744770Y-70470730D01*
X68607989Y-70140512D01*
X68409414Y-69843323D01*
X68395996Y-69829905D01*
X74273000Y-69829905D01*
X74273000Y-70170095D01*
X74339368Y-70503747D01*
X74407242Y-70667609D01*
X74373000Y-70839755D01*
X74373000Y-71160245D01*
X74435525Y-71474578D01*
X74446055Y-71500000D01*
X74435525Y-71525422D01*
X74373000Y-71839755D01*
X74373000Y-72160245D01*
X74435525Y-72474578D01*
X74558172Y-72770673D01*
X74736227Y-73037152D01*
X74962848Y-73263773D01*
X75229327Y-73441828D01*
X75525422Y-73564475D01*
X75839755Y-73627000D01*
X76160245Y-73627000D01*
X76474578Y-73564475D01*
X76770673Y-73441828D01*
X77037152Y-73263773D01*
X77263773Y-73037152D01*
X77441828Y-72770673D01*
X77564475Y-72474578D01*
X77627000Y-72160245D01*
X77627000Y-71839755D01*
X77564475Y-71525422D01*
X77553945Y-71500000D01*
X77564475Y-71474578D01*
X77627000Y-71160245D01*
X77627000Y-70839755D01*
X77592758Y-70667609D01*
X77660632Y-70503747D01*
X77727000Y-70170095D01*
X77727000Y-69829905D01*
X77660632Y-69496253D01*
X77530447Y-69181959D01*
X77341448Y-68899102D01*
X77100898Y-68658552D01*
X76818041Y-68469553D01*
X76503747Y-68339368D01*
X76170095Y-68273000D01*
X75829905Y-68273000D01*
X75496253Y-68339368D01*
X75181959Y-68469553D01*
X74899102Y-68658552D01*
X74658552Y-68899102D01*
X74469553Y-69181959D01*
X74339368Y-69496253D01*
X74273000Y-69829905D01*
X68395996Y-69829905D01*
X68156677Y-69590586D01*
X67859488Y-69392011D01*
X67529270Y-69255230D01*
X67178713Y-69185500D01*
X66821287Y-69185500D01*
X66470730Y-69255230D01*
X66140512Y-69392011D01*
X65843323Y-69590586D01*
X65590586Y-69843323D01*
X65392011Y-70140512D01*
X65255230Y-70470730D01*
X65185500Y-70821287D01*
X65185500Y-71178713D01*
X65255230Y-71529270D01*
X65366066Y-71796851D01*
X65203696Y-72039855D01*
X65050896Y-72408746D01*
X64973000Y-72800358D01*
X64973000Y-73199642D01*
X65050896Y-73591254D01*
X65198665Y-73948000D01*
X62051450Y-73948000D01*
X61816844Y-73924996D01*
X61640668Y-73871806D01*
X61478177Y-73785408D01*
X61335564Y-73669095D01*
X61218256Y-73527294D01*
X61130725Y-73365410D01*
X61076305Y-73189607D01*
X61052000Y-72958363D01*
X61052000Y-42051450D01*
X61075003Y-41816845D01*
X61128194Y-41640668D01*
X61214593Y-41478177D01*
X61330908Y-41335561D01*
X61472705Y-41218256D01*
X61634591Y-41130725D01*
X61810392Y-41076305D01*
X62041636Y-41052000D01*
X75970118Y-41052000D01*
X75716674Y-41305444D01*
%TA.AperFunction,Conductor*%
D23*
G36*
X75716674Y-41305444D02*
G01*
X75254081Y-41997765D01*
X74935441Y-42767029D01*
X74773000Y-43583677D01*
X74773000Y-44416323D01*
X74935441Y-45232971D01*
X75254081Y-46002235D01*
X75716674Y-46694556D01*
X76305444Y-47283326D01*
X76997765Y-47745919D01*
X77767029Y-48064559D01*
X78583677Y-48227000D01*
X79416323Y-48227000D01*
X80232971Y-48064559D01*
X81002235Y-47745919D01*
X81694556Y-47283326D01*
X82283326Y-46694556D01*
X82745919Y-46002235D01*
X83064559Y-45232971D01*
X83227000Y-44416323D01*
X83227000Y-43583677D01*
X83064559Y-42767029D01*
X82745919Y-41997765D01*
X82283326Y-41305444D01*
X82029882Y-41052000D01*
X84928031Y-41052000D01*
X84928031Y-41595000D01*
X84947860Y-41796327D01*
X84978379Y-41896935D01*
X84930083Y-41911585D01*
X84751669Y-42006949D01*
X84595288Y-42135288D01*
X84466949Y-42291669D01*
X84371585Y-42470083D01*
X84353780Y-42528780D01*
X84295083Y-42546585D01*
X84116669Y-42641949D01*
X83960288Y-42770288D01*
X83831949Y-42926669D01*
X83736585Y-43105083D01*
X83677860Y-43298673D01*
X83658031Y-43500000D01*
X83658031Y-45405000D01*
X83677860Y-45606327D01*
X83736585Y-45799917D01*
X83831949Y-45978331D01*
X83960288Y-46134712D01*
X84116669Y-46263051D01*
X84295083Y-46358415D01*
X84488673Y-46417140D01*
X84690000Y-46436969D01*
X85325000Y-46436969D01*
X85526327Y-46417140D01*
X85626935Y-46386621D01*
X85641585Y-46434917D01*
X85736949Y-46613331D01*
X85865288Y-46769712D01*
X86021669Y-46898051D01*
X86200083Y-46993415D01*
X86393673Y-47052140D01*
X86595000Y-47071969D01*
X87865000Y-47071969D01*
X88066327Y-47052140D01*
X88182500Y-47016899D01*
X88298673Y-47052140D01*
X88500000Y-47071969D01*
X89770000Y-47071969D01*
X89971327Y-47052140D01*
X90164917Y-46993415D01*
X90343331Y-46898051D01*
X90499712Y-46769712D01*
X90628051Y-46613331D01*
X90723415Y-46434917D01*
X90738065Y-46386621D01*
X90838673Y-46417140D01*
X91040000Y-46436969D01*
X91675000Y-46436969D01*
X91876327Y-46417140D01*
X92069917Y-46358415D01*
X92248331Y-46263051D01*
X92404712Y-46134712D01*
X92533051Y-45978331D01*
X92628415Y-45799917D01*
X92687140Y-45606327D01*
X92706969Y-45405000D01*
X92706969Y-43500000D01*
X92687140Y-43298673D01*
X92628415Y-43105083D01*
X92533051Y-42926669D01*
X92404712Y-42770288D01*
X92248331Y-42641949D01*
X92069917Y-42546585D01*
X92011220Y-42528780D01*
X91993415Y-42470083D01*
X91898051Y-42291669D01*
X91769712Y-42135288D01*
X91613331Y-42006949D01*
X91434917Y-41911585D01*
X91386621Y-41896935D01*
X91417140Y-41796327D01*
X91436969Y-41595000D01*
X91436969Y-41052000D01*
X127564249Y-41052000D01*
X128948000Y-42435752D01*
X128948001Y-72948540D01*
X128924996Y-73183156D01*
X128871806Y-73359332D01*
X128785408Y-73521823D01*
X128669095Y-73664436D01*
X128527294Y-73781744D01*
X128365410Y-73869275D01*
X128189607Y-73923695D01*
X127958363Y-73948000D01*
X111029882Y-73948000D01*
X111283326Y-73694556D01*
X111745919Y-73002235D01*
X112064559Y-72232971D01*
X112227000Y-71416323D01*
X112227000Y-70800358D01*
X113973000Y-70800358D01*
X113973000Y-71199642D01*
X114050896Y-71591254D01*
X114203696Y-71960145D01*
X114425526Y-72292137D01*
X114707863Y-72574474D01*
X115039855Y-72796304D01*
X115408746Y-72949104D01*
X115800358Y-73027000D01*
X116199642Y-73027000D01*
X116591254Y-72949104D01*
X116960145Y-72796304D01*
X117292137Y-72574474D01*
X117574474Y-72292137D01*
X117796304Y-71960145D01*
X117949104Y-71591254D01*
X118027000Y-71199642D01*
X118027000Y-70800358D01*
X119973000Y-70800358D01*
X119973000Y-71199642D01*
X120050896Y-71591254D01*
X120203696Y-71960145D01*
X120425526Y-72292137D01*
X120707863Y-72574474D01*
X121039855Y-72796304D01*
X121408746Y-72949104D01*
X121800358Y-73027000D01*
X122199642Y-73027000D01*
X122591254Y-72949104D01*
X122960145Y-72796304D01*
X123292137Y-72574474D01*
X123574474Y-72292137D01*
X123796304Y-71960145D01*
X123949104Y-71591254D01*
X124027000Y-71199642D01*
X124027000Y-70800358D01*
X123949104Y-70408746D01*
X123796304Y-70039855D01*
X123574474Y-69707863D01*
X123292137Y-69425526D01*
X122960145Y-69203696D01*
X122591254Y-69050896D01*
X122199642Y-68973000D01*
X121800358Y-68973000D01*
X121408746Y-69050896D01*
X121039855Y-69203696D01*
X120707863Y-69425526D01*
X120425526Y-69707863D01*
X120203696Y-70039855D01*
X120050896Y-70408746D01*
X119973000Y-70800358D01*
X118027000Y-70800358D01*
X117949104Y-70408746D01*
X117796304Y-70039855D01*
X117574474Y-69707863D01*
X117292137Y-69425526D01*
X116960145Y-69203696D01*
X116591254Y-69050896D01*
X116199642Y-68973000D01*
X115800358Y-68973000D01*
X115408746Y-69050896D01*
X115039855Y-69203696D01*
X114707863Y-69425526D01*
X114425526Y-69707863D01*
X114203696Y-70039855D01*
X114050896Y-70408746D01*
X113973000Y-70800358D01*
X112227000Y-70800358D01*
X112227000Y-70583677D01*
X112064559Y-69767029D01*
X111745919Y-68997765D01*
X111283326Y-68305444D01*
X111044882Y-68067000D01*
X111419642Y-68067000D01*
X111811254Y-67989104D01*
X112180145Y-67836304D01*
X112490000Y-67629265D01*
X112799855Y-67836304D01*
X113168746Y-67989104D01*
X113560358Y-68067000D01*
X113959642Y-68067000D01*
X114351254Y-67989104D01*
X114720145Y-67836304D01*
X115030000Y-67629265D01*
X115339855Y-67836304D01*
X115708746Y-67989104D01*
X116100358Y-68067000D01*
X116499642Y-68067000D01*
X116891254Y-67989104D01*
X117260145Y-67836304D01*
X117570000Y-67629265D01*
X117879855Y-67836304D01*
X118248746Y-67989104D01*
X118640358Y-68067000D01*
X119039642Y-68067000D01*
X119431254Y-67989104D01*
X119800145Y-67836304D01*
X120110000Y-67629265D01*
X120419855Y-67836304D01*
X120788746Y-67989104D01*
X121180358Y-68067000D01*
X121579642Y-68067000D01*
X121971254Y-67989104D01*
X122340145Y-67836304D01*
X122393941Y-67800358D01*
X123973000Y-67800358D01*
X123973000Y-68199642D01*
X124050896Y-68591254D01*
X124203696Y-68960145D01*
X124425526Y-69292137D01*
X124707863Y-69574474D01*
X125039855Y-69796304D01*
X125408746Y-69949104D01*
X125800358Y-70027000D01*
X126199642Y-70027000D01*
X126591254Y-69949104D01*
X126960145Y-69796304D01*
X127292137Y-69574474D01*
X127574474Y-69292137D01*
X127796304Y-68960145D01*
X127949104Y-68591254D01*
X128027000Y-68199642D01*
X128027000Y-67800358D01*
X127949104Y-67408746D01*
X127796304Y-67039855D01*
X127574474Y-66707863D01*
X127292137Y-66425526D01*
X126960145Y-66203696D01*
X126591254Y-66050896D01*
X126199642Y-65973000D01*
X125800358Y-65973000D01*
X125408746Y-66050896D01*
X125039855Y-66203696D01*
X124707863Y-66425526D01*
X124425526Y-66707863D01*
X124203696Y-67039855D01*
X124050896Y-67408746D01*
X123973000Y-67800358D01*
X122393941Y-67800358D01*
X122672137Y-67614474D01*
X122954474Y-67332137D01*
X123176304Y-67000145D01*
X123329104Y-66631254D01*
X123407000Y-66239642D01*
X123407000Y-65840358D01*
X123329104Y-65448746D01*
X123176304Y-65079855D01*
X122969265Y-64770000D01*
X123176304Y-64460145D01*
X123329104Y-64091254D01*
X123407000Y-63699642D01*
X123407000Y-63300358D01*
X123329104Y-62908746D01*
X123176304Y-62539855D01*
X122969265Y-62230000D01*
X123176304Y-61920145D01*
X123225921Y-61800358D01*
X123973000Y-61800358D01*
X123973000Y-62199642D01*
X124050896Y-62591254D01*
X124203696Y-62960145D01*
X124425526Y-63292137D01*
X124707863Y-63574474D01*
X125039855Y-63796304D01*
X125408746Y-63949104D01*
X125800358Y-64027000D01*
X126199642Y-64027000D01*
X126591254Y-63949104D01*
X126960145Y-63796304D01*
X127292137Y-63574474D01*
X127574474Y-63292137D01*
X127796304Y-62960145D01*
X127949104Y-62591254D01*
X128027000Y-62199642D01*
X128027000Y-61800358D01*
X127949104Y-61408746D01*
X127796304Y-61039855D01*
X127574474Y-60707863D01*
X127292137Y-60425526D01*
X126960145Y-60203696D01*
X126591254Y-60050896D01*
X126199642Y-59973000D01*
X125800358Y-59973000D01*
X125408746Y-60050896D01*
X125039855Y-60203696D01*
X124707863Y-60425526D01*
X124425526Y-60707863D01*
X124203696Y-61039855D01*
X124050896Y-61408746D01*
X123973000Y-61800358D01*
X123225921Y-61800358D01*
X123329104Y-61551254D01*
X123407000Y-61159642D01*
X123407000Y-60760358D01*
X123329104Y-60368746D01*
X123176304Y-59999855D01*
X122969265Y-59690000D01*
X123176304Y-59380145D01*
X123329104Y-59011254D01*
X123407000Y-58619642D01*
X123407000Y-58220358D01*
X123329104Y-57828746D01*
X123176304Y-57459855D01*
X122969265Y-57150000D01*
X123176304Y-56840145D01*
X123329104Y-56471254D01*
X123407000Y-56079642D01*
X123407000Y-55680358D01*
X123329104Y-55288746D01*
X123176304Y-54919855D01*
X122954474Y-54587863D01*
X122672137Y-54305526D01*
X122340145Y-54083696D01*
X121971254Y-53930896D01*
X121579642Y-53853000D01*
X121180358Y-53853000D01*
X120789193Y-53930807D01*
X120815140Y-53800358D01*
X123973000Y-53800358D01*
X123973000Y-54199642D01*
X124050896Y-54591254D01*
X124203696Y-54960145D01*
X124425526Y-55292137D01*
X124633389Y-55500000D01*
X124425526Y-55707863D01*
X124203696Y-56039855D01*
X124050896Y-56408746D01*
X123973000Y-56800358D01*
X123973000Y-57199642D01*
X124050896Y-57591254D01*
X124203696Y-57960145D01*
X124425526Y-58292137D01*
X124707863Y-58574474D01*
X125039855Y-58796304D01*
X125408746Y-58949104D01*
X125800358Y-59027000D01*
X126199642Y-59027000D01*
X126591254Y-58949104D01*
X126960145Y-58796304D01*
X127292137Y-58574474D01*
X127574474Y-58292137D01*
X127796304Y-57960145D01*
X127949104Y-57591254D01*
X128027000Y-57199642D01*
X128027000Y-56800358D01*
X127949104Y-56408746D01*
X127796304Y-56039855D01*
X127574474Y-55707863D01*
X127366611Y-55500000D01*
X127574474Y-55292137D01*
X127796304Y-54960145D01*
X127949104Y-54591254D01*
X128027000Y-54199642D01*
X128027000Y-53800358D01*
X127949104Y-53408746D01*
X127796304Y-53039855D01*
X127574474Y-52707863D01*
X127292137Y-52425526D01*
X126960145Y-52203696D01*
X126591254Y-52050896D01*
X126199642Y-51973000D01*
X125800358Y-51973000D01*
X125408746Y-52050896D01*
X125039855Y-52203696D01*
X124707863Y-52425526D01*
X124425526Y-52707863D01*
X124203696Y-53039855D01*
X124050896Y-53408746D01*
X123973000Y-53800358D01*
X120815140Y-53800358D01*
X120867000Y-53539642D01*
X120867000Y-53140358D01*
X120789104Y-52748746D01*
X120636304Y-52379855D01*
X120414474Y-52047863D01*
X120132137Y-51765526D01*
X119800145Y-51543696D01*
X119431254Y-51390896D01*
X119039642Y-51313000D01*
X118640358Y-51313000D01*
X118248746Y-51390896D01*
X117879855Y-51543696D01*
X117570000Y-51750735D01*
X117260145Y-51543696D01*
X116891254Y-51390896D01*
X116499642Y-51313000D01*
X116100358Y-51313000D01*
X115708746Y-51390896D01*
X115339855Y-51543696D01*
X115030000Y-51750735D01*
X114720145Y-51543696D01*
X114351254Y-51390896D01*
X113959642Y-51313000D01*
X113560358Y-51313000D01*
X113168746Y-51390896D01*
X112799855Y-51543696D01*
X112490000Y-51750735D01*
X112180145Y-51543696D01*
X111811254Y-51390896D01*
X111419642Y-51313000D01*
X111020358Y-51313000D01*
X110628746Y-51390896D01*
X110259855Y-51543696D01*
X109927863Y-51765526D01*
X109645526Y-52047863D01*
X109527000Y-52225250D01*
X109527000Y-50942768D01*
X109870807Y-50800358D01*
X120973000Y-50800358D01*
X120973000Y-51199642D01*
X121050896Y-51591254D01*
X121203696Y-51960145D01*
X121425526Y-52292137D01*
X121707863Y-52574474D01*
X122039855Y-52796304D01*
X122408746Y-52949104D01*
X122800358Y-53027000D01*
X123199642Y-53027000D01*
X123591254Y-52949104D01*
X123960145Y-52796304D01*
X124292137Y-52574474D01*
X124574474Y-52292137D01*
X124796304Y-51960145D01*
X124949104Y-51591254D01*
X125027000Y-51199642D01*
X125027000Y-50800358D01*
X124949104Y-50408746D01*
X124796304Y-50039855D01*
X124787952Y-50027356D01*
X124799640Y-49988827D01*
X124819469Y-49787500D01*
X124819469Y-48212500D01*
X124799640Y-48011173D01*
X124740915Y-47817583D01*
X124645551Y-47639169D01*
X124517212Y-47482788D01*
X124360831Y-47354449D01*
X124182417Y-47259085D01*
X123988827Y-47200360D01*
X123787500Y-47180531D01*
X122212500Y-47180531D01*
X122011173Y-47200360D01*
X121817583Y-47259085D01*
X121639169Y-47354449D01*
X121482788Y-47482788D01*
X121354449Y-47639169D01*
X121259085Y-47817583D01*
X121200360Y-48011173D01*
X121180531Y-48212500D01*
X121180531Y-49787500D01*
X121200360Y-49988827D01*
X121212048Y-50027356D01*
X121203696Y-50039855D01*
X121050896Y-50408746D01*
X120973000Y-50800358D01*
X109870807Y-50800358D01*
X110002235Y-50745919D01*
X110694556Y-50283326D01*
X111283326Y-49694556D01*
X111745919Y-49002235D01*
X112064559Y-48232971D01*
X112227000Y-47416323D01*
X112227000Y-46583677D01*
X112077066Y-45829905D01*
X112273000Y-45829905D01*
X112273000Y-46170095D01*
X112339368Y-46503747D01*
X112407242Y-46667609D01*
X112373000Y-46839755D01*
X112373000Y-47160245D01*
X112435525Y-47474578D01*
X112446055Y-47500000D01*
X112435525Y-47525422D01*
X112373000Y-47839755D01*
X112373000Y-48160245D01*
X112435525Y-48474578D01*
X112558172Y-48770673D01*
X112736227Y-49037152D01*
X112962848Y-49263773D01*
X113229327Y-49441828D01*
X113525422Y-49564475D01*
X113839755Y-49627000D01*
X114160245Y-49627000D01*
X114474578Y-49564475D01*
X114770673Y-49441828D01*
X115037152Y-49263773D01*
X115263773Y-49037152D01*
X115441828Y-48770673D01*
X115564475Y-48474578D01*
X115627000Y-48160245D01*
X115627000Y-47839755D01*
X115564475Y-47525422D01*
X115553945Y-47500000D01*
X115564475Y-47474578D01*
X115627000Y-47160245D01*
X115627000Y-46839755D01*
X115592758Y-46667609D01*
X115660632Y-46503747D01*
X115727000Y-46170095D01*
X115727000Y-45829905D01*
X115660632Y-45496253D01*
X115530447Y-45181959D01*
X115341448Y-44899102D01*
X115100898Y-44658552D01*
X114818041Y-44469553D01*
X114503747Y-44339368D01*
X114170095Y-44273000D01*
X113829905Y-44273000D01*
X113496253Y-44339368D01*
X113181959Y-44469553D01*
X112899102Y-44658552D01*
X112658552Y-44899102D01*
X112469553Y-45181959D01*
X112339368Y-45496253D01*
X112273000Y-45829905D01*
X112077066Y-45829905D01*
X112064559Y-45767029D01*
X111745919Y-44997765D01*
X111283326Y-44305444D01*
X110694556Y-43716674D01*
X110002235Y-43254081D01*
X109232971Y-42935441D01*
X108416323Y-42773000D01*
X107583677Y-42773000D01*
X106767029Y-42935441D01*
X105997765Y-43254081D01*
X105305444Y-43716674D01*
X104716674Y-44305444D01*
X104254081Y-44997765D01*
X104123555Y-45312883D01*
X103960145Y-45203696D01*
X103591254Y-45050896D01*
X103199642Y-44973000D01*
X102800358Y-44973000D01*
X102408746Y-45050896D01*
X102039855Y-45203696D01*
X101707863Y-45425526D01*
X101500000Y-45633389D01*
X101292137Y-45425526D01*
X100960145Y-45203696D01*
X100591254Y-45050896D01*
X100199642Y-44973000D01*
X99800358Y-44973000D01*
X99408746Y-45050896D01*
X99039855Y-45203696D01*
X98707863Y-45425526D01*
X98500000Y-45633389D01*
X98292137Y-45425526D01*
X97960145Y-45203696D01*
X97591254Y-45050896D01*
X97199642Y-44973000D01*
X96800358Y-44973000D01*
X96408746Y-45050896D01*
X96039855Y-45203696D01*
X95707863Y-45425526D01*
X95425526Y-45707863D01*
X95203696Y-46039855D01*
X95050896Y-46408746D01*
X94973000Y-46800358D01*
X94973000Y-47199642D01*
X95050896Y-47591254D01*
X95203696Y-47960145D01*
X95425526Y-48292137D01*
X95707863Y-48574474D01*
X96039855Y-48796304D01*
X96408746Y-48949104D01*
X96800358Y-49027000D01*
X97199642Y-49027000D01*
X97591254Y-48949104D01*
X97960145Y-48796304D01*
X98292137Y-48574474D01*
X98500000Y-48366611D01*
X98707863Y-48574474D01*
X99039855Y-48796304D01*
X99408746Y-48949104D01*
X99800358Y-49027000D01*
X100199642Y-49027000D01*
X100591254Y-48949104D01*
X100960145Y-48796304D01*
X101292137Y-48574474D01*
X101500000Y-48366611D01*
X101707863Y-48574474D01*
X102039855Y-48796304D01*
X102408746Y-48949104D01*
X102800358Y-49027000D01*
X103199642Y-49027000D01*
X103591254Y-48949104D01*
X103960145Y-48796304D01*
X104123555Y-48687117D01*
X104254081Y-49002235D01*
X104716674Y-49694556D01*
X105305444Y-50283326D01*
X105997765Y-50745919D01*
X106473000Y-50942768D01*
X106473000Y-52090556D01*
X106444474Y-52047863D01*
X106162137Y-51765526D01*
X105830145Y-51543696D01*
X105461254Y-51390896D01*
X105069642Y-51313000D01*
X104670358Y-51313000D01*
X104278746Y-51390896D01*
X103909855Y-51543696D01*
X103600000Y-51750735D01*
X103290145Y-51543696D01*
X102921254Y-51390896D01*
X102529642Y-51313000D01*
X102130358Y-51313000D01*
X101738746Y-51390896D01*
X101369855Y-51543696D01*
X101060000Y-51750735D01*
X100750145Y-51543696D01*
X100381254Y-51390896D01*
X99989642Y-51313000D01*
X99590358Y-51313000D01*
X99198746Y-51390896D01*
X98829855Y-51543696D01*
X98520000Y-51750735D01*
X98210145Y-51543696D01*
X97841254Y-51390896D01*
X97449642Y-51313000D01*
X97050358Y-51313000D01*
X96658746Y-51390896D01*
X96289855Y-51543696D01*
X95957863Y-51765526D01*
X95675526Y-52047863D01*
X95453696Y-52379855D01*
X95300896Y-52748746D01*
X95223000Y-53140358D01*
X95223000Y-53539642D01*
X95300896Y-53931254D01*
X95453696Y-54300145D01*
X95660735Y-54610000D01*
X95453696Y-54919855D01*
X95300896Y-55288746D01*
X95223000Y-55680358D01*
X95223000Y-56079642D01*
X95300896Y-56471254D01*
X95453696Y-56840145D01*
X95660735Y-57150000D01*
X95453696Y-57459855D01*
X95300896Y-57828746D01*
X95223000Y-58220358D01*
X95223000Y-58619642D01*
X95300896Y-59011254D01*
X95453696Y-59380145D01*
X95675526Y-59712137D01*
X95957863Y-59994474D01*
X96289855Y-60216304D01*
X96658746Y-60369104D01*
X97050358Y-60447000D01*
X97449642Y-60447000D01*
X97841254Y-60369104D01*
X98210145Y-60216304D01*
X98520000Y-60009265D01*
X98829855Y-60216304D01*
X99198746Y-60369104D01*
X99590358Y-60447000D01*
X99686389Y-60447000D01*
X99425526Y-60707863D01*
X99203696Y-61039855D01*
X99050896Y-61408746D01*
X98973000Y-61800358D01*
X98973000Y-62199642D01*
X99018298Y-62427373D01*
X98827152Y-62236227D01*
X98560673Y-62058172D01*
X98264578Y-61935525D01*
X97950245Y-61873000D01*
X97629755Y-61873000D01*
X97315422Y-61935525D01*
X97155000Y-62001974D01*
X96994578Y-61935525D01*
X96680245Y-61873000D01*
X96359755Y-61873000D01*
X96045422Y-61935525D01*
X95885000Y-62001974D01*
X95724578Y-61935525D01*
X95410245Y-61873000D01*
X95089755Y-61873000D01*
X94775422Y-61935525D01*
X94627000Y-61997004D01*
X94627000Y-61839755D01*
X94564475Y-61525422D01*
X94441828Y-61229327D01*
X94263773Y-60962848D01*
X94037152Y-60736227D01*
X93770673Y-60558172D01*
X93474578Y-60435525D01*
X93160245Y-60373000D01*
X92839755Y-60373000D01*
X92525422Y-60435525D01*
X92229327Y-60558172D01*
X92000000Y-60711403D01*
X91770673Y-60558172D01*
X91474578Y-60435525D01*
X91160245Y-60373000D01*
X90839755Y-60373000D01*
X90525422Y-60435525D01*
X90229327Y-60558172D01*
X90000000Y-60711403D01*
X89770673Y-60558172D01*
X89474578Y-60435525D01*
X89160245Y-60373000D01*
X88839755Y-60373000D01*
X88525422Y-60435525D01*
X88229327Y-60558172D01*
X88000000Y-60711403D01*
X87770673Y-60558172D01*
X87474578Y-60435525D01*
X87160245Y-60373000D01*
X86839755Y-60373000D01*
X86525422Y-60435525D01*
X86229327Y-60558172D01*
X85962848Y-60736227D01*
X85736227Y-60962848D01*
X85558172Y-61229327D01*
X85435525Y-61525422D01*
X85373000Y-61839755D01*
X85373000Y-62160245D01*
X85435525Y-62474578D01*
X85558172Y-62770673D01*
X85736227Y-63037152D01*
X85962848Y-63263773D01*
X86229327Y-63441828D01*
X86525422Y-63564475D01*
X86839755Y-63627000D01*
X87160245Y-63627000D01*
X87474578Y-63564475D01*
X87770673Y-63441828D01*
X88000000Y-63288597D01*
X88229327Y-63441828D01*
X88525422Y-63564475D01*
X88839755Y-63627000D01*
X89160245Y-63627000D01*
X89474578Y-63564475D01*
X89770673Y-63441828D01*
X90000000Y-63288597D01*
X90229327Y-63441828D01*
X90525422Y-63564475D01*
X90839755Y-63627000D01*
X91160245Y-63627000D01*
X91474578Y-63564475D01*
X91770673Y-63441828D01*
X92000000Y-63288597D01*
X92229327Y-63441828D01*
X92525422Y-63564475D01*
X92839755Y-63627000D01*
X93160245Y-63627000D01*
X93474578Y-63564475D01*
X93623000Y-63502996D01*
X93623000Y-63660245D01*
X93685525Y-63974578D01*
X93808172Y-64270673D01*
X93986227Y-64537152D01*
X94212848Y-64763773D01*
X94222167Y-64770000D01*
X94212848Y-64776227D01*
X93986227Y-65002848D01*
X93924593Y-65095090D01*
X93842797Y-65013294D01*
X93794976Y-64955024D01*
X93562460Y-64764203D01*
X93297185Y-64622410D01*
X93009344Y-64535095D01*
X92785011Y-64513000D01*
X92785001Y-64513000D01*
X92710000Y-64505613D01*
X92634999Y-64513000D01*
X86992504Y-64513000D01*
X82412797Y-59933294D01*
X82364976Y-59875024D01*
X82132460Y-59684203D01*
X81867185Y-59542410D01*
X81579344Y-59455095D01*
X81355011Y-59433000D01*
X81355001Y-59433000D01*
X81280000Y-59425613D01*
X81204999Y-59433000D01*
X78749911Y-59433000D01*
X78911828Y-59190673D01*
X79034475Y-58894578D01*
X79097000Y-58580245D01*
X79097000Y-58259755D01*
X79034475Y-57945422D01*
X78911828Y-57649327D01*
X78733773Y-57382848D01*
X78507152Y-57156227D01*
X78497833Y-57150000D01*
X78507152Y-57143773D01*
X78733773Y-56917152D01*
X78911828Y-56650673D01*
X79034475Y-56354578D01*
X79097000Y-56040245D01*
X79097000Y-55719755D01*
X79034475Y-55405422D01*
X78911828Y-55109327D01*
X78733773Y-54842848D01*
X78507152Y-54616227D01*
X78497833Y-54610000D01*
X78507152Y-54603773D01*
X78733773Y-54377152D01*
X78911828Y-54110673D01*
X79034475Y-53814578D01*
X79097000Y-53500245D01*
X79097000Y-53179755D01*
X79034475Y-52865422D01*
X78911828Y-52569327D01*
X78733773Y-52302848D01*
X78507152Y-52076227D01*
X78497833Y-52070000D01*
X78507152Y-52063773D01*
X78733773Y-51837152D01*
X78911828Y-51570673D01*
X79034475Y-51274578D01*
X79097000Y-50960245D01*
X79097000Y-50639755D01*
X79034475Y-50325422D01*
X79023844Y-50299755D01*
X80923000Y-50299755D01*
X80923000Y-50620245D01*
X80985525Y-50934578D01*
X81108172Y-51230673D01*
X81286227Y-51497152D01*
X81512848Y-51723773D01*
X81776591Y-51900000D01*
X81512848Y-52076227D01*
X81286227Y-52302848D01*
X81108172Y-52569327D01*
X80985525Y-52865422D01*
X80923000Y-53179755D01*
X80923000Y-53500245D01*
X80985525Y-53814578D01*
X81108172Y-54110673D01*
X81286227Y-54377152D01*
X81512848Y-54603773D01*
X81522167Y-54610000D01*
X81512848Y-54616227D01*
X81286227Y-54842848D01*
X81108172Y-55109327D01*
X80985525Y-55405422D01*
X80923000Y-55719755D01*
X80923000Y-56040245D01*
X80985525Y-56354578D01*
X81108172Y-56650673D01*
X81286227Y-56917152D01*
X81512848Y-57143773D01*
X81779327Y-57321828D01*
X82075422Y-57444475D01*
X82389755Y-57507000D01*
X82710245Y-57507000D01*
X83024578Y-57444475D01*
X83320673Y-57321828D01*
X83587152Y-57143773D01*
X83813773Y-56917152D01*
X83991828Y-56650673D01*
X84114475Y-56354578D01*
X84177000Y-56040245D01*
X84177000Y-55719755D01*
X84114475Y-55405422D01*
X83991828Y-55109327D01*
X83813773Y-54842848D01*
X83587152Y-54616227D01*
X83577833Y-54610000D01*
X83587152Y-54603773D01*
X83813773Y-54377152D01*
X83991828Y-54110673D01*
X84114475Y-53814578D01*
X84177000Y-53500245D01*
X84177000Y-53179755D01*
X84114475Y-52865422D01*
X83991828Y-52569327D01*
X83813773Y-52302848D01*
X83587152Y-52076227D01*
X83323409Y-51900000D01*
X83413572Y-51839755D01*
X85373000Y-51839755D01*
X85373000Y-52160245D01*
X85435525Y-52474578D01*
X85558172Y-52770673D01*
X85736227Y-53037152D01*
X85962848Y-53263773D01*
X86229327Y-53441828D01*
X86525422Y-53564475D01*
X86839755Y-53627000D01*
X87160245Y-53627000D01*
X87474578Y-53564475D01*
X87770673Y-53441828D01*
X88000000Y-53288597D01*
X88229327Y-53441828D01*
X88525422Y-53564475D01*
X88839755Y-53627000D01*
X89160245Y-53627000D01*
X89474578Y-53564475D01*
X89770673Y-53441828D01*
X90000000Y-53288597D01*
X90229327Y-53441828D01*
X90525422Y-53564475D01*
X90839755Y-53627000D01*
X91160245Y-53627000D01*
X91474578Y-53564475D01*
X91770673Y-53441828D01*
X92000000Y-53288597D01*
X92229327Y-53441828D01*
X92525422Y-53564475D01*
X92839755Y-53627000D01*
X93160245Y-53627000D01*
X93474578Y-53564475D01*
X93770673Y-53441828D01*
X94037152Y-53263773D01*
X94263773Y-53037152D01*
X94441828Y-52770673D01*
X94564475Y-52474578D01*
X94627000Y-52160245D01*
X94627000Y-51839755D01*
X94564475Y-51525422D01*
X94441828Y-51229327D01*
X94263773Y-50962848D01*
X94037152Y-50736227D01*
X93770673Y-50558172D01*
X93474578Y-50435525D01*
X93160245Y-50373000D01*
X92839755Y-50373000D01*
X92525422Y-50435525D01*
X92229327Y-50558172D01*
X92000000Y-50711403D01*
X91770673Y-50558172D01*
X91474578Y-50435525D01*
X91160245Y-50373000D01*
X90839755Y-50373000D01*
X90525422Y-50435525D01*
X90229327Y-50558172D01*
X90000000Y-50711403D01*
X89770673Y-50558172D01*
X89474578Y-50435525D01*
X89160245Y-50373000D01*
X88839755Y-50373000D01*
X88525422Y-50435525D01*
X88229327Y-50558172D01*
X88000000Y-50711403D01*
X87770673Y-50558172D01*
X87474578Y-50435525D01*
X87160245Y-50373000D01*
X86839755Y-50373000D01*
X86525422Y-50435525D01*
X86229327Y-50558172D01*
X85962848Y-50736227D01*
X85736227Y-50962848D01*
X85558172Y-51229327D01*
X85435525Y-51525422D01*
X85373000Y-51839755D01*
X83413572Y-51839755D01*
X83587152Y-51723773D01*
X83813773Y-51497152D01*
X83991828Y-51230673D01*
X84114475Y-50934578D01*
X84177000Y-50620245D01*
X84177000Y-50299755D01*
X84114475Y-49985422D01*
X83991828Y-49689327D01*
X83813773Y-49422848D01*
X83587152Y-49196227D01*
X83320673Y-49018172D01*
X83024578Y-48895525D01*
X82710245Y-48833000D01*
X82389755Y-48833000D01*
X82075422Y-48895525D01*
X81779327Y-49018172D01*
X81512848Y-49196227D01*
X81286227Y-49422848D01*
X81108172Y-49689327D01*
X80985525Y-49985422D01*
X80923000Y-50299755D01*
X79023844Y-50299755D01*
X78911828Y-50029327D01*
X78733773Y-49762848D01*
X78507152Y-49536227D01*
X78240673Y-49358172D01*
X77944578Y-49235525D01*
X77630245Y-49173000D01*
X77309755Y-49173000D01*
X76995422Y-49235525D01*
X76835000Y-49301974D01*
X76674578Y-49235525D01*
X76360245Y-49173000D01*
X76039755Y-49173000D01*
X75725422Y-49235525D01*
X75565000Y-49301974D01*
X75404578Y-49235525D01*
X75090245Y-49173000D01*
X74769755Y-49173000D01*
X74455422Y-49235525D01*
X74295000Y-49301974D01*
X74134578Y-49235525D01*
X73820245Y-49173000D01*
X73499755Y-49173000D01*
X73185422Y-49235525D01*
X73025000Y-49301974D01*
X72864578Y-49235525D01*
X72550245Y-49173000D01*
X72229755Y-49173000D01*
X71915422Y-49235525D01*
X71755000Y-49301974D01*
X71594578Y-49235525D01*
X71280245Y-49173000D01*
X70959755Y-49173000D01*
X70645422Y-49235525D01*
X70485000Y-49301974D01*
X70324578Y-49235525D01*
X70010245Y-49173000D01*
X69689755Y-49173000D01*
X69375422Y-49235525D01*
X69215000Y-49301974D01*
X69054578Y-49235525D01*
X68740245Y-49173000D01*
X68419755Y-49173000D01*
X68105422Y-49235525D01*
X67809327Y-49358172D01*
X67542848Y-49536227D01*
X67316227Y-49762848D01*
X67138172Y-50029327D01*
X67015525Y-50325422D01*
X66953000Y-50639755D01*
X66953000Y-50960245D01*
X67015525Y-51274578D01*
X67138172Y-51570673D01*
X67316227Y-51837152D01*
X67542848Y-52063773D01*
X67552167Y-52070000D01*
X67542848Y-52076227D01*
X67316227Y-52302848D01*
X67138172Y-52569327D01*
X67015525Y-52865422D01*
X66953000Y-53179755D01*
X66953000Y-53500245D01*
X67015525Y-53814578D01*
X67138172Y-54110673D01*
X67316227Y-54377152D01*
X67542848Y-54603773D01*
X67552167Y-54610000D01*
X67542848Y-54616227D01*
X67316227Y-54842848D01*
X67138172Y-55109327D01*
X67015525Y-55405422D01*
X66953000Y-55719755D01*
X66953000Y-56040245D01*
X67015525Y-56354578D01*
X67138172Y-56650673D01*
X67316227Y-56917152D01*
X67542848Y-57143773D01*
X67552167Y-57150000D01*
X67542848Y-57156227D01*
X67316227Y-57382848D01*
X67138172Y-57649327D01*
X67015525Y-57945422D01*
X66953000Y-58259755D01*
X66953000Y-58580245D01*
X67015525Y-58894578D01*
X67138172Y-59190673D01*
X67316227Y-59457152D01*
X67542848Y-59683773D01*
X67552167Y-59690000D01*
X67542848Y-59696227D01*
X67316227Y-59922848D01*
X67138172Y-60189327D01*
X67015525Y-60485422D01*
X66953000Y-60799755D01*
X66953000Y-61120245D01*
X67015525Y-61434578D01*
X67138172Y-61730673D01*
X67316227Y-61997152D01*
X67542848Y-62223773D01*
X67809327Y-62401828D01*
X68105422Y-62524475D01*
X68419755Y-62587000D01*
X68740245Y-62587000D01*
X69054578Y-62524475D01*
X69215000Y-62458026D01*
X69375422Y-62524475D01*
X69689755Y-62587000D01*
X70010245Y-62587000D01*
X70324578Y-62524475D01*
X70485000Y-62458026D01*
X70645422Y-62524475D01*
X70959755Y-62587000D01*
X71280245Y-62587000D01*
X71594578Y-62524475D01*
X71755000Y-62458026D01*
X71915422Y-62524475D01*
X72229755Y-62587000D01*
X72550245Y-62587000D01*
X72864578Y-62524475D01*
X73025000Y-62458026D01*
X73185422Y-62524475D01*
X73499755Y-62587000D01*
X73820245Y-62587000D01*
X74134578Y-62524475D01*
X74295000Y-62458026D01*
X74455422Y-62524475D01*
X74769755Y-62587000D01*
X75090245Y-62587000D01*
X75404578Y-62524475D01*
X75565000Y-62458026D01*
X75725422Y-62524475D01*
X76039755Y-62587000D01*
X76360245Y-62587000D01*
X76674578Y-62524475D01*
X76835000Y-62458026D01*
X76995422Y-62524475D01*
X77309755Y-62587000D01*
X77630245Y-62587000D01*
X77944578Y-62524475D01*
X78035050Y-62487000D01*
X80647497Y-62487000D01*
X82241081Y-64080584D01*
X82065422Y-64115525D01*
X81769327Y-64238172D01*
X81502848Y-64416227D01*
X81276227Y-64642848D01*
X81098172Y-64909327D01*
X80975525Y-65205422D01*
X80913000Y-65519755D01*
X80913000Y-65840245D01*
X80975525Y-66154578D01*
X81041974Y-66315000D01*
X80975525Y-66475422D01*
X80913000Y-66789755D01*
X80913000Y-67110245D01*
X80975525Y-67424578D01*
X81041974Y-67585000D01*
X80975525Y-67745422D01*
X80913000Y-68059755D01*
X80913000Y-68380245D01*
X80975525Y-68694578D01*
X81090852Y-68973000D01*
X80800358Y-68973000D01*
X80408746Y-69050896D01*
X80039855Y-69203696D01*
X79707863Y-69425526D01*
X79425526Y-69707863D01*
X79203696Y-70039855D01*
X79050896Y-70408746D01*
X78973000Y-70800358D01*
X78973000Y-71199642D01*
X79050896Y-71591254D01*
X79203696Y-71960145D01*
X79425526Y-72292137D01*
X79707863Y-72574474D01*
X80039855Y-72796304D01*
X80408746Y-72949104D01*
X80800358Y-73027000D01*
X81199642Y-73027000D01*
X81591254Y-72949104D01*
X81960145Y-72796304D01*
X82292137Y-72574474D01*
X82500000Y-72366611D01*
X82707863Y-72574474D01*
X83039855Y-72796304D01*
X83408746Y-72949104D01*
X83800358Y-73027000D01*
X84199642Y-73027000D01*
X84591254Y-72949104D01*
X84960145Y-72796304D01*
X85292137Y-72574474D01*
X85574474Y-72292137D01*
X85796304Y-71960145D01*
X85853639Y-71821725D01*
X85935441Y-72232971D01*
X86254081Y-73002235D01*
X86716674Y-73694556D01*
X86970118Y-73948000D01*
X68801335Y-73948000D01*
X68949104Y-73591254D01*
X69027000Y-73199642D01*
X69027000Y-72800358D01*
X68949104Y-72408746D01*
X68796304Y-72039855D01*
X68633934Y-71796851D01*
X68744770Y-71529270D01*
X68814500Y-71178713D01*
X68814500Y-70821287D01*
X68744770Y-70470730D01*
X68607989Y-70140512D01*
X68409414Y-69843323D01*
X68395996Y-69829905D01*
X74273000Y-69829905D01*
X74273000Y-70170095D01*
X74339368Y-70503747D01*
X74407242Y-70667609D01*
X74373000Y-70839755D01*
X74373000Y-71160245D01*
X74435525Y-71474578D01*
X74446055Y-71500000D01*
X74435525Y-71525422D01*
X74373000Y-71839755D01*
X74373000Y-72160245D01*
X74435525Y-72474578D01*
X74558172Y-72770673D01*
X74736227Y-73037152D01*
X74962848Y-73263773D01*
X75229327Y-73441828D01*
X75525422Y-73564475D01*
X75839755Y-73627000D01*
X76160245Y-73627000D01*
X76474578Y-73564475D01*
X76770673Y-73441828D01*
X77037152Y-73263773D01*
X77263773Y-73037152D01*
X77441828Y-72770673D01*
X77564475Y-72474578D01*
X77627000Y-72160245D01*
X77627000Y-71839755D01*
X77564475Y-71525422D01*
X77553945Y-71500000D01*
X77564475Y-71474578D01*
X77627000Y-71160245D01*
X77627000Y-70839755D01*
X77592758Y-70667609D01*
X77660632Y-70503747D01*
X77727000Y-70170095D01*
X77727000Y-69829905D01*
X77660632Y-69496253D01*
X77530447Y-69181959D01*
X77341448Y-68899102D01*
X77100898Y-68658552D01*
X76818041Y-68469553D01*
X76503747Y-68339368D01*
X76170095Y-68273000D01*
X75829905Y-68273000D01*
X75496253Y-68339368D01*
X75181959Y-68469553D01*
X74899102Y-68658552D01*
X74658552Y-68899102D01*
X74469553Y-69181959D01*
X74339368Y-69496253D01*
X74273000Y-69829905D01*
X68395996Y-69829905D01*
X68156677Y-69590586D01*
X67859488Y-69392011D01*
X67529270Y-69255230D01*
X67178713Y-69185500D01*
X66821287Y-69185500D01*
X66470730Y-69255230D01*
X66140512Y-69392011D01*
X65843323Y-69590586D01*
X65590586Y-69843323D01*
X65392011Y-70140512D01*
X65255230Y-70470730D01*
X65185500Y-70821287D01*
X65185500Y-71178713D01*
X65255230Y-71529270D01*
X65366066Y-71796851D01*
X65203696Y-72039855D01*
X65050896Y-72408746D01*
X64973000Y-72800358D01*
X64973000Y-73199642D01*
X65050896Y-73591254D01*
X65198665Y-73948000D01*
X62051450Y-73948000D01*
X61816844Y-73924996D01*
X61640668Y-73871806D01*
X61478177Y-73785408D01*
X61335564Y-73669095D01*
X61218256Y-73527294D01*
X61130725Y-73365410D01*
X61076305Y-73189607D01*
X61052000Y-72958363D01*
X61052000Y-42051450D01*
X61075003Y-41816845D01*
X61128194Y-41640668D01*
X61214593Y-41478177D01*
X61330908Y-41335561D01*
X61472705Y-41218256D01*
X61634591Y-41130725D01*
X61810392Y-41076305D01*
X62041636Y-41052000D01*
X75970118Y-41052000D01*
X75716674Y-41305444D01*
G37*
%TD.AperFunction*%
%TD*%
M02*
